if (_typeface_js && _typeface_js.loadFace) _typeface_js.loadFace({"glyphs":{"0":{"ha":694,"x_min":53,"x_max":642,"o":"m 642 458 q 343 -14 642 -14 q 126 107 199 -14 q 53 458 53 228 q 126 804 53 684 q 349 924 199 924 q 567 805 492 924 q 642 458 642 687 m 517 458 q 475 773 517 677 q 343 869 434 869 q 216 779 255 869 q 178 458 178 688 q 217 134 178 228 q 343 40 256 40 q 475 139 433 40 q 517 458 517 237 z "},"1":{"ha":694,"x_min":122,"x_max":611,"o":"m 425 54 l 611 36 l 611 0 l 122 0 l 122 36 l 309 54 l 309 796 l 125 730 l 125 766 l 390 917 l 425 917 l 425 54 z "},"2":{"ha":694,"x_min":61,"x_max":618,"o":"m 618 0 l 61 0 l 61 100 l 187 214 q 366 387 309 321 q 447 522 422 452 q 472 682 472 592 q 432 817 472 770 q 301 863 392 863 q 227 853 265 863 q 160 827 189 843 l 136 715 l 92 715 l 92 890 q 301 920 215 920 q 525 858 450 920 q 600 682 600 795 q 571 539 600 606 q 480 405 541 471 q 278 218 419 338 q 150 104 218 166 l 618 104 l 618 0 z "},"3":{"ha":694,"x_min":66,"x_max":640,"o":"m 640 248 q 556 56 640 125 q 318 -14 472 -14 q 74 16 189 -14 l 66 207 l 111 207 l 142 79 q 217 54 168 64 q 307 43 265 43 q 465 92 414 43 q 515 254 515 140 q 469 390 515 344 q 323 441 422 437 l 227 447 l 227 503 l 323 509 q 437 556 400 513 q 473 688 473 600 q 434 821 473 779 q 307 863 394 863 q 232 853 271 863 q 163 827 193 843 l 139 715 l 94 715 l 94 890 q 210 914 161 908 q 307 920 259 920 q 599 696 599 920 q 547 546 599 602 q 400 476 495 490 q 582 405 524 462 q 640 248 640 349 z "},"4":{"ha":694,"x_min":27,"x_max":673,"o":"m 549 200 l 549 0 l 433 0 l 433 200 l 27 200 l 27 290 l 471 914 l 549 914 l 549 297 l 673 297 l 673 200 l 549 200 m 433 755 l 429 755 l 104 297 l 433 297 l 433 755 z "},"5":{"ha":694,"x_min":81,"x_max":640,"o":"m 329 532 q 563 467 486 532 q 640 271 640 403 q 557 60 640 134 q 318 -14 473 -14 q 88 16 189 -14 l 81 207 l 125 207 l 156 79 q 228 53 186 63 q 307 43 269 43 q 465 93 414 43 q 515 264 515 144 q 494 391 515 348 q 425 454 472 434 q 297 475 377 475 q 176 458 235 475 l 111 458 l 111 909 l 572 909 l 572 806 l 172 806 l 172 515 q 329 532 245 532 z "},"6":{"ha":694,"x_min":60,"x_max":653,"o":"m 653 282 q 582 63 653 140 q 375 -14 510 -14 q 141 106 222 -14 q 60 449 60 225 q 102 702 60 595 q 222 864 145 808 q 400 920 299 920 q 597 896 499 920 l 597 739 l 553 739 l 529 832 q 469 853 507 844 q 400 863 431 863 q 246 767 301 863 q 185 486 191 671 q 407 545 296 545 q 590 477 527 545 q 653 282 653 410 m 372 40 q 491 93 454 40 q 528 269 528 146 q 493 430 528 380 q 382 479 458 479 q 184 446 289 479 q 231 139 184 239 q 372 40 278 40 z "},"7":{"ha":694,"x_min":92,"x_max":654,"o":"m 136 694 l 92 694 l 92 909 l 654 909 l 654 857 l 249 0 l 161 0 l 559 806 l 160 806 l 136 694 z "},"8":{"ha":694,"x_min":53,"x_max":642,"o":"m 614 688 q 577 561 614 613 q 479 482 541 509 q 599 393 557 454 q 642 245 642 332 q 569 52 642 117 q 343 -14 496 -14 q 53 245 53 -14 q 96 395 53 336 q 214 482 140 454 q 118 561 155 509 q 81 688 81 612 q 150 862 81 800 q 349 924 218 924 q 544 862 475 924 q 614 688 614 801 m 519 245 q 477 403 519 354 q 343 452 435 452 q 214 405 254 452 q 175 245 175 359 q 215 85 175 131 q 343 40 255 40 q 476 87 433 40 q 519 245 519 134 m 492 688 q 455 825 492 781 q 345 869 418 869 q 238 827 273 869 q 203 688 203 784 q 237 552 203 593 q 345 511 271 511 q 456 553 420 511 q 492 688 492 595 z "},"9":{"ha":694,"x_min":45,"x_max":637,"o":"m 45 632 q 121 844 45 769 q 338 920 198 920 q 565 808 493 920 q 637 457 637 696 q 545 107 637 229 q 283 -14 452 -14 q 81 9 173 -14 l 81 167 l 125 167 l 149 69 q 207 51 170 59 q 281 43 243 43 q 448 138 389 43 q 512 418 506 233 q 302 361 409 361 q 114 432 182 361 q 45 632 45 504 m 339 865 q 170 629 170 865 q 210 476 170 526 q 336 427 251 427 q 513 463 424 427 q 472 768 513 671 q 339 865 431 865 z "}," ":{"ha":347,"x_min":0,"x_max":0,"o":""},"!":{"ha":463,"x_min":149,"x_max":313,"o":"m 313 62 q 289 5 313 29 q 231 -20 266 -20 q 172 5 195 -20 q 149 62 149 29 q 172 121 149 97 q 231 144 196 144 q 289 121 265 144 q 313 62 313 97 m 157 909 l 304 909 l 262 264 l 199 264 l 157 909 z "},"\"":{"ha":567,"x_min":86,"x_max":481,"o":"m 347 909 l 481 909 l 439 583 l 389 583 l 347 909 m 86 909 l 220 909 l 178 583 l 127 583 l 86 909 z "},"#":{"ha":694,"x_min":25,"x_max":669,"o":"m 669 355 l 669 286 l 493 286 l 440 0 l 370 0 l 422 286 l 212 286 l 160 0 l 89 0 l 142 286 l 25 286 l 25 355 l 155 355 l 195 564 l 25 564 l 25 633 l 207 633 l 258 909 l 329 909 l 278 633 l 488 633 l 539 909 l 610 909 l 558 633 l 669 633 l 669 564 l 546 564 l 507 355 l 669 355 m 227 355 l 436 355 l 475 564 l 265 564 l 227 355 z "},"$":{"ha":694,"x_min":60,"x_max":652,"o":"m 326 -14 q 175 3 254 -12 q 60 35 97 18 l 60 252 l 104 252 l 127 122 q 207 70 149 94 q 326 41 266 45 l 326 425 q 213 469 245 453 q 155 505 180 485 q 110 551 129 524 q 82 611 92 577 q 72 688 72 646 q 141 847 72 785 q 326 918 211 909 l 326 1006 l 382 1006 l 382 920 q 590 890 486 916 l 590 701 l 546 701 l 526 812 q 465 846 506 831 q 382 863 424 860 l 382 539 l 446 516 q 605 414 558 475 q 652 262 652 353 q 579 71 652 144 q 382 -11 506 -2 l 382 -106 l 326 -106 l 326 -14 m 536 224 q 504 329 536 288 q 382 404 471 370 l 382 45 q 496 101 456 56 q 536 224 536 146 m 186 724 q 199 655 186 684 q 237 607 212 627 q 326 559 262 586 l 326 860 q 222 815 258 851 q 186 724 186 779 z "},"%":{"ha":1157,"x_min":47,"x_max":1109,"o":"m 298 -14 l 224 -14 l 867 924 l 942 924 l 298 -14 m 489 675 q 265 422 489 422 q 102 487 156 422 q 47 675 47 551 q 269 924 47 924 q 433 861 377 924 q 489 675 489 799 m 383 675 q 355 826 383 778 q 265 873 327 873 q 179 828 206 873 q 153 675 153 783 q 180 518 153 564 q 265 472 207 472 q 355 520 326 472 q 383 675 383 569 m 1109 235 q 886 -18 1109 -18 q 723 46 777 -18 q 668 235 668 111 q 723 419 668 355 q 890 484 778 484 q 1054 421 998 484 q 1109 235 1109 359 m 1004 235 q 976 386 1004 338 q 886 433 948 433 q 801 388 827 433 q 774 235 774 343 q 801 78 774 123 q 886 32 828 32 q 976 80 947 32 q 1004 235 1004 129 z "},"&":{"ha":1080,"x_min":53,"x_max":1055,"o":"m 671 734 q 648 643 671 682 q 584 575 625 604 q 446 507 543 545 l 732 247 q 802 493 798 381 l 705 511 l 705 547 l 1015 547 l 1015 511 l 921 493 q 789 194 869 313 l 943 53 l 1055 36 l 1055 0 l 822 0 l 706 105 q 558 14 635 42 q 390 -14 481 -14 q 137 52 222 -14 q 53 241 53 117 q 77 355 53 307 q 144 436 102 402 q 277 504 186 469 q 174 726 174 603 q 239 873 174 823 q 428 924 304 924 q 608 876 546 924 q 671 734 671 827 m 408 45 q 659 149 555 45 l 321 458 q 218 376 250 428 q 186 249 186 323 q 243 98 186 151 q 408 45 300 45 m 294 739 q 399 550 294 629 q 493 598 465 574 q 537 655 522 621 q 551 739 551 689 q 428 869 551 869 q 326 837 357 869 q 294 739 294 804 z "},"'":{"ha":250,"x_min":58,"x_max":192,"o":"m 58 909 l 192 909 l 150 583 l 100 583 l 58 909 z "},"(":{"ha":463,"x_min":61,"x_max":418,"o":"m 192 335 q 216 54 192 159 q 290 -123 239 -51 q 418 -239 341 -195 l 418 -296 q 208 -140 283 -224 q 97 59 132 -56 q 61 335 61 173 q 96 610 61 496 q 207 808 132 724 q 418 964 282 892 l 418 907 q 286 785 335 859 q 215 612 237 711 q 192 335 192 513 z "},")":{"ha":463,"x_min":45,"x_max":401,"o":"m 45 -296 l 45 -239 q 172 -122 121 -195 q 247 55 223 -50 q 271 335 271 159 q 248 612 271 513 q 176 785 225 711 q 45 907 127 859 l 45 964 q 256 807 180 891 q 366 610 331 724 q 401 335 401 496 q 366 59 401 174 q 256 -139 331 -55 q 45 -296 180 -223 z "},"*":{"ha":694,"x_min":68,"x_max":628,"o":"m 68 722 l 111 819 l 325 688 l 296 909 l 401 909 l 370 688 l 585 817 l 628 721 l 403 654 l 628 589 l 585 493 l 370 621 l 401 400 l 296 400 l 325 623 l 111 490 l 68 587 l 290 654 l 68 722 z "},"+":{"ha":783,"x_min":69,"x_max":715,"o":"m 427 427 l 427 138 l 357 138 l 357 427 l 69 427 l 69 496 l 357 496 l 357 785 l 427 785 l 427 496 l 715 496 l 715 427 l 427 427 z "},",":{"ha":347,"x_min":53,"x_max":260,"o":"m 260 33 q 206 -122 260 -60 q 53 -214 152 -185 l 53 -161 q 172 -47 172 -123 q 162 -23 172 -34 q 127 1 152 -12 q 81 68 81 24 q 104 124 81 104 q 163 143 127 143 q 233 112 206 143 q 260 33 260 81 z "},"-":{"ha":463,"x_min":52,"x_max":412,"o":"m 52 275 l 52 379 l 412 379 l 412 275 l 52 275 z "},".":{"ha":347,"x_min":92,"x_max":256,"o":"m 256 62 q 232 5 256 29 q 174 -20 209 -20 q 115 5 138 -20 q 92 62 92 29 q 115 121 92 97 q 174 144 139 144 q 232 121 208 144 q 256 62 256 97 z "},"/":{"ha":386,"x_min":0,"x_max":386,"o":"m 68 -14 l 0 -14 l 319 916 l 386 916 l 68 -14 z "},":":{"ha":386,"x_min":110,"x_max":273,"o":"m 273 62 q 250 5 273 29 q 192 -20 227 -20 q 133 5 157 -20 q 110 62 110 29 q 134 121 110 97 q 192 144 157 144 q 250 121 226 144 q 273 62 273 98 m 273 570 q 250 511 273 535 q 192 488 226 488 q 134 511 157 488 q 110 570 110 535 q 133 627 110 603 q 192 652 157 652 q 250 627 227 652 q 273 570 273 603 z "},";":{"ha":386,"x_min":72,"x_max":279,"o":"m 273 570 q 250 511 273 535 q 192 488 226 488 q 134 511 157 488 q 110 570 110 535 q 133 627 110 603 q 192 652 157 652 q 250 627 227 652 q 273 570 273 603 m 279 33 q 225 -122 279 -60 q 72 -214 172 -185 l 72 -161 q 192 -47 192 -123 q 181 -22 192 -33 q 146 1 170 -12 q 100 68 100 24 q 123 124 100 104 q 182 143 146 143 q 252 112 225 143 q 279 33 279 81 z "},"<":{"ha":783,"x_min":69,"x_max":715,"o":"m 69 444 l 69 478 l 715 796 l 715 726 l 167 461 l 715 196 l 715 126 l 69 444 z "},"=":{"ha":783,"x_min":69,"x_max":715,"o":"m 715 357 l 715 288 l 69 288 l 69 357 l 715 357 m 715 635 l 715 566 l 69 566 l 69 635 l 715 635 z "},">":{"ha":783,"x_min":71,"x_max":717,"o":"m 71 126 l 71 196 l 619 461 l 71 726 l 71 796 l 717 478 l 717 444 l 71 126 z "},"?":{"ha":616,"x_min":72,"x_max":559,"o":"m 298 237 l 244 237 l 227 464 l 323 484 q 408 543 382 495 q 435 681 435 590 q 399 822 435 781 q 272 863 363 863 q 140 829 196 863 l 117 718 l 72 718 l 72 890 q 272 920 179 920 q 559 689 559 920 q 505 511 559 578 q 346 422 450 444 l 307 414 l 298 237 m 359 62 q 336 5 359 29 q 278 -20 313 -20 q 219 5 243 -20 q 196 62 196 29 q 220 121 196 97 q 278 144 243 144 q 336 121 312 144 q 359 62 359 98 z "},"@":{"ha":1279,"x_min":74,"x_max":1206,"o":"m 989 -125 q 796 -232 893 -199 q 586 -264 699 -264 q 317 -200 433 -264 q 137 -19 201 -136 q 74 245 74 98 q 159 594 74 438 q 394 838 244 750 q 728 925 545 925 q 1081 816 956 925 q 1206 510 1206 707 q 1140 268 1206 381 q 962 85 1074 154 q 729 17 850 17 q 685 52 685 17 q 690 136 685 85 q 574 47 631 77 q 472 17 517 17 q 396 54 423 17 q 370 153 370 91 q 390 310 370 233 q 449 447 411 387 q 543 548 486 507 q 654 605 600 590 q 796 621 708 621 l 821 621 q 879 616 846 621 l 802 257 q 791 195 796 233 q 786 139 786 156 q 799 105 786 114 q 836 97 811 97 q 980 152 915 97 q 1083 306 1045 208 q 1121 509 1121 404 q 1015 774 1121 680 q 724 869 909 869 q 439 792 566 869 q 240 570 313 715 q 167 248 167 425 q 219 12 167 115 q 372 -149 272 -91 q 607 -207 471 -207 q 792 -181 707 -207 q 966 -90 876 -155 l 989 -125 m 772 547 l 739 550 q 592 520 651 550 q 497 400 532 490 q 461 210 461 311 q 515 109 461 109 q 603 130 553 109 q 694 186 653 151 l 772 547 z "},"A":{"ha":1003,"x_min":14,"x_max":993,"o":"m 313 36 l 313 0 l 14 0 l 14 36 l 117 54 l 427 917 l 555 917 l 878 54 l 993 36 l 993 0 l 608 0 l 608 36 l 730 54 l 640 317 l 282 317 l 191 54 l 313 36 m 458 819 l 302 378 l 619 378 l 458 819 z "},"B":{"ha":926,"x_min":40,"x_max":859,"o":"m 650 689 q 597 810 650 772 q 428 848 545 848 l 288 848 l 288 505 l 436 505 q 598 548 546 505 q 650 689 650 591 m 718 259 q 654 399 718 355 q 450 444 591 444 l 288 444 l 288 61 q 487 57 381 57 q 661 106 603 57 q 718 259 718 155 m 40 0 l 40 36 l 157 54 l 157 856 l 40 873 l 40 909 l 456 909 q 709 858 629 909 q 789 696 789 807 q 740 559 789 616 q 602 484 690 503 q 791 413 724 471 q 859 262 859 354 q 768 63 859 131 q 504 -4 677 -4 l 214 0 l 40 0 z "},"C":{"ha":926,"x_min":57,"x_max":850,"o":"m 525 -14 q 180 107 304 -14 q 57 444 57 227 q 176 799 57 679 q 528 920 294 920 q 832 885 669 920 l 836 686 l 791 686 l 771 804 q 661 849 724 833 q 533 865 598 865 q 279 763 359 865 q 199 446 199 661 q 282 143 199 248 q 526 39 366 39 q 672 57 604 39 q 781 107 741 76 l 806 243 l 850 243 l 846 29 q 525 -14 696 -14 z "},"D":{"ha":1003,"x_min":40,"x_max":947,"o":"m 806 461 q 703 750 806 652 q 410 848 600 848 l 288 848 l 288 64 q 481 58 369 58 q 727 157 648 58 q 806 461 806 255 m 453 909 q 826 797 705 909 q 947 460 947 685 q 830 115 947 232 q 481 -3 713 -3 l 157 0 l 40 0 l 40 36 l 157 54 l 157 856 l 40 873 l 40 909 l 453 909 z "},"E":{"ha":848,"x_min":40,"x_max":779,"o":"m 40 36 l 157 54 l 157 856 l 40 873 l 40 909 l 722 909 l 722 692 l 677 692 l 656 839 q 436 848 580 848 l 288 848 l 288 493 l 533 493 l 554 602 l 597 602 l 597 322 l 554 322 l 533 432 l 288 432 l 288 61 l 467 61 q 696 72 642 61 l 734 240 l 779 240 l 766 0 l 40 0 l 40 36 z "},"F":{"ha":772,"x_min":40,"x_max":722,"o":"m 288 408 l 288 54 l 439 36 l 439 0 l 49 0 l 49 36 l 157 54 l 157 856 l 40 873 l 40 909 l 722 909 l 722 692 l 677 692 l 656 839 q 436 848 580 848 l 288 848 l 288 469 l 555 469 l 576 578 l 618 578 l 618 298 l 576 298 l 555 408 l 288 408 z "},"G":{"ha":1003,"x_min":57,"x_max":960,"o":"m 871 47 q 707 4 792 22 q 525 -14 623 -14 q 180 106 304 -14 q 57 444 57 225 q 177 801 57 683 q 528 920 296 920 q 847 879 693 920 l 847 684 l 802 684 l 783 796 q 671 847 736 829 q 533 865 606 865 q 279 762 359 865 q 199 446 199 659 q 281 142 199 245 q 526 39 364 39 q 646 52 583 39 q 741 85 708 66 l 741 343 l 624 361 l 624 397 l 960 397 l 960 361 l 871 343 l 871 47 z "},"H":{"ha":1003,"x_min":40,"x_max":962,"o":"m 40 0 l 40 36 l 157 54 l 157 856 l 40 873 l 40 909 l 404 909 l 404 873 l 288 856 l 288 498 l 715 498 l 715 856 l 599 873 l 599 909 l 962 909 l 962 873 l 846 856 l 846 54 l 962 36 l 962 0 l 599 0 l 599 36 l 715 54 l 715 437 l 288 437 l 288 54 l 404 36 l 404 0 l 40 0 z "},"I":{"ha":463,"x_min":50,"x_max":414,"o":"m 297 54 l 414 36 l 414 0 l 50 0 l 50 36 l 167 54 l 167 856 l 50 873 l 50 909 l 414 909 l 414 873 l 297 856 l 297 54 z "},"J":{"ha":541,"x_min":29,"x_max":511,"o":"m 278 856 l 161 873 l 161 909 l 511 909 l 511 873 l 408 856 l 408 293 q 380 134 408 202 q 296 26 353 66 q 170 -14 239 -14 q 29 7 83 -14 l 29 172 l 74 172 l 94 78 q 131 54 107 62 q 183 45 155 45 q 278 174 278 45 l 278 856 z "},"K":{"ha":1003,"x_min":40,"x_max":989,"o":"m 918 909 l 918 873 l 812 856 l 502 552 l 890 54 l 989 36 l 989 0 l 766 0 l 410 460 l 288 361 l 288 54 l 418 36 l 418 0 l 40 0 l 40 36 l 157 54 l 157 856 l 40 873 l 40 909 l 404 909 l 404 873 l 288 856 l 288 427 l 723 856 l 633 873 l 633 909 l 918 909 z "},"L":{"ha":848,"x_min":40,"x_max":765,"o":"m 428 873 l 288 856 l 288 58 l 467 58 q 679 72 611 58 l 721 261 l 765 261 l 753 0 l 40 0 l 40 36 l 157 54 l 157 856 l 40 873 l 40 909 l 428 909 l 428 873 z "},"M":{"ha":1235,"x_min":40,"x_max":1194,"o":"m 585 0 l 561 0 l 228 782 l 228 54 l 350 36 l 350 0 l 40 0 l 40 36 l 157 54 l 157 856 l 40 873 l 40 909 l 315 909 l 611 218 l 934 909 l 1194 909 l 1194 873 l 1078 856 l 1078 54 l 1194 36 l 1194 0 l 825 0 l 825 36 l 947 54 l 947 782 l 585 0 z "},"N":{"ha":1003,"x_min":40,"x_max":971,"o":"m 783 856 l 661 873 l 661 909 l 971 909 l 971 873 l 854 856 l 854 0 l 789 0 l 228 818 l 228 54 l 350 36 l 350 0 l 40 0 l 40 36 l 157 54 l 157 856 l 40 873 l 40 909 l 315 909 l 783 236 l 783 856 z "},"O":{"ha":1003,"x_min":57,"x_max":946,"o":"m 199 456 q 272 138 199 237 q 501 40 345 40 q 730 138 656 40 q 804 456 804 237 q 731 769 804 673 q 501 865 657 865 q 272 769 345 865 q 199 456 199 673 m 57 456 q 501 920 57 920 q 833 802 721 920 q 946 456 946 684 q 832 105 946 224 q 501 -14 718 -14 q 171 105 285 -14 q 57 456 57 223 z "},"P":{"ha":772,"x_min":40,"x_max":717,"o":"m 582 640 q 530 800 582 752 q 354 848 477 848 l 288 848 l 288 418 l 358 418 q 527 470 473 418 q 582 640 582 522 m 288 357 l 288 54 l 432 36 l 432 0 l 49 0 l 49 36 l 157 54 l 157 856 l 40 873 l 40 909 l 383 909 q 717 642 717 909 q 632 429 717 502 q 390 357 548 357 l 288 357 z "},"Q":{"ha":1003,"x_min":57,"x_max":979,"o":"m 199 454 q 272 138 199 235 q 501 40 345 40 q 730 137 656 40 q 804 454 804 234 q 730 769 804 673 q 501 865 656 865 q 272 769 345 865 q 199 454 199 672 m 57 454 q 501 920 57 920 q 833 802 720 920 q 946 454 946 684 q 705 22 946 121 l 739 -20 q 841 -126 799 -94 q 924 -158 883 -158 l 979 -155 l 979 -200 q 921 -216 964 -207 q 846 -225 878 -225 q 760 -209 798 -225 q 685 -158 723 -193 q 558 -11 647 -123 q 501 -14 534 -14 q 170 105 283 -14 q 57 454 57 224 z "},"R":{"ha":926,"x_min":40,"x_max":924,"o":"m 288 399 l 288 54 l 425 36 l 425 0 l 49 0 l 49 36 l 157 54 l 157 856 l 40 873 l 40 909 l 433 909 q 685 852 604 909 q 766 667 766 794 q 717 510 766 576 q 580 418 667 444 l 826 54 l 924 36 l 924 0 l 707 0 l 451 399 l 288 399 m 631 657 q 581 805 631 761 q 404 848 530 848 l 288 848 l 288 460 l 408 460 q 580 505 529 460 q 631 657 631 550 z "},"S":{"ha":772,"x_min":93,"x_max":686,"o":"m 94 245 l 138 245 l 162 122 q 249 66 187 90 q 370 41 310 41 q 518 90 465 41 q 571 224 571 138 q 550 304 571 273 q 496 358 530 336 q 420 396 463 380 q 332 427 377 411 q 244 461 287 442 q 168 509 201 480 q 114 582 134 538 q 93 688 93 625 q 174 858 93 796 q 400 920 256 920 q 639 890 510 920 l 639 701 l 595 701 l 571 812 q 400 863 502 863 q 258 826 309 863 q 207 724 207 789 q 228 650 207 680 q 282 601 248 621 q 358 565 315 580 q 447 534 401 550 q 535 498 492 518 q 611 447 578 478 q 666 372 645 416 q 686 262 686 328 q 606 59 686 131 q 373 -14 525 -14 q 226 -1 300 -14 q 94 35 152 12 l 94 245 z "},"T":{"ha":848,"x_min":25,"x_max":825,"o":"m 214 0 l 214 36 l 358 54 l 358 851 l 323 851 q 89 838 152 851 l 71 696 l 25 696 l 25 909 l 825 909 l 825 696 l 779 696 l 761 838 q 672 846 741 842 q 522 850 604 850 l 489 850 l 489 54 l 633 36 l 633 0 l 214 0 z "},"U":{"ha":1003,"x_min":29,"x_max":974,"o":"m 786 856 l 664 873 l 664 909 l 974 909 l 974 873 l 857 856 l 857 313 q 767 68 857 149 q 507 -14 677 -14 q 236 68 326 -14 q 146 300 146 150 l 146 856 l 29 873 l 29 909 l 393 909 l 393 873 l 276 856 l 276 310 q 517 62 276 62 q 716 124 647 62 q 786 307 786 186 l 786 856 z "},"V":{"ha":1003,"x_min":16,"x_max":987,"o":"m 987 909 l 987 873 l 888 856 l 522 -21 l 488 -21 l 118 856 l 16 873 l 16 909 l 383 909 l 383 873 l 261 856 l 536 186 l 811 856 l 692 873 l 692 909 l 987 909 z "},"W":{"ha":1311,"x_min":1,"x_max":1308,"o":"m 932 -21 l 896 -21 l 660 606 l 418 -21 l 382 -21 l 81 856 l 1 873 l 1 909 l 349 909 l 349 873 l 215 856 l 431 215 l 676 846 l 707 846 l 943 215 l 1149 856 l 1007 873 l 1007 909 l 1308 909 l 1308 873 l 1229 856 l 932 -21 z "},"X":{"ha":1003,"x_min":31,"x_max":978,"o":"m 215 54 l 328 36 l 328 0 l 31 0 l 31 36 l 131 54 l 440 465 l 176 856 l 74 873 l 74 909 l 449 909 l 449 873 l 334 856 l 522 575 l 733 856 l 621 873 l 621 909 l 918 909 l 918 873 l 818 856 l 562 515 l 875 54 l 978 36 l 978 0 l 603 0 l 603 36 l 718 54 l 479 407 l 215 54 z "},"Y":{"ha":1003,"x_min":16,"x_max":968,"o":"m 568 358 l 568 54 l 713 36 l 713 0 l 293 0 l 293 36 l 437 54 l 437 354 l 118 856 l 16 873 l 16 909 l 400 909 l 400 873 l 278 856 l 539 436 l 787 856 l 672 873 l 672 909 l 968 909 l 968 873 l 868 856 l 568 358 z "},"Z":{"ha":848,"x_min":66,"x_max":772,"o":"m 66 64 l 576 851 l 407 851 q 176 838 239 851 l 155 694 l 109 694 l 109 909 l 728 909 l 728 851 l 214 57 l 411 57 q 571 64 490 57 q 685 79 652 72 l 725 253 l 772 253 l 754 0 l 66 0 l 66 64 z "},"[":{"ha":463,"x_min":103,"x_max":412,"o":"m 103 -186 l 103 964 l 412 964 l 412 932 l 211 904 l 211 -126 l 412 -154 l 412 -186 l 103 -186 z "},"\\":{"ha":386,"x_min":0,"x_max":386,"o":"m 0 916 l 66 916 l 386 -14 l 318 -14 l 0 916 z "},"]":{"ha":463,"x_min":50,"x_max":359,"o":"m 50 -186 l 50 -154 l 252 -126 l 252 904 l 50 932 l 50 964 l 359 964 l 359 -186 l 50 -186 z "},"^":{"ha":652,"x_min":20,"x_max":633,"o":"m 310 909 l 343 909 l 633 264 l 564 264 l 326 812 l 89 264 l 20 264 l 310 909 z "},"_":{"ha":694,"x_min":-11,"x_max":705,"o":"m -11 -179 l -11 -110 l 705 -110 l 705 -179 l -11 -179 z "},"`":{"ha":463,"x_min":81,"x_max":358,"o":"m 321 759 l 81 941 l 81 966 l 225 966 l 358 781 l 358 759 l 321 759 z "},"a":{"ha":616,"x_min":49,"x_max":597,"o":"m 315 652 q 469 609 420 652 q 518 478 518 566 l 518 47 l 597 31 l 597 0 l 422 0 l 410 64 q 212 -14 332 -14 q 49 176 49 -14 q 74 282 49 240 q 153 346 98 323 q 310 370 207 368 l 406 372 l 406 472 q 381 569 406 538 q 307 600 357 600 q 183 568 239 600 l 160 489 l 122 489 l 122 628 q 315 652 232 652 m 406 325 l 317 322 q 194 287 226 319 q 161 180 161 255 q 258 61 161 61 q 338 72 304 61 q 406 98 372 82 l 406 325 z "},"b":{"ha":694,"x_min":0,"x_max":642,"o":"m 519 336 q 476 522 519 461 q 342 583 433 583 q 262 576 302 583 q 205 561 223 569 l 205 56 q 342 45 262 45 q 477 118 435 45 q 519 336 519 191 m 93 917 l 0 933 l 0 964 l 205 964 l 205 736 q 201 602 205 699 q 372 654 269 654 q 572 575 503 654 q 642 336 642 496 q 565 76 642 165 q 345 -14 489 -14 q 216 -1 286 -14 q 93 33 146 12 l 93 917 z "},"c":{"ha":616,"x_min":53,"x_max":574,"o":"m 574 39 q 482 0 541 14 q 363 -14 424 -14 q 53 323 53 -14 q 132 569 53 483 q 358 654 211 654 q 558 633 450 654 l 558 456 l 521 456 l 492 568 q 357 600 435 600 q 175 323 175 600 q 230 118 175 180 q 401 57 286 57 q 574 79 500 57 l 574 39 z "},"d":{"ha":694,"x_min":50,"x_max":677,"o":"m 490 47 q 311 -14 414 -14 q 50 313 50 -14 q 124 567 50 480 q 342 654 198 654 q 490 639 415 654 q 486 751 486 661 l 486 917 l 379 933 l 379 964 l 599 964 l 599 47 l 677 31 l 677 0 l 498 0 l 490 47 m 172 313 q 216 120 172 184 q 349 57 259 57 q 486 83 425 57 l 486 587 q 349 599 426 599 q 172 313 172 599 z "},"e":{"ha":616,"x_min":54,"x_max":568,"o":"m 176 321 l 176 309 q 197 163 176 215 q 261 84 218 111 q 374 57 304 57 q 460 63 410 57 q 543 77 511 69 l 543 39 q 455 2 511 18 q 340 -14 399 -14 q 123 66 192 -14 q 54 323 54 146 q 124 572 54 490 q 323 654 194 654 q 568 376 568 654 l 568 321 l 176 321 m 323 600 q 215 543 253 600 q 178 375 178 486 l 450 375 q 419 548 450 496 q 323 600 388 600 z "},"f":{"ha":463,"x_min":43,"x_max":463,"o":"m 153 581 l 43 581 l 43 614 l 153 640 l 153 685 q 209 902 153 826 q 366 978 264 978 q 463 965 418 978 l 463 826 l 429 826 l 399 909 q 343 924 376 924 q 283 886 300 924 q 265 743 265 848 l 265 637 l 435 637 l 435 581 l 265 581 l 265 53 l 403 31 l 403 0 l 58 0 l 58 31 l 153 53 l 153 581 z "},"g":{"ha":694,"x_min":60,"x_max":668,"o":"m 590 436 q 524 270 590 326 q 335 214 458 214 q 232 224 279 214 l 189 135 q 216 113 191 123 q 277 103 240 103 l 465 103 q 618 58 568 103 q 668 -65 668 14 q 628 -189 668 -136 q 512 -271 589 -242 q 326 -300 435 -300 q 128 -260 196 -300 q 60 -146 60 -220 q 84 -75 60 -110 q 174 7 109 -40 q 109 51 135 20 q 82 118 82 82 l 189 239 q 82 436 82 289 q 148 597 82 541 q 340 654 214 654 q 405 649 366 654 q 465 637 444 644 l 615 713 l 639 684 l 545 586 q 590 436 590 535 m 562 -86 q 538 -26 562 -47 q 467 -4 515 -4 l 220 -4 q 173 -66 191 -28 q 155 -136 155 -104 q 197 -220 155 -195 q 326 -245 239 -245 q 501 -203 439 -245 q 562 -86 562 -161 m 336 265 q 441 308 410 265 q 472 436 472 350 q 440 565 472 526 q 338 603 408 603 q 233 564 267 603 q 200 436 200 526 q 233 306 200 347 q 336 265 265 265 z "},"h":{"ha":694,"x_min":14,"x_max":676,"o":"m 221 688 q 216 586 221 617 q 327 634 265 614 q 432 654 389 654 q 557 606 515 654 q 599 467 599 558 l 599 47 l 676 31 l 676 0 l 401 0 l 401 31 l 486 47 l 486 458 q 374 575 486 575 q 221 555 310 575 l 221 47 l 307 31 l 307 0 l 28 0 l 28 31 l 109 47 l 109 917 l 14 933 l 14 964 l 221 964 l 221 688 z "},"i":{"ha":386,"x_min":29,"x_max":359,"o":"m 257 846 q 235 794 257 816 q 183 772 214 772 q 132 794 153 772 q 110 846 110 816 q 132 898 110 876 q 183 920 153 920 q 235 898 214 920 q 257 846 257 876 m 250 47 l 359 31 l 359 0 l 29 0 l 29 31 l 138 47 l 138 590 l 47 607 l 47 637 l 250 637 l 250 47 z "},"j":{"ha":386,"x_min":-40,"x_max":267,"o":"m 267 846 q 245 794 267 816 q 193 772 223 772 q 141 794 163 772 q 119 846 119 816 q 141 898 119 876 q 193 920 163 920 q 245 898 223 920 q 267 846 267 876 m 260 -26 q 209 -227 260 -159 q 58 -296 157 -296 q -40 -283 16 -296 l -40 -149 l -8 -149 l 10 -222 q 66 -241 33 -241 q 127 -199 106 -241 q 147 -61 147 -156 l 147 590 l 52 607 l 52 637 l 260 637 l 260 -26 z "},"k":{"ha":694,"x_min":26,"x_max":694,"o":"m 233 307 l 494 589 l 428 607 l 428 637 l 653 637 l 653 607 l 574 591 l 392 406 l 625 46 l 694 31 l 694 0 l 433 0 l 433 31 l 492 47 l 317 322 l 233 231 l 233 47 l 301 31 l 301 0 l 40 0 l 40 31 l 121 47 l 121 917 l 26 933 l 26 964 l 233 964 l 233 307 z "},"l":{"ha":386,"x_min":28,"x_max":358,"o":"m 249 47 l 358 31 l 358 0 l 28 0 l 28 31 l 136 47 l 136 917 l 28 933 l 28 964 l 249 964 l 249 47 z "},"m":{"ha":1080,"x_min":29,"x_max":1059,"o":"m 221 586 q 329 635 272 615 q 429 654 386 654 q 516 637 476 654 q 575 581 555 619 q 697 632 627 610 q 814 654 768 654 q 977 467 977 654 l 977 47 l 1059 31 l 1059 0 l 769 0 l 769 31 l 864 47 l 864 454 q 755 571 864 571 q 714 568 738 571 q 668 562 691 566 q 623 554 644 559 q 587 547 602 550 q 599 467 599 511 l 599 47 l 694 31 l 694 0 l 392 0 l 392 31 l 486 47 l 486 454 q 457 541 486 511 q 371 571 429 571 q 222 551 311 571 l 222 47 l 318 31 l 318 0 l 29 0 l 29 31 l 110 47 l 110 590 l 29 607 l 29 637 l 216 637 l 221 586 z "},"n":{"ha":694,"x_min":32,"x_max":673,"o":"m 220 586 q 331 635 272 616 q 429 654 390 654 q 554 606 512 654 q 596 467 596 558 l 596 47 l 673 31 l 673 0 l 399 0 l 399 31 l 484 47 l 484 454 q 456 543 484 511 q 371 575 429 575 q 221 555 310 575 l 221 47 l 307 31 l 307 0 l 32 0 l 32 31 l 109 47 l 109 590 l 32 607 l 32 637 l 214 637 l 220 586 z "},"o":{"ha":694,"x_min":53,"x_max":642,"o":"m 642 322 q 343 -14 642 -14 q 126 73 199 -14 q 53 322 53 159 q 126 569 53 484 q 349 654 199 654 q 568 571 494 654 q 642 322 642 487 m 519 322 q 477 534 519 469 q 343 600 434 600 q 215 537 254 600 q 175 322 175 474 q 215 104 175 168 q 343 40 256 40 q 476 106 433 40 q 519 322 519 173 z "},"p":{"ha":694,"x_min":22,"x_max":640,"o":"m 103 590 l 31 607 l 31 637 l 210 637 l 211 600 q 287 640 239 625 q 385 654 335 654 q 573 570 507 654 q 640 326 640 485 q 567 75 640 164 q 357 -14 494 -14 q 211 1 280 -14 q 215 -75 215 -47 l 215 -248 l 326 -264 l 326 -296 l 22 -296 l 22 -264 l 103 -248 l 103 590 m 518 326 q 476 520 518 456 q 347 583 433 583 q 215 561 268 583 l 215 52 q 347 40 275 40 q 518 326 518 40 z "},"q":{"ha":694,"x_min":50,"x_max":669,"o":"m 551 668 l 599 668 l 599 -248 l 669 -264 l 669 -296 l 399 -296 l 399 -264 l 486 -248 l 486 -71 q 493 43 486 -5 q 311 -14 420 -14 q 50 317 50 -14 q 124 567 50 480 q 339 654 197 654 q 490 639 415 654 l 551 668 m 172 317 q 215 122 172 187 q 349 57 258 57 q 428 64 389 57 q 486 79 467 71 l 486 587 q 349 599 426 599 q 172 317 172 599 z "},"r":{"ha":463,"x_min":28,"x_max":450,"o":"m 450 654 l 450 482 l 421 482 l 382 557 q 301 548 348 557 q 221 524 255 538 l 221 47 l 330 31 l 330 0 l 28 0 l 28 31 l 109 47 l 109 590 l 28 607 l 28 637 l 214 637 l 220 558 q 330 623 260 592 q 440 654 399 654 l 450 654 z "},"s":{"ha":541,"x_min":57,"x_max":490,"o":"m 490 179 q 430 35 490 84 q 253 -14 370 -14 q 148 -4 205 -14 q 58 18 91 6 l 58 175 l 89 175 l 122 86 q 254 40 173 40 q 386 153 386 40 q 282 271 386 235 l 222 290 q 122 336 153 313 q 74 392 91 359 q 57 473 57 426 q 114 606 57 557 q 269 654 172 654 q 444 633 339 654 l 444 494 l 412 494 l 384 568 q 271 600 348 600 q 187 573 216 600 q 158 500 158 546 q 184 435 158 461 q 263 391 210 408 q 393 341 363 357 q 445 303 424 326 q 478 251 467 280 q 490 179 490 222 z "},"t":{"ha":386,"x_min":14,"x_max":378,"o":"m 227 -14 q 129 25 161 -14 q 97 134 97 64 l 97 581 l 14 581 l 14 611 l 98 637 l 167 782 l 210 782 l 210 637 l 355 637 l 355 581 l 210 581 l 210 146 q 230 79 210 102 q 282 57 250 57 q 378 68 321 57 l 378 24 q 309 -3 354 7 q 227 -14 264 -14 z "},"u":{"ha":694,"x_min":18,"x_max":671,"o":"m 212 182 q 321 65 212 65 q 478 86 405 65 l 478 590 l 382 607 l 382 637 l 590 637 l 590 47 l 671 31 l 671 0 l 485 0 l 479 52 q 368 6 431 25 q 262 -14 305 -14 q 100 174 100 -14 l 100 590 l 18 607 l 18 637 l 212 637 l 212 182 z "},"v":{"ha":694,"x_min":0,"x_max":694,"o":"m 378 -14 l 328 -14 l 65 590 l 0 607 l 0 637 l 297 637 l 297 607 l 196 589 l 382 149 l 559 590 l 458 607 l 458 637 l 694 637 l 694 607 l 633 593 l 378 -14 z "},"w":{"ha":1003,"x_min":1,"x_max":997,"o":"m 713 -14 l 660 -14 l 503 407 l 347 -14 l 297 -14 l 77 590 l 1 607 l 1 637 l 304 637 l 304 607 l 199 589 l 350 158 l 504 574 l 561 574 l 714 155 l 859 590 l 754 607 l 754 637 l 997 637 l 997 607 l 926 593 l 713 -14 z "},"x":{"ha":694,"x_min":12,"x_max":677,"o":"m 677 31 l 677 0 l 389 0 l 389 31 l 473 46 l 326 272 l 154 45 l 241 31 l 241 0 l 12 0 l 12 31 l 86 41 l 296 318 l 111 590 l 36 607 l 36 637 l 325 637 l 325 607 l 240 589 l 363 406 l 504 590 l 416 607 l 416 637 l 646 637 l 646 607 l 572 593 l 393 361 l 603 45 l 677 31 z "},"y":{"ha":694,"x_min":17,"x_max":689,"o":"m 135 -300 q 31 -288 82 -300 l 31 -150 l 62 -150 l 85 -215 q 143 -231 106 -231 q 208 -210 178 -231 q 263 -150 238 -190 q 325 -7 288 -110 l 82 590 l 17 607 l 17 637 l 313 637 l 313 607 l 212 589 l 385 143 l 551 590 l 452 607 l 452 637 l 689 637 l 689 607 l 623 593 l 374 -40 q 297 -201 330 -152 q 225 -275 264 -250 q 135 -300 186 -300 z "},"z":{"ha":616,"x_min":37,"x_max":578,"o":"m 37 0 l 37 31 l 387 583 l 237 583 q 164 577 199 583 q 115 559 129 570 l 94 468 l 62 468 l 62 637 l 533 637 l 533 604 l 183 54 l 370 54 q 451 63 408 54 q 511 86 494 73 l 546 220 l 578 220 l 561 0 l 37 0 z "},"{":{"ha":667,"x_min":126,"x_max":541,"o":"m 449 -186 q 318 -134 363 -186 q 272 14 272 -81 l 272 214 q 236 333 272 293 q 126 375 201 372 l 126 406 q 272 566 272 408 l 272 765 q 316 912 272 861 q 449 964 360 964 l 541 964 l 541 932 l 498 932 q 411 895 437 932 q 385 786 385 858 l 385 562 q 349 451 385 498 q 254 392 314 405 l 254 390 q 350 330 315 376 q 385 218 385 284 l 385 -8 q 411 -117 385 -80 q 498 -154 437 -154 l 541 -154 l 541 -186 l 449 -186 z "},"|":{"ha":278,"x_min":104,"x_max":174,"o":"m 104 -300 l 104 964 l 174 964 l 174 -300 l 104 -300 z "},"}":{"ha":667,"x_min":126,"x_max":541,"o":"m 126 -186 l 126 -154 l 168 -154 q 256 -117 230 -154 q 282 -8 282 -80 l 282 218 q 317 330 282 284 q 412 390 351 376 l 412 392 q 317 452 353 405 q 282 562 282 498 l 282 786 q 256 895 282 858 q 168 932 230 932 l 126 932 l 126 964 l 218 964 q 351 912 307 964 q 395 765 395 861 l 395 566 q 541 406 395 408 l 541 375 q 431 333 467 372 q 395 214 395 294 l 395 14 q 349 -133 395 -81 q 218 -186 303 -186 l 126 -186 z "},"~":{"ha":751,"x_min":39,"x_max":711,"o":"m 529 340 q 363 422 457 340 q 280 485 313 465 q 221 504 247 504 q 142 467 169 504 q 107 340 116 430 l 39 340 q 96 520 51 467 q 221 574 141 574 q 299 554 259 574 q 391 492 340 534 q 477 426 449 443 q 529 410 505 410 q 602 445 576 410 q 642 574 629 481 l 711 574 q 678 439 700 486 q 621 366 656 392 q 529 340 585 340 z "}," ":{"ha":347,"x_min":0,"x_max":0,"o":"z "},"¡":{"ha":463,"x_min":149,"x_max":313,"o":"m 149 570 q 172 627 149 603 q 231 652 195 652 q 289 627 266 652 q 313 570 313 603 q 289 511 313 535 q 231 488 265 488 q 172 511 196 488 q 149 570 149 535 m 304 -278 l 157 -278 l 199 368 l 262 368 l 304 -278 z "},"¢":{"ha":694,"x_min":86,"x_max":607,"o":"m 363 126 q 155 219 223 135 q 86 464 86 303 q 158 700 86 614 q 363 793 229 785 l 363 909 l 419 909 l 419 794 q 591 774 511 790 l 591 596 l 554 596 l 525 708 q 419 739 480 732 l 419 197 l 435 197 q 607 220 534 197 l 607 179 q 535 145 583 160 q 419 126 487 131 l 419 0 l 363 0 l 363 126 m 208 464 q 245 282 208 343 q 363 204 283 220 l 363 739 q 208 464 208 720 z "},"£":{"ha":694,"x_min":82,"x_max":652,"o":"m 652 104 l 652 0 l 83 0 l 83 79 l 132 123 q 229 292 229 207 q 218 357 229 323 q 192 427 207 390 l 82 427 l 82 482 l 168 482 q 123 682 123 588 q 194 858 123 796 q 406 920 264 920 q 484 915 444 920 q 604 890 524 909 l 604 715 l 560 715 l 536 827 q 406 863 473 863 q 250 682 250 863 q 270 482 250 589 l 458 482 l 458 427 l 281 427 q 292 311 292 353 q 267 203 292 251 q 184 104 243 155 l 652 104 z "},"¤":{"ha":694,"x_min":65,"x_max":631,"o":"m 83 458 q 138 619 83 549 l 65 692 l 115 742 l 186 668 q 347 724 259 724 q 509 668 435 724 l 582 742 l 631 693 l 557 619 q 612 458 612 545 q 557 297 612 370 l 631 225 l 582 176 l 509 249 q 347 195 439 195 q 186 249 257 195 l 114 176 l 65 225 l 138 297 q 83 458 83 368 m 149 458 q 175 360 149 406 q 248 287 202 314 q 347 260 294 260 q 488 318 429 260 q 547 458 547 376 q 488 600 547 541 q 347 659 429 659 q 249 632 295 659 q 176 559 203 606 q 149 458 149 512 z "},"¥":{"ha":694,"x_min":1,"x_max":693,"o":"m 600 267 l 600 211 l 411 211 l 411 54 l 528 36 l 528 0 l 164 0 l 164 36 l 281 54 l 281 211 l 92 211 l 92 267 l 281 267 l 281 354 l 271 378 l 92 378 l 92 433 l 248 433 l 69 856 l 1 873 l 1 909 l 309 909 l 309 873 l 220 856 l 382 436 l 549 856 l 465 873 l 465 909 l 693 909 l 693 873 l 623 856 l 443 433 l 600 433 l 600 378 l 419 378 l 411 358 l 411 267 l 600 267 z "},"¦":{"ha":278,"x_min":104,"x_max":174,"o":"m 104 543 l 104 964 l 174 964 l 174 543 l 104 543 m 104 -300 l 104 122 l 174 122 l 174 -300 l 104 -300 z "},"§":{"ha":694,"x_min":110,"x_max":591,"o":"m 571 20 q 508 -124 571 -74 q 326 -174 445 -174 q 211 -162 273 -174 q 125 -142 150 -151 l 125 16 l 155 16 l 182 -74 q 244 -106 202 -93 q 328 -119 287 -119 q 430 -91 394 -119 q 467 -7 467 -62 q 451 53 467 27 q 411 99 436 79 q 354 137 386 119 q 288 173 321 155 q 223 211 255 191 q 165 257 191 231 q 125 316 140 283 q 110 395 110 350 q 155 507 110 460 q 271 568 199 554 q 164 653 197 606 q 131 761 131 700 q 188 893 131 845 q 343 942 245 942 q 518 925 421 942 l 518 782 l 486 782 l 464 856 q 416 879 448 870 q 345 888 385 888 q 260 861 289 888 q 232 787 232 833 q 248 731 232 755 q 293 688 264 707 q 412 627 321 669 q 519 566 486 593 q 572 503 553 538 q 591 422 591 467 q 545 300 591 351 q 416 232 499 250 q 509 166 479 196 q 555 101 538 137 q 571 20 571 65 m 488 393 q 473 445 488 422 q 432 487 459 467 q 343 534 405 507 q 248 499 286 532 q 211 419 211 467 q 223 366 211 388 q 258 326 235 344 q 354 267 280 307 q 452 308 416 274 q 488 393 488 342 z "},"¨":{"ha":463,"x_min":43,"x_max":419,"o":"m 419 810 q 400 761 419 781 q 353 741 381 741 q 304 762 324 741 q 285 810 285 783 q 304 858 285 838 q 353 878 324 878 q 400 858 381 878 q 419 810 419 838 m 178 810 q 159 761 178 781 q 111 741 140 741 q 63 762 83 741 q 43 810 43 782 q 64 858 43 838 q 111 878 85 878 q 159 858 140 878 q 178 810 178 838 z "},"©":{"ha":1055,"x_min":60,"x_max":997,"o":"m 60 454 q 123 691 60 583 q 294 862 186 800 q 528 924 401 924 q 763 861 654 924 q 934 691 871 799 q 997 454 997 583 q 936 221 997 329 q 765 50 874 114 q 528 -14 656 -14 q 293 49 401 -14 q 122 220 184 111 q 60 454 60 328 m 107 454 q 164 243 107 341 q 318 89 220 145 q 528 33 415 33 q 739 89 641 33 q 893 243 836 145 q 950 454 950 340 q 892 667 950 568 q 738 821 835 765 q 528 876 641 876 q 317 820 414 876 q 163 665 219 763 q 107 454 107 567 m 539 175 q 332 247 407 175 q 257 450 257 319 q 329 664 257 592 q 541 736 400 736 q 722 715 618 736 l 725 589 l 692 589 l 679 660 q 543 694 623 694 q 400 637 444 694 q 357 452 357 579 q 539 215 357 215 q 685 256 635 215 l 700 336 l 733 336 l 730 201 q 539 175 646 175 z "},"ª":{"ha":383,"x_min":24,"x_max":380,"o":"m 191 924 q 299 893 265 924 q 334 807 334 863 l 334 568 l 380 558 l 380 533 l 262 533 l 254 575 q 197 539 233 553 q 125 525 161 525 q 50 554 75 525 q 24 639 24 583 q 63 724 24 694 q 195 755 102 753 l 252 757 l 252 811 q 186 886 252 886 q 111 867 144 886 l 97 827 l 68 827 l 68 909 q 191 924 123 924 m 252 721 q 154 715 170 719 q 127 704 138 712 q 111 681 117 696 q 106 642 106 667 q 120 591 106 605 q 164 576 134 576 q 252 603 203 576 l 252 721 z "},"«":{"ha":694,"x_min":79,"x_max":639,"o":"m 79 336 l 306 578 l 361 578 l 207 314 l 361 50 l 306 50 l 79 292 l 79 336 m 357 336 l 584 578 l 639 578 l 484 314 l 639 50 l 584 50 l 357 292 l 357 336 z "},"¬":{"ha":783,"x_min":69,"x_max":715,"o":"m 715 496 l 715 138 l 646 138 l 646 427 l 69 427 l 69 496 l 715 496 z "},"­":{"ha":463,"x_min":52,"x_max":412,"o":"m 52 275 l 52 379 l 412 379 l 412 275 l 52 275 z "},"®":{"ha":1055,"x_min":60,"x_max":997,"o":"m 60 454 q 123 691 60 583 q 294 862 186 800 q 528 924 401 924 q 763 861 654 924 q 934 691 871 799 q 997 454 997 583 q 936 221 997 329 q 765 50 874 114 q 528 -14 656 -14 q 293 49 401 -14 q 122 220 184 111 q 60 454 60 328 m 107 454 q 164 243 107 341 q 318 89 220 145 q 528 33 415 33 q 739 89 641 33 q 893 243 836 145 q 950 454 950 340 q 892 667 950 568 q 738 821 835 765 q 528 876 641 876 q 317 820 414 876 q 163 665 219 763 q 107 454 107 567 m 453 424 l 453 228 l 530 216 l 530 187 l 296 187 l 296 216 l 361 228 l 361 694 l 290 705 l 290 733 l 514 733 q 674 694 620 733 q 728 583 728 655 q 697 493 728 531 q 607 436 667 455 l 751 228 l 808 216 l 808 187 l 669 187 l 514 424 l 453 424 m 632 582 q 603 667 632 642 q 496 692 574 692 l 453 692 l 453 467 l 498 467 q 601 492 570 467 q 632 582 632 517 z "},"¯":{"ha":694,"x_min":-12,"x_max":707,"o":"m 707 985 l -12 985 l -12 1048 l 707 1048 l 707 985 z "},"°":{"ha":555,"x_min":66,"x_max":488,"o":"m 66 713 q 94 818 66 769 q 171 895 122 867 q 277 924 220 924 q 382 896 333 924 q 459 819 431 867 q 488 713 488 770 q 459 607 488 656 q 381 530 430 557 q 277 503 332 503 q 127 564 189 503 q 66 713 66 625 m 136 713 q 177 611 136 652 q 277 570 219 570 q 377 612 336 570 q 418 713 418 653 q 377 814 418 773 q 277 856 336 856 q 177 815 219 856 q 136 713 136 774 z "},"±":{"ha":762,"x_min":58,"x_max":704,"o":"m 415 427 l 415 138 l 345 138 l 345 427 l 58 427 l 58 496 l 345 496 l 345 785 l 415 785 l 415 496 l 704 496 l 704 427 l 415 427 m 704 69 l 704 0 l 58 0 l 58 69 l 704 69 z "},"²":{"ha":416,"x_min":46,"x_max":385,"o":"m 385 363 l 46 363 l 46 428 l 121 496 q 219 596 189 557 q 263 676 250 634 q 277 772 277 718 q 187 869 277 869 q 110 847 146 869 l 96 781 l 58 781 l 58 897 q 187 916 133 916 q 326 878 278 916 q 374 772 374 840 q 343 655 374 707 q 230 532 312 604 l 122 436 l 385 436 l 385 363 z "},"³":{"ha":416,"x_min":29,"x_max":390,"o":"m 390 511 q 332 397 390 439 q 179 354 275 354 q 33 372 108 354 l 29 498 l 66 498 l 85 422 q 124 407 100 414 q 174 400 149 400 q 266 425 239 400 q 293 515 293 450 q 269 594 293 568 q 183 623 244 619 l 125 627 l 125 671 l 183 673 q 249 699 229 675 q 268 775 268 722 q 248 848 268 827 q 174 869 228 869 q 97 850 130 869 l 83 781 l 46 781 l 46 897 q 174 916 121 916 q 314 881 263 916 q 366 781 366 846 q 332 694 366 730 q 237 648 299 658 q 390 511 390 631 z "},"´":{"ha":463,"x_min":106,"x_max":383,"o":"m 106 759 l 106 781 l 239 966 l 383 966 l 383 941 l 143 759 l 106 759 z "},"µ":{"ha":800,"x_min":45,"x_max":755,"o":"m 553 82 q 450 6 492 26 q 370 -14 409 -14 q 248 39 290 -14 q 225 -296 248 -156 l 104 -296 l 104 -265 q 129 -127 119 -220 q 140 47 140 -34 l 140 590 l 45 607 l 45 637 l 252 637 l 252 195 q 290 101 252 136 q 393 65 328 65 q 470 81 427 65 q 550 124 513 98 l 550 590 l 454 607 l 454 637 l 662 637 l 662 47 l 755 31 l 755 0 l 566 0 l 553 82 z "},"¶":{"ha":629,"x_min":5,"x_max":614,"o":"m 550 859 l 550 -175 l 486 -175 l 486 859 l 371 859 l 371 -175 l 307 -175 l 309 383 q 86 455 167 383 q 5 653 5 526 q 81 843 5 777 q 300 909 157 909 l 614 909 l 614 873 l 550 859 z "},"·":{"ha":463,"x_min":149,"x_max":313,"o":"m 313 460 q 290 401 313 425 q 231 378 266 378 q 173 401 197 378 q 149 460 149 425 q 173 517 149 493 q 231 542 196 542 q 290 517 267 542 q 313 460 313 493 z "},"¸":{"ha":463,"x_min":97,"x_max":358,"o":"m 358 -159 q 311 -258 358 -221 q 191 -296 264 -296 q 97 -281 139 -296 l 97 -231 q 138 -238 112 -235 q 178 -241 163 -241 q 237 -221 219 -241 q 256 -171 256 -201 q 229 -117 256 -138 q 153 -92 201 -96 l 180 12 l 239 12 l 227 -43 q 323 -79 288 -50 q 358 -159 358 -109 z "},"¹":{"ha":416,"x_min":45,"x_max":367,"o":"m 254 406 l 367 396 l 367 363 l 45 363 l 45 396 l 157 406 l 157 829 l 47 790 l 47 822 l 205 913 l 254 913 l 254 406 z "},"º":{"ha":431,"x_min":25,"x_max":406,"o":"m 406 725 q 355 574 406 627 q 212 522 305 522 q 75 575 125 522 q 25 725 25 627 q 76 873 25 823 q 216 924 126 924 q 356 871 307 924 q 406 725 406 818 m 318 725 q 293 849 318 812 q 212 885 268 885 q 136 850 160 885 q 113 725 113 816 q 137 598 113 633 q 212 562 161 562 q 293 599 268 562 q 318 725 318 636 z "},"»":{"ha":694,"x_min":56,"x_max":615,"o":"m 615 292 l 389 50 l 334 50 l 488 314 l 334 578 l 389 578 l 615 336 l 615 292 m 338 292 l 111 50 l 56 50 l 210 314 l 56 578 l 111 578 l 338 336 l 338 292 z "},"¼":{"ha":1042,"x_min":45,"x_max":945,"o":"m 228 0 l 159 0 l 812 909 l 880 909 l 228 0 m 254 406 l 367 396 l 367 363 l 45 363 l 45 396 l 157 406 l 157 829 l 47 790 l 47 822 l 205 913 l 254 913 l 254 406 m 877 109 l 877 1 l 784 1 l 784 109 l 539 109 l 539 174 l 804 547 l 877 547 l 877 178 l 945 178 l 945 109 l 877 109 m 784 442 l 783 442 l 595 178 l 784 178 l 784 442 z "},"½":{"ha":1042,"x_min":45,"x_max":989,"o":"m 228 0 l 159 0 l 812 909 l 880 909 l 228 0 m 254 406 l 367 396 l 367 363 l 45 363 l 45 396 l 157 406 l 157 829 l 47 790 l 47 822 l 205 913 l 254 913 l 254 406 m 989 1 l 650 1 l 650 66 l 725 134 q 824 234 793 195 q 868 314 854 272 q 881 410 881 355 q 791 507 881 507 q 714 485 750 507 l 700 418 l 663 418 l 663 535 q 791 553 737 553 q 930 516 882 553 q 978 410 978 478 q 947 293 978 345 q 834 170 916 241 l 726 74 l 989 74 l 989 1 z "},"¾":{"ha":1042,"x_min":50,"x_max":926,"o":"m 228 0 l 159 0 l 812 909 l 880 909 l 228 0 m 411 511 q 353 397 411 439 q 200 354 296 354 q 54 372 129 354 l 50 498 l 87 498 l 106 422 q 145 407 121 414 q 195 400 170 400 q 287 425 260 400 q 314 515 314 450 q 290 594 314 568 q 204 623 265 619 l 146 627 l 146 671 l 204 673 q 270 699 250 675 q 289 775 289 722 q 269 848 289 827 q 195 869 249 869 q 118 850 151 869 l 104 781 l 67 781 l 67 897 q 195 916 142 916 q 335 881 284 916 q 387 781 387 846 q 353 694 387 730 q 258 648 320 658 q 411 511 411 631 m 857 109 l 857 1 l 764 1 l 764 109 l 519 109 l 519 174 l 785 547 l 857 547 l 857 178 l 926 178 l 926 109 l 857 109 m 764 442 l 763 442 l 575 178 l 764 178 l 764 442 z "},"¿":{"ha":616,"x_min":57,"x_max":545,"o":"m 318 395 l 372 395 l 390 168 l 293 149 q 208 90 235 137 q 182 -49 182 42 q 218 -190 182 -149 q 345 -231 255 -231 q 476 -197 420 -231 l 500 -86 l 545 -86 l 545 -258 q 345 -288 444 -288 q 57 -57 57 -288 q 112 120 57 52 q 271 210 166 188 l 310 218 l 318 395 m 257 570 q 280 627 257 603 q 339 652 304 652 q 397 628 373 652 q 421 570 421 604 q 397 511 421 534 q 339 488 372 488 q 281 511 304 488 q 257 570 257 535 z "},"À":{"ha":1003,"x_min":14,"x_max":993,"o":"m 313 36 l 313 0 l 14 0 l 14 36 l 117 54 l 427 917 l 555 917 l 878 54 l 993 36 l 993 0 l 608 0 l 608 36 l 730 54 l 640 317 l 282 317 l 191 54 l 313 36 m 458 819 l 302 378 l 619 378 l 458 819 m 541 985 l 300 1167 l 300 1192 l 445 1192 l 578 1008 l 578 985 l 541 985 z "},"Á":{"ha":1003,"x_min":14,"x_max":993,"o":"m 313 36 l 313 0 l 14 0 l 14 36 l 117 54 l 427 917 l 555 917 l 878 54 l 993 36 l 993 0 l 608 0 l 608 36 l 730 54 l 640 317 l 282 317 l 191 54 l 313 36 m 458 819 l 302 378 l 619 378 l 458 819 m 414 985 l 414 1008 l 547 1192 l 692 1192 l 692 1167 l 452 985 l 414 985 z "},"Â":{"ha":1003,"x_min":14,"x_max":993,"o":"m 313 36 l 313 0 l 14 0 l 14 36 l 117 54 l 427 917 l 555 917 l 878 54 l 993 36 l 993 0 l 608 0 l 608 36 l 730 54 l 640 317 l 282 317 l 191 54 l 313 36 m 458 819 l 302 378 l 619 378 l 458 819 m 268 985 l 268 1008 l 416 1193 l 560 1193 l 707 1008 l 707 985 l 669 985 l 488 1109 l 306 985 l 268 985 z "},"Ã":{"ha":1003,"x_min":14,"x_max":993,"o":"m 313 36 l 313 0 l 14 0 l 14 36 l 117 54 l 427 917 l 555 917 l 878 54 l 993 36 l 993 0 l 608 0 l 608 36 l 730 54 l 640 317 l 282 317 l 191 54 l 313 36 m 458 819 l 302 378 l 619 378 l 458 819 m 574 985 q 514 999 541 985 q 462 1032 486 1014 q 415 1064 437 1050 q 370 1079 392 1079 q 335 1071 348 1079 q 314 1047 321 1063 q 302 998 307 1032 l 267 998 q 399 1162 277 1162 q 459 1148 431 1162 q 511 1115 486 1133 q 558 1083 536 1097 q 603 1068 581 1068 q 648 1085 632 1068 q 671 1148 665 1102 l 706 1148 q 574 985 696 985 z "},"Ä":{"ha":1003,"x_min":14,"x_max":993,"o":"m 313 36 l 313 0 l 14 0 l 14 36 l 117 54 l 427 917 l 555 917 l 878 54 l 993 36 l 993 0 l 608 0 l 608 36 l 730 54 l 640 317 l 282 317 l 191 54 l 313 36 m 458 819 l 302 378 l 619 378 l 458 819 m 680 1057 q 661 1009 680 1029 q 614 989 642 989 q 566 1010 585 989 q 546 1057 546 1031 q 566 1105 546 1086 q 614 1125 585 1125 q 661 1105 642 1125 q 680 1057 680 1086 m 439 1057 q 420 1009 439 1029 q 372 989 401 989 q 324 1009 345 989 q 304 1057 304 1029 q 325 1105 304 1086 q 372 1125 346 1125 q 420 1105 401 1125 q 439 1057 439 1086 z "},"Å":{"ha":1003,"x_min":14,"x_max":993,"o":"m 313 36 l 313 0 l 14 0 l 14 36 l 117 54 l 427 917 l 555 917 l 878 54 l 993 36 l 993 0 l 608 0 l 608 36 l 730 54 l 640 317 l 282 317 l 191 54 l 313 36 m 458 819 l 302 378 l 619 378 l 458 819 m 627 1001 q 587 904 627 944 q 490 863 547 863 q 392 904 433 863 q 352 1001 352 944 q 392 1098 352 1058 q 490 1139 433 1139 q 587 1098 547 1139 q 627 1001 627 1058 m 573 1001 q 549 1060 573 1036 q 490 1084 524 1084 q 431 1060 455 1084 q 406 1001 406 1036 q 431 942 406 966 q 490 918 456 918 q 548 941 522 918 q 573 1001 573 965 z "},"Æ":{"ha":1235,"x_min":14,"x_max":1165,"o":"m 496 36 l 599 54 l 599 317 l 319 317 l 179 54 l 286 36 l 286 0 l 14 0 l 14 36 l 106 54 l 545 861 l 433 873 l 433 909 l 1108 909 l 1108 692 l 1064 692 l 1042 839 q 822 848 966 848 l 729 848 l 729 493 l 920 493 l 940 602 l 983 602 l 983 322 l 940 322 l 920 432 l 729 432 l 729 61 l 852 61 q 1082 72 1027 61 l 1121 240 l 1165 240 l 1153 0 l 496 0 l 496 36 m 599 378 l 599 835 l 353 378 l 599 378 z "},"Ç":{"ha":926,"x_min":57,"x_max":850,"o":"m 525 -14 q 180 107 304 -14 q 57 444 57 227 q 176 799 57 679 q 528 920 294 920 q 832 885 669 920 l 836 686 l 791 686 l 771 804 q 661 849 724 833 q 533 865 598 865 q 279 763 359 865 q 199 446 199 661 q 282 143 199 248 q 526 39 366 39 q 672 57 604 39 q 781 107 741 76 l 806 243 l 850 243 l 846 29 q 525 -14 696 -14 m 649 -159 q 602 -258 649 -221 q 481 -296 555 -296 q 388 -281 430 -296 l 388 -231 q 429 -238 403 -235 q 469 -241 454 -241 q 528 -221 510 -241 q 547 -171 547 -201 q 519 -117 547 -138 q 444 -92 492 -96 l 471 12 l 530 12 l 517 -43 q 614 -79 579 -50 q 649 -159 649 -109 z "},"È":{"ha":848,"x_min":40,"x_max":779,"o":"m 40 36 l 157 54 l 157 856 l 40 873 l 40 909 l 722 909 l 722 692 l 677 692 l 656 839 q 436 848 580 848 l 288 848 l 288 493 l 533 493 l 554 602 l 597 602 l 597 322 l 554 322 l 533 432 l 288 432 l 288 61 l 467 61 q 696 72 642 61 l 734 240 l 779 240 l 766 0 l 40 0 l 40 36 m 514 985 l 274 1167 l 274 1192 l 418 1192 l 551 1008 l 551 985 l 514 985 z "},"É":{"ha":848,"x_min":40,"x_max":779,"o":"m 40 36 l 157 54 l 157 856 l 40 873 l 40 909 l 722 909 l 722 692 l 677 692 l 656 839 q 436 848 580 848 l 288 848 l 288 493 l 533 493 l 554 602 l 597 602 l 597 322 l 554 322 l 533 432 l 288 432 l 288 61 l 467 61 q 696 72 642 61 l 734 240 l 779 240 l 766 0 l 40 0 l 40 36 m 319 985 l 319 1008 l 452 1192 l 596 1192 l 596 1167 l 356 985 l 319 985 z "},"Ê":{"ha":848,"x_min":40,"x_max":779,"o":"m 40 36 l 157 54 l 157 856 l 40 873 l 40 909 l 722 909 l 722 692 l 677 692 l 656 839 q 436 848 580 848 l 288 848 l 288 493 l 533 493 l 554 602 l 597 602 l 597 322 l 554 322 l 533 432 l 288 432 l 288 61 l 467 61 q 696 72 642 61 l 734 240 l 779 240 l 766 0 l 40 0 l 40 36 m 205 985 l 205 1008 l 353 1193 l 498 1193 l 645 1008 l 645 985 l 607 985 l 425 1109 l 243 985 l 205 985 z "},"Ë":{"ha":848,"x_min":40,"x_max":779,"o":"m 40 36 l 157 54 l 157 856 l 40 873 l 40 909 l 722 909 l 722 692 l 677 692 l 656 839 q 436 848 580 848 l 288 848 l 288 493 l 533 493 l 554 602 l 597 602 l 597 322 l 554 322 l 533 432 l 288 432 l 288 61 l 467 61 q 696 72 642 61 l 734 240 l 779 240 l 766 0 l 40 0 l 40 36 m 619 1057 q 600 1009 619 1029 q 553 989 581 989 q 505 1010 524 989 q 485 1057 485 1031 q 505 1105 485 1086 q 553 1125 524 1125 q 600 1105 581 1125 q 619 1057 619 1086 m 378 1057 q 359 1009 378 1029 q 311 989 340 989 q 263 1009 283 989 q 243 1057 243 1029 q 264 1105 243 1086 q 311 1125 285 1125 q 359 1105 340 1125 q 378 1057 378 1086 z "},"Ì":{"ha":463,"x_min":37,"x_max":414,"o":"m 297 54 l 414 36 l 414 0 l 50 0 l 50 36 l 167 54 l 167 856 l 50 873 l 50 909 l 414 909 l 414 873 l 297 856 l 297 54 m 277 985 l 37 1167 l 37 1192 l 181 1192 l 314 1008 l 314 985 l 277 985 z "},"Í":{"ha":463,"x_min":50,"x_max":419,"o":"m 297 54 l 414 36 l 414 0 l 50 0 l 50 36 l 167 54 l 167 856 l 50 873 l 50 909 l 414 909 l 414 873 l 297 856 l 297 54 m 142 985 l 142 1008 l 275 1192 l 419 1192 l 419 1167 l 179 985 l 142 985 z "},"Î":{"ha":463,"x_min":12,"x_max":452,"o":"m 297 54 l 414 36 l 414 0 l 50 0 l 50 36 l 167 54 l 167 856 l 50 873 l 50 909 l 414 909 l 414 873 l 297 856 l 297 54 m 12 985 l 12 1008 l 160 1193 l 304 1193 l 452 1008 l 452 985 l 414 985 l 232 1109 l 50 985 l 12 985 z "},"Ï":{"ha":463,"x_min":43,"x_max":419,"o":"m 297 54 l 414 36 l 414 0 l 50 0 l 50 36 l 167 54 l 167 856 l 50 873 l 50 909 l 414 909 l 414 873 l 297 856 l 297 54 m 419 1057 q 400 1009 419 1029 q 353 989 381 989 q 304 1010 324 989 q 285 1057 285 1031 q 304 1105 285 1086 q 353 1125 324 1125 q 400 1105 381 1125 q 419 1057 419 1086 m 178 1057 q 159 1009 178 1029 q 111 989 140 989 q 63 1009 83 989 q 43 1057 43 1029 q 64 1105 43 1086 q 111 1125 85 1125 q 159 1105 140 1125 q 178 1057 178 1086 z "},"Ð":{"ha":1003,"x_min":36,"x_max":947,"o":"m 428 909 q 816 794 685 909 q 947 460 947 680 q 836 112 947 226 q 497 -3 724 -3 l 157 0 l 40 0 l 40 36 l 157 54 l 157 427 l 36 427 l 36 482 l 157 482 l 157 856 l 40 873 l 40 909 l 428 909 m 543 482 l 543 427 l 288 427 l 288 64 q 481 58 369 58 q 727 154 648 58 q 806 454 806 249 q 705 749 806 650 q 397 848 604 848 l 288 848 l 288 482 l 543 482 z "},"Ñ":{"ha":1003,"x_min":40,"x_max":971,"o":"m 783 856 l 661 873 l 661 909 l 971 909 l 971 873 l 854 856 l 854 0 l 789 0 l 228 818 l 228 54 l 350 36 l 350 0 l 40 0 l 40 36 l 157 54 l 157 856 l 40 873 l 40 909 l 315 909 l 783 236 l 783 856 m 596 985 q 536 999 564 985 q 484 1032 509 1014 q 437 1064 460 1050 q 392 1079 414 1079 q 357 1071 370 1079 q 336 1047 344 1063 q 324 998 329 1032 l 289 998 q 421 1162 299 1162 q 481 1148 454 1162 q 533 1115 509 1133 q 581 1083 558 1097 q 625 1068 604 1068 q 671 1085 654 1068 q 693 1148 687 1102 l 728 1148 q 596 985 718 985 z "},"Ò":{"ha":1003,"x_min":57,"x_max":946,"o":"m 199 456 q 272 138 199 237 q 501 40 345 40 q 730 138 656 40 q 804 456 804 237 q 731 769 804 673 q 501 865 657 865 q 272 769 345 865 q 199 456 199 673 m 57 456 q 501 920 57 920 q 833 802 721 920 q 946 456 946 684 q 832 105 946 224 q 501 -14 718 -14 q 171 105 285 -14 q 57 456 57 223 m 570 985 l 330 1167 l 330 1192 l 474 1192 l 607 1008 l 607 985 l 570 985 z "},"Ó":{"ha":1003,"x_min":57,"x_max":946,"o":"m 199 456 q 272 138 199 237 q 501 40 345 40 q 730 138 656 40 q 804 456 804 237 q 731 769 804 673 q 501 865 657 865 q 272 769 345 865 q 199 456 199 673 m 57 456 q 501 920 57 920 q 833 802 721 920 q 946 456 946 684 q 832 105 946 224 q 501 -14 718 -14 q 171 105 285 -14 q 57 456 57 223 m 425 985 l 425 1008 l 558 1192 l 703 1192 l 703 1167 l 463 985 l 425 985 z "},"Ô":{"ha":1003,"x_min":57,"x_max":946,"o":"m 199 456 q 272 138 199 237 q 501 40 345 40 q 730 138 656 40 q 804 456 804 237 q 731 769 804 673 q 501 865 657 865 q 272 769 345 865 q 199 456 199 673 m 57 456 q 501 920 57 920 q 833 802 721 920 q 946 456 946 684 q 832 105 946 224 q 501 -14 718 -14 q 171 105 285 -14 q 57 456 57 223 m 283 985 l 283 1008 l 431 1193 l 575 1193 l 722 1008 l 722 985 l 684 985 l 503 1109 l 321 985 l 283 985 z "},"Õ":{"ha":1003,"x_min":57,"x_max":946,"o":"m 199 456 q 272 138 199 237 q 501 40 345 40 q 730 138 656 40 q 804 456 804 237 q 731 769 804 673 q 501 865 657 865 q 272 769 345 865 q 199 456 199 673 m 57 456 q 501 920 57 920 q 833 802 721 920 q 946 456 946 684 q 832 105 946 224 q 501 -14 718 -14 q 171 105 285 -14 q 57 456 57 223 m 588 985 q 528 999 555 985 q 476 1032 500 1014 q 429 1064 452 1050 q 384 1079 406 1079 q 349 1071 362 1079 q 328 1047 336 1063 q 316 998 321 1032 l 281 998 q 413 1162 291 1162 q 473 1148 446 1162 q 525 1115 500 1133 q 573 1083 550 1097 q 617 1068 595 1068 q 663 1085 646 1068 q 685 1148 679 1102 l 720 1148 q 588 985 710 985 z "},"Ö":{"ha":1003,"x_min":57,"x_max":946,"o":"m 199 456 q 272 138 199 237 q 501 40 345 40 q 730 138 656 40 q 804 456 804 237 q 731 769 804 673 q 501 865 657 865 q 272 769 345 865 q 199 456 199 673 m 57 456 q 501 920 57 920 q 833 802 721 920 q 946 456 946 684 q 832 105 946 224 q 501 -14 718 -14 q 171 105 285 -14 q 57 456 57 223 m 687 1057 q 668 1009 687 1029 q 621 989 649 989 q 572 1010 592 989 q 553 1057 553 1031 q 572 1105 553 1086 q 621 1125 592 1125 q 668 1105 649 1125 q 687 1057 687 1086 m 446 1057 q 427 1009 446 1029 q 379 989 408 989 q 331 1009 351 989 q 311 1057 311 1029 q 332 1105 311 1086 q 379 1125 353 1125 q 427 1105 408 1125 q 446 1057 446 1086 z "},"×":{"ha":783,"x_min":110,"x_max":675,"o":"m 392 412 l 158 179 l 110 228 l 343 463 l 110 694 l 160 745 l 392 511 l 627 745 l 675 696 l 441 463 l 675 228 l 627 179 l 392 412 z "},"Ø":{"ha":1003,"x_min":57,"x_max":946,"o":"m 57 456 q 501 920 57 920 q 785 843 677 920 l 868 943 l 946 943 l 831 804 q 946 456 946 684 q 832 105 946 224 q 501 -14 718 -14 q 221 61 326 -14 l 139 -37 l 58 -37 l 174 102 q 57 456 57 221 m 199 456 q 243 186 199 284 l 728 772 q 501 865 654 865 q 272 769 345 865 q 199 456 199 673 m 804 456 q 761 718 804 621 l 278 131 q 501 40 350 40 q 730 138 656 40 q 804 456 804 237 z "},"Ù":{"ha":1003,"x_min":29,"x_max":974,"o":"m 786 856 l 664 873 l 664 909 l 974 909 l 974 873 l 857 856 l 857 313 q 767 68 857 149 q 507 -14 677 -14 q 236 68 326 -14 q 146 300 146 150 l 146 856 l 29 873 l 29 909 l 393 909 l 393 873 l 276 856 l 276 310 q 517 62 276 62 q 716 124 647 62 q 786 307 786 186 l 786 856 m 572 985 l 332 1167 l 332 1192 l 477 1192 l 610 1008 l 610 985 l 572 985 z "},"Ú":{"ha":1003,"x_min":29,"x_max":974,"o":"m 786 856 l 664 873 l 664 909 l 974 909 l 974 873 l 857 856 l 857 313 q 767 68 857 149 q 507 -14 677 -14 q 236 68 326 -14 q 146 300 146 150 l 146 856 l 29 873 l 29 909 l 393 909 l 393 873 l 276 856 l 276 310 q 517 62 276 62 q 716 124 647 62 q 786 307 786 186 l 786 856 m 442 985 l 442 1008 l 575 1192 l 720 1192 l 720 1167 l 479 985 l 442 985 z "},"Û":{"ha":1003,"x_min":29,"x_max":974,"o":"m 786 856 l 664 873 l 664 909 l 974 909 l 974 873 l 857 856 l 857 313 q 767 68 857 149 q 507 -14 677 -14 q 236 68 326 -14 q 146 300 146 150 l 146 856 l 29 873 l 29 909 l 393 909 l 393 873 l 276 856 l 276 310 q 517 62 276 62 q 716 124 647 62 q 786 307 786 186 l 786 856 m 301 985 l 301 1008 l 449 1193 l 593 1193 l 741 1008 l 741 985 l 703 985 l 521 1109 l 339 985 l 301 985 z "},"Ü":{"ha":1003,"x_min":29,"x_max":974,"o":"m 786 856 l 664 873 l 664 909 l 974 909 l 974 873 l 857 856 l 857 313 q 767 68 857 149 q 507 -14 677 -14 q 236 68 326 -14 q 146 300 146 150 l 146 856 l 29 873 l 29 909 l 393 909 l 393 873 l 276 856 l 276 310 q 517 62 276 62 q 716 124 647 62 q 786 307 786 186 l 786 856 m 690 1057 q 671 1009 690 1029 q 623 989 652 989 q 575 1010 595 989 q 555 1057 555 1031 q 575 1105 555 1086 q 623 1125 595 1125 q 671 1105 652 1125 q 690 1057 690 1086 m 448 1057 q 429 1009 448 1029 q 382 989 410 989 q 334 1009 354 989 q 313 1057 313 1029 q 334 1105 313 1086 q 382 1125 355 1125 q 429 1105 410 1125 q 448 1057 448 1086 z "},"Ý":{"ha":1003,"x_min":16,"x_max":968,"o":"m 568 358 l 568 54 l 713 36 l 713 0 l 293 0 l 293 36 l 437 54 l 437 354 l 118 856 l 16 873 l 16 909 l 400 909 l 400 873 l 278 856 l 539 436 l 787 856 l 672 873 l 672 909 l 968 909 l 968 873 l 868 856 l 568 358 m 435 985 l 435 1008 l 568 1192 l 712 1192 l 712 1167 l 472 985 l 435 985 z "},"Þ":{"ha":772,"x_min":49,"x_max":717,"o":"m 582 465 q 528 631 582 581 q 354 682 474 682 l 288 682 l 288 235 l 358 235 q 526 290 471 235 q 582 465 582 345 m 383 734 q 717 467 717 734 q 632 254 717 327 q 390 182 548 182 l 288 182 l 288 54 l 404 36 l 404 0 l 49 0 l 49 36 l 157 54 l 157 856 l 49 873 l 49 909 l 404 909 l 404 873 l 288 856 l 288 734 l 383 734 z "},"ß":{"ha":694,"x_min":14,"x_max":646,"o":"m 595 676 q 532 668 564 673 q 474 652 500 664 q 432 617 448 640 q 415 555 415 595 q 442 468 415 506 q 530 387 469 431 q 617 295 589 346 q 646 174 646 244 q 594 34 646 81 q 441 -14 542 -14 q 353 -5 399 -14 q 283 18 307 4 l 283 149 l 314 149 l 336 85 q 379 53 352 66 q 440 40 406 40 q 542 153 542 40 q 514 248 542 208 q 428 329 487 289 q 343 416 372 368 q 314 532 314 465 q 357 650 314 605 q 484 710 399 696 q 454 873 484 823 q 353 924 425 924 q 221 753 221 924 l 221 0 l 14 0 l 14 31 l 109 47 l 109 720 q 170 912 109 847 q 353 978 231 978 q 537 906 479 978 q 595 676 595 834 z "},"à":{"ha":616,"x_min":49,"x_max":597,"o":"m 315 652 q 469 609 420 652 q 518 478 518 566 l 518 47 l 597 31 l 597 0 l 422 0 l 410 64 q 212 -14 332 -14 q 49 176 49 -14 q 74 282 49 240 q 153 346 98 323 q 310 370 207 368 l 406 372 l 406 472 q 381 569 406 538 q 307 600 357 600 q 183 568 239 600 l 160 489 l 122 489 l 122 628 q 315 652 232 652 m 406 325 l 317 322 q 194 287 226 319 q 161 180 161 255 q 258 61 161 61 q 338 72 304 61 q 406 98 372 82 l 406 325 m 369 759 l 129 941 l 129 966 l 273 966 l 406 781 l 406 759 l 369 759 z "},"á":{"ha":616,"x_min":49,"x_max":597,"o":"m 315 652 q 469 609 420 652 q 518 478 518 566 l 518 47 l 597 31 l 597 0 l 422 0 l 410 64 q 212 -14 332 -14 q 49 176 49 -14 q 74 282 49 240 q 153 346 98 323 q 310 370 207 368 l 406 372 l 406 472 q 381 569 406 538 q 307 600 357 600 q 183 568 239 600 l 160 489 l 122 489 l 122 628 q 315 652 232 652 m 406 325 l 317 322 q 194 287 226 319 q 161 180 161 255 q 258 61 161 61 q 338 72 304 61 q 406 98 372 82 l 406 325 m 232 759 l 232 781 l 365 966 l 509 966 l 509 941 l 269 759 l 232 759 z "},"â":{"ha":616,"x_min":49,"x_max":597,"o":"m 315 652 q 469 609 420 652 q 518 478 518 566 l 518 47 l 597 31 l 597 0 l 422 0 l 410 64 q 212 -14 332 -14 q 49 176 49 -14 q 74 282 49 240 q 153 346 98 323 q 310 370 207 368 l 406 372 l 406 472 q 381 569 406 538 q 307 600 357 600 q 183 568 239 600 l 160 489 l 122 489 l 122 628 q 315 652 232 652 m 406 325 l 317 322 q 194 287 226 319 q 161 180 161 255 q 258 61 161 61 q 338 72 304 61 q 406 98 372 82 l 406 325 m 97 759 l 97 781 l 245 966 l 389 966 l 536 781 l 536 759 l 498 759 l 317 883 l 135 759 l 97 759 z "},"ã":{"ha":616,"x_min":49,"x_max":597,"o":"m 315 652 q 469 609 420 652 q 518 478 518 566 l 518 47 l 597 31 l 597 0 l 422 0 l 410 64 q 212 -14 332 -14 q 49 176 49 -14 q 74 282 49 240 q 153 346 98 323 q 310 370 207 368 l 406 372 l 406 472 q 381 569 406 538 q 307 600 357 600 q 183 568 239 600 l 160 489 l 122 489 l 122 628 q 315 652 232 652 m 406 325 l 317 322 q 194 287 226 319 q 161 180 161 255 q 258 61 161 61 q 338 72 304 61 q 406 98 372 82 l 406 325 m 397 758 q 337 773 365 758 q 286 805 310 787 q 238 838 261 823 q 193 852 216 852 q 158 844 172 852 q 138 821 145 836 q 125 772 130 806 l 90 772 q 222 936 100 936 q 282 921 255 936 q 335 889 310 907 q 382 856 359 871 q 427 842 405 842 q 472 859 456 842 q 494 922 488 876 l 530 922 q 397 758 519 758 z "},"ä":{"ha":616,"x_min":49,"x_max":597,"o":"m 315 652 q 469 609 420 652 q 518 478 518 566 l 518 47 l 597 31 l 597 0 l 422 0 l 410 64 q 212 -14 332 -14 q 49 176 49 -14 q 74 282 49 240 q 153 346 98 323 q 310 370 207 368 l 406 372 l 406 472 q 381 569 406 538 q 307 600 357 600 q 183 568 239 600 l 160 489 l 122 489 l 122 628 q 315 652 232 652 m 406 325 l 317 322 q 194 287 226 319 q 161 180 161 255 q 258 61 161 61 q 338 72 304 61 q 406 98 372 82 l 406 325 m 497 810 q 478 761 497 781 q 431 741 459 741 q 382 762 402 741 q 363 810 363 783 q 382 858 363 838 q 431 878 402 878 q 478 858 459 878 q 497 810 497 838 m 256 810 q 237 761 256 781 q 189 741 218 741 q 141 762 161 741 q 121 810 121 782 q 142 858 121 838 q 189 878 163 878 q 237 858 218 878 q 256 810 256 838 z "},"å":{"ha":616,"x_min":49,"x_max":597,"o":"m 315 652 q 469 609 420 652 q 518 478 518 566 l 518 47 l 597 31 l 597 0 l 422 0 l 410 64 q 212 -14 332 -14 q 49 176 49 -14 q 74 282 49 240 q 153 346 98 323 q 310 370 207 368 l 406 372 l 406 472 q 381 569 406 538 q 307 600 357 600 q 183 568 239 600 l 160 489 l 122 489 l 122 628 q 315 652 232 652 m 406 325 l 317 322 q 194 287 226 319 q 161 180 161 255 q 258 61 161 61 q 338 72 304 61 q 406 98 372 82 l 406 325 m 457 868 q 417 771 457 811 q 319 730 376 730 q 222 771 262 730 q 182 868 182 811 q 222 965 182 925 q 319 1006 262 1006 q 417 965 376 1006 q 457 868 457 925 m 403 868 q 378 927 403 903 q 319 951 354 951 q 260 927 285 951 q 236 868 236 903 q 261 809 236 833 q 319 785 286 785 q 377 808 352 785 q 403 868 403 832 z "},"æ":{"ha":926,"x_min":49,"x_max":880,"o":"m 518 321 l 518 260 q 537 136 519 176 q 590 77 554 97 q 686 57 627 57 q 773 63 723 57 q 856 77 823 69 l 856 39 q 769 2 822 17 q 660 -14 716 -14 q 441 74 504 -14 q 212 -14 343 -14 q 49 176 49 -14 q 74 282 49 240 q 153 346 98 323 q 310 370 207 368 l 406 372 l 406 472 q 381 569 406 538 q 307 600 357 600 q 183 568 239 600 l 160 489 l 122 489 l 122 628 q 315 652 232 652 q 476 602 429 652 q 642 654 536 654 q 820 584 760 654 q 880 376 880 513 l 880 321 l 518 321 m 258 61 q 424 107 336 61 q 412 151 418 119 q 406 216 406 184 l 406 325 l 317 322 q 194 287 226 319 q 161 180 161 255 q 258 61 161 61 m 642 600 q 548 550 577 600 q 518 375 518 500 l 762 375 q 733 546 762 491 q 642 600 703 600 z "},"ç":{"ha":616,"x_min":53,"x_max":574,"o":"m 574 39 q 482 0 541 14 q 363 -14 424 -14 q 53 323 53 -14 q 132 569 53 483 q 358 654 211 654 q 558 633 450 654 l 558 456 l 521 456 l 492 568 q 357 600 435 600 q 175 323 175 600 q 230 118 175 180 q 401 57 286 57 q 574 79 500 57 l 574 39 m 479 -159 q 432 -258 479 -221 q 311 -296 385 -296 q 218 -281 260 -296 l 218 -231 q 258 -238 233 -235 q 299 -241 284 -241 q 358 -221 340 -241 q 376 -171 376 -201 q 349 -117 376 -138 q 273 -92 322 -96 l 301 12 l 359 12 l 347 -43 q 444 -79 409 -50 q 479 -159 479 -109 z "},"è":{"ha":616,"x_min":54,"x_max":568,"o":"m 176 321 l 176 309 q 197 163 176 215 q 261 84 218 111 q 374 57 304 57 q 460 63 410 57 q 543 77 511 69 l 543 39 q 455 2 511 18 q 340 -14 399 -14 q 123 66 192 -14 q 54 323 54 146 q 124 572 54 490 q 323 654 194 654 q 568 376 568 654 l 568 321 l 176 321 m 323 600 q 215 543 253 600 q 178 375 178 486 l 450 375 q 419 548 450 496 q 323 600 388 600 m 403 759 l 163 941 l 163 966 l 307 966 l 440 781 l 440 759 l 403 759 z "},"é":{"ha":616,"x_min":54,"x_max":568,"o":"m 176 321 l 176 309 q 197 163 176 215 q 261 84 218 111 q 374 57 304 57 q 460 63 410 57 q 543 77 511 69 l 543 39 q 455 2 511 18 q 340 -14 399 -14 q 123 66 192 -14 q 54 323 54 146 q 124 572 54 490 q 323 654 194 654 q 568 376 568 654 l 568 321 l 176 321 m 323 600 q 215 543 253 600 q 178 375 178 486 l 450 375 q 419 548 450 496 q 323 600 388 600 m 259 759 l 259 781 l 392 966 l 536 966 l 536 941 l 296 759 l 259 759 z "},"ê":{"ha":616,"x_min":54,"x_max":568,"o":"m 176 321 l 176 309 q 197 163 176 215 q 261 84 218 111 q 374 57 304 57 q 460 63 410 57 q 543 77 511 69 l 543 39 q 455 2 511 18 q 340 -14 399 -14 q 123 66 192 -14 q 54 323 54 146 q 124 572 54 490 q 323 654 194 654 q 568 376 568 654 l 568 321 l 176 321 m 323 600 q 215 543 253 600 q 178 375 178 486 l 450 375 q 419 548 450 496 q 323 600 388 600 m 102 759 l 102 781 l 250 966 l 395 966 l 542 781 l 542 759 l 504 759 l 322 883 l 140 759 l 102 759 z "},"ë":{"ha":616,"x_min":54,"x_max":568,"o":"m 176 321 l 176 309 q 197 163 176 215 q 261 84 218 111 q 374 57 304 57 q 460 63 410 57 q 543 77 511 69 l 543 39 q 455 2 511 18 q 340 -14 399 -14 q 123 66 192 -14 q 54 323 54 146 q 124 572 54 490 q 323 654 194 654 q 568 376 568 654 l 568 321 l 176 321 m 323 600 q 215 543 253 600 q 178 375 178 486 l 450 375 q 419 548 450 496 q 323 600 388 600 m 504 810 q 485 761 504 781 q 437 741 466 741 q 389 762 409 741 q 370 810 370 783 q 389 858 370 838 q 437 878 409 878 q 485 858 466 878 q 504 810 504 838 m 262 810 q 243 761 262 781 q 196 741 224 741 q 148 762 168 741 q 127 810 127 782 q 149 858 127 838 q 196 878 170 878 q 243 858 224 878 q 262 810 262 838 z "},"ì":{"ha":386,"x_min":15,"x_max":359,"o":"m 250 47 l 359 31 l 359 0 l 29 0 l 29 31 l 138 47 l 138 590 l 47 607 l 47 637 l 250 637 l 250 47 m 255 759 l 15 941 l 15 966 l 159 966 l 292 781 l 292 759 l 255 759 z "},"í":{"ha":386,"x_min":29,"x_max":371,"o":"m 250 47 l 359 31 l 359 0 l 29 0 l 29 31 l 138 47 l 138 590 l 47 607 l 47 637 l 250 637 l 250 47 m 94 759 l 94 781 l 227 966 l 371 966 l 371 941 l 131 759 l 94 759 z "},"î":{"ha":386,"x_min":-27,"x_max":412,"o":"m 250 47 l 359 31 l 359 0 l 29 0 l 29 31 l 138 47 l 138 590 l 47 607 l 47 637 l 250 637 l 250 47 m -27 759 l -27 781 l 121 966 l 265 966 l 412 781 l 412 759 l 374 759 l 193 883 l 11 759 l -27 759 z "},"ï":{"ha":386,"x_min":-4,"x_max":372,"o":"m 250 47 l 359 31 l 359 0 l 29 0 l 29 31 l 138 47 l 138 590 l 47 607 l 47 637 l 250 637 l 250 47 m 372 810 q 353 761 372 781 q 306 741 334 741 q 258 762 277 741 q 238 810 238 783 q 258 858 238 838 q 306 878 277 878 q 353 858 334 878 q 372 810 372 838 m 131 810 q 112 761 131 781 q 64 741 93 741 q 16 762 37 741 q -4 810 -4 782 q 17 858 -4 838 q 64 878 38 878 q 112 858 93 878 q 131 810 131 838 z "},"ð":{"ha":694,"x_min":53,"x_max":642,"o":"m 155 747 l 310 836 q 161 911 240 886 l 161 964 q 375 873 284 934 l 555 979 l 555 916 l 424 838 q 582 626 526 755 q 640 325 637 498 l 642 301 q 343 -14 642 -14 q 126 67 199 -14 q 53 301 53 148 q 126 532 53 452 q 349 612 199 612 q 482 589 422 612 q 355 799 450 709 l 155 682 l 155 747 m 519 301 q 477 497 519 437 q 343 558 434 558 q 215 500 255 558 q 175 301 175 443 q 215 99 175 158 q 343 40 256 40 q 476 102 433 40 q 519 301 519 163 z "},"ñ":{"ha":694,"x_min":32,"x_max":673,"o":"m 220 586 q 331 635 272 616 q 429 654 390 654 q 554 606 512 654 q 596 467 596 558 l 596 47 l 673 31 l 673 0 l 399 0 l 399 31 l 484 47 l 484 454 q 456 543 484 511 q 371 575 429 575 q 221 555 310 575 l 221 47 l 307 31 l 307 0 l 32 0 l 32 31 l 109 47 l 109 590 l 32 607 l 32 637 l 214 637 l 220 586 m 437 758 q 377 773 405 758 q 326 805 350 787 q 278 838 301 823 q 233 852 256 852 q 198 844 212 852 q 178 821 185 836 q 165 772 170 806 l 130 772 q 262 936 140 936 q 322 921 295 936 q 375 889 350 907 q 422 856 399 871 q 467 842 445 842 q 512 859 496 842 q 534 922 528 876 l 570 922 q 437 758 559 758 z "},"ò":{"ha":694,"x_min":53,"x_max":642,"o":"m 642 322 q 343 -14 642 -14 q 126 73 199 -14 q 53 322 53 159 q 126 569 53 484 q 349 654 199 654 q 568 571 494 654 q 642 322 642 487 m 519 322 q 477 534 519 469 q 343 600 434 600 q 215 537 254 600 q 175 322 175 474 q 215 104 175 168 q 343 40 256 40 q 476 106 433 40 q 519 322 519 173 m 409 759 l 169 941 l 169 966 l 313 966 l 446 781 l 446 759 l 409 759 z "},"ó":{"ha":694,"x_min":53,"x_max":642,"o":"m 642 322 q 343 -14 642 -14 q 126 73 199 -14 q 53 322 53 159 q 126 569 53 484 q 349 654 199 654 q 568 571 494 654 q 642 322 642 487 m 519 322 q 477 534 519 469 q 343 600 434 600 q 215 537 254 600 q 175 322 175 474 q 215 104 175 168 q 343 40 256 40 q 476 106 433 40 q 519 322 519 173 m 274 759 l 274 781 l 407 966 l 551 966 l 551 941 l 311 759 l 274 759 z "},"ô":{"ha":694,"x_min":53,"x_max":642,"o":"m 642 322 q 343 -14 642 -14 q 126 73 199 -14 q 53 322 53 159 q 126 569 53 484 q 349 654 199 654 q 568 571 494 654 q 642 322 642 487 m 519 322 q 477 534 519 469 q 343 600 434 600 q 215 537 254 600 q 175 322 175 474 q 215 104 175 168 q 343 40 256 40 q 476 106 433 40 q 519 322 519 173 m 127 759 l 127 781 l 275 966 l 419 966 l 566 781 l 566 759 l 528 759 l 347 883 l 165 759 l 127 759 z "},"õ":{"ha":694,"x_min":53,"x_max":642,"o":"m 642 322 q 343 -14 642 -14 q 126 73 199 -14 q 53 322 53 159 q 126 569 53 484 q 349 654 199 654 q 568 571 494 654 q 642 322 642 487 m 519 322 q 477 534 519 469 q 343 600 434 600 q 215 537 254 600 q 175 322 175 474 q 215 104 175 168 q 343 40 256 40 q 476 106 433 40 q 519 322 519 173 m 429 758 q 369 773 397 758 q 317 805 342 787 q 270 838 293 823 q 225 852 248 852 q 190 844 203 852 q 170 821 177 836 q 157 772 162 806 l 122 772 q 254 936 132 936 q 314 921 287 936 q 367 889 342 907 q 414 856 391 871 q 458 842 437 842 q 504 859 488 842 q 526 922 520 876 l 562 922 q 429 758 551 758 z "},"ö":{"ha":694,"x_min":53,"x_max":642,"o":"m 642 322 q 343 -14 642 -14 q 126 73 199 -14 q 53 322 53 159 q 126 569 53 484 q 349 654 199 654 q 568 571 494 654 q 642 322 642 487 m 519 322 q 477 534 519 469 q 343 600 434 600 q 215 537 254 600 q 175 322 175 474 q 215 104 175 168 q 343 40 256 40 q 476 106 433 40 q 519 322 519 173 m 533 810 q 514 761 533 781 q 467 741 495 741 q 418 762 438 741 q 399 810 399 783 q 418 858 399 838 q 467 878 438 878 q 514 858 495 878 q 533 810 533 838 m 292 810 q 273 761 292 781 q 225 741 254 741 q 177 762 197 741 q 157 810 157 782 q 178 858 157 838 q 225 878 199 878 q 273 858 254 878 q 292 810 292 838 z "},"÷":{"ha":762,"x_min":58,"x_max":704,"o":"m 446 721 q 427 675 446 694 q 380 656 408 656 q 334 675 353 656 q 315 721 315 694 q 334 767 315 748 q 380 786 353 786 q 427 767 408 786 q 446 721 446 748 m 446 201 q 427 155 446 174 q 380 136 408 136 q 334 155 353 136 q 315 201 315 174 q 334 248 315 229 q 380 267 353 267 q 427 248 408 267 q 446 201 446 229 m 704 496 l 704 427 l 58 427 l 58 496 l 704 496 z "},"ø":{"ha":694,"x_min":47,"x_max":646,"o":"m 646 693 l 562 575 q 642 322 642 489 q 343 -14 642 -14 q 179 26 245 -14 l 121 -57 l 47 -57 l 134 64 q 53 322 53 149 q 126 569 53 484 q 349 654 199 654 q 518 611 450 654 l 575 693 l 646 693 m 175 322 q 195 151 175 213 l 469 543 q 343 600 427 600 q 215 537 254 600 q 175 322 175 474 m 519 322 q 498 485 519 422 l 224 92 q 343 40 264 40 q 476 106 433 40 q 519 322 519 173 z "},"ù":{"ha":694,"x_min":18,"x_max":671,"o":"m 212 182 q 321 65 212 65 q 478 86 405 65 l 478 590 l 382 607 l 382 637 l 590 637 l 590 47 l 671 31 l 671 0 l 485 0 l 479 52 q 368 6 431 25 q 262 -14 305 -14 q 100 174 100 -14 l 100 590 l 18 607 l 18 637 l 212 637 l 212 182 m 379 759 l 139 941 l 139 966 l 283 966 l 416 781 l 416 759 l 379 759 z "},"ú":{"ha":694,"x_min":18,"x_max":671,"o":"m 212 182 q 321 65 212 65 q 478 86 405 65 l 478 590 l 382 607 l 382 637 l 590 637 l 590 47 l 671 31 l 671 0 l 485 0 l 479 52 q 368 6 431 25 q 262 -14 305 -14 q 100 174 100 -14 l 100 590 l 18 607 l 18 637 l 212 637 l 212 182 m 285 759 l 285 781 l 418 966 l 562 966 l 562 941 l 322 759 l 285 759 z "},"û":{"ha":694,"x_min":18,"x_max":671,"o":"m 212 182 q 321 65 212 65 q 478 86 405 65 l 478 590 l 382 607 l 382 637 l 590 637 l 590 47 l 671 31 l 671 0 l 485 0 l 479 52 q 368 6 431 25 q 262 -14 305 -14 q 100 174 100 -14 l 100 590 l 18 607 l 18 637 l 212 637 l 212 182 m 125 759 l 125 781 l 273 966 l 418 966 l 565 781 l 565 759 l 527 759 l 345 883 l 163 759 l 125 759 z "},"ü":{"ha":694,"x_min":18,"x_max":671,"o":"m 212 182 q 321 65 212 65 q 478 86 405 65 l 478 590 l 382 607 l 382 637 l 590 637 l 590 47 l 671 31 l 671 0 l 485 0 l 479 52 q 368 6 431 25 q 262 -14 305 -14 q 100 174 100 -14 l 100 590 l 18 607 l 18 637 l 212 637 l 212 182 m 536 810 q 517 761 536 781 q 469 741 498 741 q 421 762 441 741 q 401 810 401 783 q 421 858 401 838 q 469 878 441 878 q 517 858 498 878 q 536 810 536 838 m 294 810 q 275 761 294 781 q 228 741 256 741 q 180 762 200 741 q 159 810 159 782 q 180 858 159 838 q 228 878 201 878 q 275 858 256 878 q 294 810 294 838 z "},"ý":{"ha":694,"x_min":17,"x_max":689,"o":"m 135 -300 q 31 -288 82 -300 l 31 -150 l 62 -150 l 85 -215 q 143 -231 106 -231 q 208 -210 178 -231 q 263 -150 238 -190 q 325 -7 288 -110 l 82 590 l 17 607 l 17 637 l 313 637 l 313 607 l 212 589 l 385 143 l 551 590 l 452 607 l 452 637 l 689 637 l 689 607 l 623 593 l 374 -40 q 297 -201 330 -152 q 225 -275 264 -250 q 135 -300 186 -300 m 274 759 l 274 781 l 407 966 l 551 966 l 551 941 l 311 759 l 274 759 z "},"þ":{"ha":694,"x_min":9,"x_max":640,"o":"m 514 326 q 473 521 514 458 q 347 583 432 583 q 215 561 268 583 l 215 52 q 347 40 275 40 q 473 110 431 40 q 514 326 514 180 m 103 917 l 9 933 l 9 964 l 215 964 l 215 736 q 211 600 215 698 q 287 640 239 625 q 385 654 335 654 q 573 570 507 654 q 640 326 640 485 q 567 75 640 164 q 357 -14 494 -14 q 211 1 280 -14 q 215 -75 215 -47 l 215 -248 l 326 -264 l 326 -296 l 22 -296 l 22 -264 l 103 -248 l 103 917 z "},"ÿ":{"ha":694,"x_min":17,"x_max":689,"o":"m 135 -300 q 31 -288 82 -300 l 31 -150 l 62 -150 l 85 -215 q 143 -231 106 -231 q 208 -210 178 -231 q 263 -150 238 -190 q 325 -7 288 -110 l 82 590 l 17 607 l 17 637 l 313 637 l 313 607 l 212 589 l 385 143 l 551 590 l 452 607 l 452 637 l 689 637 l 689 607 l 623 593 l 374 -40 q 297 -201 330 -152 q 225 -275 264 -250 q 135 -300 186 -300 m 551 810 q 532 761 551 781 q 485 741 513 741 q 437 762 456 741 q 417 810 417 783 q 437 858 417 838 q 485 878 456 878 q 532 858 513 878 q 551 810 551 838 m 310 810 q 291 761 310 781 q 243 741 272 741 q 195 762 216 741 q 175 810 175 782 q 196 858 175 838 q 243 878 217 878 q 291 858 272 878 q 310 810 310 838 z "},"Ā":{"ha":1003,"x_min":14,"x_max":993,"o":"m 313 36 l 313 0 l 14 0 l 14 36 l 117 54 l 427 917 l 555 917 l 878 54 l 993 36 l 993 0 l 608 0 l 608 36 l 730 54 l 640 317 l 282 317 l 191 54 l 313 36 m 458 819 l 302 378 l 619 378 l 458 819 m 288 1000 l 288 1074 l 714 1074 l 714 1000 l 288 1000 z "},"ā":{"ha":616,"x_min":49,"x_max":597,"o":"m 315 652 q 469 609 420 652 q 518 478 518 566 l 518 47 l 597 31 l 597 0 l 422 0 l 410 64 q 212 -14 332 -14 q 49 176 49 -14 q 74 282 49 240 q 153 346 98 323 q 310 370 207 368 l 406 372 l 406 472 q 381 569 406 538 q 307 600 357 600 q 183 568 239 600 l 160 489 l 122 489 l 122 628 q 315 652 232 652 m 406 325 l 317 322 q 194 287 226 319 q 161 180 161 255 q 258 61 161 61 q 338 72 304 61 q 406 98 372 82 l 406 325 m 102 774 l 102 848 l 528 848 l 528 774 l 102 774 z "},"Ă":{"ha":1003,"x_min":14,"x_max":993,"o":"m 313 36 l 313 0 l 14 0 l 14 36 l 117 54 l 427 917 l 555 917 l 878 54 l 993 36 l 993 0 l 608 0 l 608 36 l 730 54 l 640 317 l 282 317 l 191 54 l 313 36 m 458 819 l 302 378 l 619 378 l 458 819 m 488 985 q 346 1037 397 985 q 293 1175 295 1089 l 343 1175 q 392 1105 354 1130 q 488 1081 431 1081 q 583 1105 545 1081 q 632 1175 621 1130 l 682 1175 q 628 1036 679 1086 q 488 985 577 985 z "},"ă":{"ha":616,"x_min":49,"x_max":597,"o":"m 315 652 q 469 609 420 652 q 518 478 518 566 l 518 47 l 597 31 l 597 0 l 422 0 l 410 64 q 212 -14 332 -14 q 49 176 49 -14 q 74 282 49 240 q 153 346 98 323 q 310 370 207 368 l 406 372 l 406 472 q 381 569 406 538 q 307 600 357 600 q 183 568 239 600 l 160 489 l 122 489 l 122 628 q 315 652 232 652 m 406 325 l 317 322 q 194 287 226 319 q 161 180 161 255 q 258 61 161 61 q 338 72 304 61 q 406 98 372 82 l 406 325 m 308 759 q 166 811 217 759 q 113 949 115 863 l 163 949 q 213 879 174 903 q 308 854 251 854 q 403 879 365 854 q 452 949 441 903 l 503 949 q 448 809 499 860 q 308 759 397 759 z "},"Ą":{"ha":1003,"x_min":14,"x_max":993,"o":"m 313 36 l 313 0 l 14 0 l 14 36 l 117 54 l 427 917 l 555 917 l 878 54 l 993 36 l 993 0 l 608 0 l 608 36 l 730 54 l 640 317 l 282 317 l 191 54 l 313 36 m 458 819 l 302 378 l 619 378 l 458 819 m 812 -273 q 696 -234 736 -273 q 655 -126 655 -195 q 671 -55 655 -90 q 716 11 687 -19 l 790 11 q 764 -47 774 -12 q 753 -110 753 -82 q 778 -187 753 -160 q 847 -214 802 -214 q 926 -199 888 -214 l 926 -242 q 812 -273 880 -273 z "},"ą":{"ha":616,"x_min":49,"x_max":631,"o":"m 315 652 q 469 609 420 652 q 518 478 518 566 l 518 47 l 597 31 l 597 0 l 422 0 l 410 64 q 212 -14 332 -14 q 49 176 49 -14 q 74 282 49 240 q 153 346 98 323 q 310 370 207 368 l 406 372 l 406 472 q 381 569 406 538 q 307 600 357 600 q 183 568 239 600 l 160 489 l 122 489 l 122 628 q 315 652 232 652 m 406 325 l 317 322 q 194 287 226 319 q 161 180 161 255 q 258 61 161 61 q 338 72 304 61 q 406 98 372 82 l 406 325 m 517 -273 q 401 -234 441 -273 q 360 -126 360 -195 q 376 -55 360 -90 q 421 11 392 -19 l 495 11 q 469 -47 479 -12 q 458 -110 458 -82 q 483 -187 458 -160 q 552 -214 507 -214 q 631 -199 593 -214 l 631 -242 q 517 -273 585 -273 z "},"Ć":{"ha":926,"x_min":57,"x_max":850,"o":"m 525 -14 q 180 107 304 -14 q 57 444 57 227 q 176 799 57 679 q 528 920 294 920 q 832 885 669 920 l 836 686 l 791 686 l 771 804 q 661 849 724 833 q 533 865 598 865 q 279 763 359 865 q 199 446 199 661 q 282 143 199 248 q 526 39 366 39 q 672 57 604 39 q 781 107 741 76 l 806 243 l 850 243 l 846 29 q 525 -14 696 -14 m 416 985 l 416 1008 l 549 1192 l 693 1192 l 693 1167 l 453 985 l 416 985 z "},"ć":{"ha":616,"x_min":53,"x_max":574,"o":"m 574 39 q 482 0 541 14 q 363 -14 424 -14 q 53 323 53 -14 q 132 569 53 483 q 358 654 211 654 q 558 633 450 654 l 558 456 l 521 456 l 492 568 q 357 600 435 600 q 175 323 175 600 q 230 118 175 180 q 401 57 286 57 q 574 79 500 57 l 574 39 m 248 759 l 248 781 l 381 966 l 526 966 l 526 941 l 286 759 l 248 759 z "},"Ĉ":{"ha":926,"x_min":57,"x_max":850,"o":"m 525 -14 q 180 107 304 -14 q 57 444 57 227 q 176 799 57 679 q 528 920 294 920 q 832 885 669 920 l 836 686 l 791 686 l 771 804 q 661 849 724 833 q 533 865 598 865 q 279 763 359 865 q 199 446 199 661 q 282 143 199 248 q 526 39 366 39 q 672 57 604 39 q 781 107 741 76 l 806 243 l 850 243 l 846 29 q 525 -14 696 -14 m 307 985 l 307 1008 l 454 1193 l 599 1193 l 746 1008 l 746 985 l 708 985 l 526 1109 l 345 985 l 307 985 z "},"ĉ":{"ha":616,"x_min":53,"x_max":574,"o":"m 574 39 q 482 0 541 14 q 363 -14 424 -14 q 53 323 53 -14 q 132 569 53 483 q 358 654 211 654 q 558 633 450 654 l 558 456 l 521 456 l 492 568 q 357 600 435 600 q 175 323 175 600 q 230 118 175 180 q 401 57 286 57 q 574 79 500 57 l 574 39 m 127 759 l 127 781 l 275 966 l 420 966 l 567 781 l 567 759 l 529 759 l 347 883 l 165 759 l 127 759 z "},"Ċ":{"ha":926,"x_min":57,"x_max":850,"o":"m 525 -14 q 180 107 304 -14 q 57 444 57 227 q 176 799 57 679 q 528 920 294 920 q 832 885 669 920 l 836 686 l 791 686 l 771 804 q 661 849 724 833 q 533 865 598 865 q 279 763 359 865 q 199 446 199 661 q 282 143 199 248 q 526 39 366 39 q 672 57 604 39 q 781 107 741 76 l 806 243 l 850 243 l 846 29 q 525 -14 696 -14 m 595 1072 q 573 1021 595 1042 q 521 999 551 999 q 469 1021 491 999 q 448 1072 448 1042 q 469 1124 448 1103 q 521 1146 491 1146 q 573 1124 551 1146 q 595 1072 595 1103 z "},"ċ":{"ha":616,"x_min":53,"x_max":574,"o":"m 574 39 q 482 0 541 14 q 363 -14 424 -14 q 53 323 53 -14 q 132 569 53 483 q 358 654 211 654 q 558 633 450 654 l 558 456 l 521 456 l 492 568 q 357 600 435 600 q 175 323 175 600 q 230 118 175 180 q 401 57 286 57 q 574 79 500 57 l 574 39 m 433 846 q 412 794 433 816 q 359 772 390 772 q 308 794 330 772 q 286 846 286 816 q 308 898 286 876 q 359 920 330 920 q 412 898 390 920 q 433 846 433 876 z "},"Č":{"ha":926,"x_min":57,"x_max":850,"o":"m 525 -14 q 180 107 304 -14 q 57 444 57 227 q 176 799 57 679 q 528 920 294 920 q 832 885 669 920 l 836 686 l 791 686 l 771 804 q 661 849 724 833 q 533 865 598 865 q 279 763 359 865 q 199 446 199 661 q 282 143 199 248 q 526 39 366 39 q 672 57 604 39 q 781 107 741 76 l 806 243 l 850 243 l 846 29 q 525 -14 696 -14 m 342 1193 l 524 1069 l 706 1193 l 744 1193 l 744 1171 l 597 985 l 452 985 l 304 1171 l 304 1193 l 342 1193 z "},"č":{"ha":616,"x_min":53,"x_max":574,"o":"m 574 39 q 482 0 541 14 q 363 -14 424 -14 q 53 323 53 -14 q 132 569 53 483 q 358 654 211 654 q 558 633 450 654 l 558 456 l 521 456 l 492 568 q 357 600 435 600 q 175 323 175 600 q 230 118 175 180 q 401 57 286 57 q 574 79 500 57 l 574 39 m 170 966 l 351 842 l 533 966 l 571 966 l 571 944 l 424 759 l 279 759 l 132 944 l 132 966 l 170 966 z "},"Ď":{"ha":1003,"x_min":40,"x_max":947,"o":"m 806 461 q 703 750 806 652 q 410 848 600 848 l 288 848 l 288 64 q 481 58 369 58 q 727 157 648 58 q 806 461 806 255 m 453 909 q 826 797 705 909 q 947 460 947 685 q 830 115 947 232 q 481 -3 713 -3 l 157 0 l 40 0 l 40 36 l 157 54 l 157 856 l 40 873 l 40 909 l 453 909 m 313 1193 l 494 1069 l 676 1193 l 714 1193 l 714 1171 l 567 985 l 422 985 l 275 1171 l 275 1193 l 313 1193 z "},"ď":{"ha":898,"x_min":50,"x_max":873,"o":"m 490 47 q 311 -14 414 -14 q 50 313 50 -14 q 124 567 50 480 q 342 654 198 654 q 490 639 415 654 q 486 751 486 661 l 486 917 l 379 933 l 379 964 l 599 964 l 599 47 l 677 31 l 677 0 l 498 0 l 490 47 m 172 313 q 216 120 172 184 q 349 57 259 57 q 486 83 425 57 l 486 587 q 349 599 426 599 q 172 313 172 599 m 873 867 q 825 747 873 793 q 666 675 777 701 l 666 718 q 739 743 711 728 q 779 773 766 757 q 791 816 791 789 q 782 836 791 827 q 760 854 772 844 q 738 877 748 863 q 728 911 728 890 q 747 950 728 937 q 795 964 766 964 q 851 938 829 964 q 873 867 873 911 z "},"Đ":{"ha":1003,"x_min":36,"x_max":947,"o":"m 428 909 q 816 794 685 909 q 947 460 947 680 q 836 112 947 226 q 497 -3 724 -3 l 157 0 l 40 0 l 40 36 l 157 54 l 157 427 l 36 427 l 36 482 l 157 482 l 157 856 l 40 873 l 40 909 l 428 909 m 543 482 l 543 427 l 288 427 l 288 64 q 481 58 369 58 q 727 154 648 58 q 806 454 806 249 q 705 749 806 650 q 397 848 604 848 l 288 848 l 288 482 l 543 482 z "},"đ":{"ha":694,"x_min":50,"x_max":692,"o":"m 490 47 q 311 -14 414 -14 q 50 313 50 -14 q 124 567 50 480 q 342 654 198 654 q 490 639 415 654 q 486 738 486 661 l 486 754 l 300 754 l 300 811 l 486 811 l 486 917 l 379 933 l 379 964 l 599 964 l 599 811 l 692 811 l 692 754 l 599 754 l 599 47 l 677 31 l 677 0 l 498 0 l 490 47 m 172 313 q 216 120 172 184 q 349 57 259 57 q 486 83 425 57 l 486 587 q 349 599 426 599 q 172 313 172 599 z "},"Ē":{"ha":848,"x_min":40,"x_max":779,"o":"m 40 36 l 157 54 l 157 856 l 40 873 l 40 909 l 722 909 l 722 692 l 677 692 l 656 839 q 436 848 580 848 l 288 848 l 288 493 l 533 493 l 554 602 l 597 602 l 597 322 l 554 322 l 533 432 l 288 432 l 288 61 l 467 61 q 696 72 642 61 l 734 240 l 779 240 l 766 0 l 40 0 l 40 36 m 211 1000 l 211 1074 l 637 1074 l 637 1000 l 211 1000 z "},"ē":{"ha":616,"x_min":54,"x_max":568,"o":"m 176 321 l 176 309 q 197 163 176 215 q 261 84 218 111 q 374 57 304 57 q 460 63 410 57 q 543 77 511 69 l 543 39 q 455 2 511 18 q 340 -14 399 -14 q 123 66 192 -14 q 54 323 54 146 q 124 572 54 490 q 323 654 194 654 q 568 376 568 654 l 568 321 l 176 321 m 323 600 q 215 543 253 600 q 178 375 178 486 l 450 375 q 419 548 450 496 q 323 600 388 600 m 111 774 l 111 848 l 536 848 l 536 774 l 111 774 z "},"Ĕ":{"ha":848,"x_min":40,"x_max":779,"o":"m 40 36 l 157 54 l 157 856 l 40 873 l 40 909 l 722 909 l 722 692 l 677 692 l 656 839 q 436 848 580 848 l 288 848 l 288 493 l 533 493 l 554 602 l 597 602 l 597 322 l 554 322 l 533 432 l 288 432 l 288 61 l 467 61 q 696 72 642 61 l 734 240 l 779 240 l 766 0 l 40 0 l 40 36 m 424 985 q 282 1037 333 985 q 229 1175 231 1089 l 279 1175 q 329 1105 290 1130 q 424 1081 367 1081 q 519 1105 481 1081 q 568 1175 557 1130 l 618 1175 q 564 1036 615 1086 q 424 985 513 985 z "},"ĕ":{"ha":616,"x_min":54,"x_max":568,"o":"m 176 321 l 176 309 q 197 163 176 215 q 261 84 218 111 q 374 57 304 57 q 460 63 410 57 q 543 77 511 69 l 543 39 q 455 2 511 18 q 340 -14 399 -14 q 123 66 192 -14 q 54 323 54 146 q 124 572 54 490 q 323 654 194 654 q 568 376 568 654 l 568 321 l 176 321 m 323 600 q 215 543 253 600 q 178 375 178 486 l 450 375 q 419 548 450 496 q 323 600 388 600 m 317 759 q 176 811 227 759 q 123 949 125 863 l 173 949 q 222 879 184 903 q 317 854 260 854 q 412 879 374 854 q 462 949 450 903 l 512 949 q 458 809 509 860 q 317 759 407 759 z "},"Ė":{"ha":848,"x_min":40,"x_max":779,"o":"m 40 36 l 157 54 l 157 856 l 40 873 l 40 909 l 722 909 l 722 692 l 677 692 l 656 839 q 436 848 580 848 l 288 848 l 288 493 l 533 493 l 554 602 l 597 602 l 597 322 l 554 322 l 533 432 l 288 432 l 288 61 l 467 61 q 696 72 642 61 l 734 240 l 779 240 l 766 0 l 40 0 l 40 36 m 505 1072 q 483 1021 505 1042 q 431 999 461 999 q 379 1021 401 999 q 357 1072 357 1042 q 379 1124 357 1103 q 431 1146 401 1146 q 483 1124 461 1146 q 505 1072 505 1103 z "},"ė":{"ha":616,"x_min":54,"x_max":568,"o":"m 176 321 l 176 309 q 197 163 176 215 q 261 84 218 111 q 374 57 304 57 q 460 63 410 57 q 543 77 511 69 l 543 39 q 455 2 511 18 q 340 -14 399 -14 q 123 66 192 -14 q 54 323 54 146 q 124 572 54 490 q 323 654 194 654 q 568 376 568 654 l 568 321 l 176 321 m 323 600 q 215 543 253 600 q 178 375 178 486 l 450 375 q 419 548 450 496 q 323 600 388 600 m 395 846 q 373 794 395 816 q 321 772 351 772 q 269 794 291 772 q 248 846 248 816 q 269 898 248 876 q 321 920 291 920 q 373 898 351 920 q 395 846 395 876 z "},"Ę":{"ha":848,"x_min":40,"x_max":779,"o":"m 40 36 l 157 54 l 157 856 l 40 873 l 40 909 l 722 909 l 722 692 l 677 692 l 656 839 q 436 848 580 848 l 288 848 l 288 493 l 533 493 l 554 602 l 597 602 l 597 322 l 554 322 l 533 432 l 288 432 l 288 61 l 467 61 q 696 72 642 61 l 734 240 l 779 240 l 766 0 l 40 0 l 40 36 m 649 -273 q 533 -234 574 -273 q 492 -126 492 -195 q 508 -55 492 -90 q 553 11 524 -19 l 627 11 q 601 -47 612 -12 q 591 -110 591 -82 q 615 -187 591 -160 q 684 -214 639 -214 q 763 -199 725 -214 l 763 -242 q 649 -273 717 -273 z "},"ę":{"ha":616,"x_min":54,"x_max":568,"o":"m 176 321 l 176 309 q 197 163 176 215 q 261 84 218 111 q 374 57 304 57 q 460 63 410 57 q 543 77 511 69 l 543 39 q 455 2 511 18 q 340 -14 399 -14 q 123 66 192 -14 q 54 323 54 146 q 124 572 54 490 q 323 654 194 654 q 568 376 568 654 l 568 321 l 176 321 m 323 600 q 215 543 253 600 q 178 375 178 486 l 450 375 q 419 548 450 496 q 323 600 388 600 m 441 -273 q 325 -234 366 -273 q 284 -126 284 -195 q 300 -55 284 -90 q 345 11 316 -19 l 419 11 q 393 -47 404 -12 q 382 -110 382 -82 q 407 -187 382 -160 q 476 -214 431 -214 q 555 -199 517 -214 l 555 -242 q 441 -273 509 -273 z "},"Ě":{"ha":848,"x_min":40,"x_max":779,"o":"m 40 36 l 157 54 l 157 856 l 40 873 l 40 909 l 722 909 l 722 692 l 677 692 l 656 839 q 436 848 580 848 l 288 848 l 288 493 l 533 493 l 554 602 l 597 602 l 597 322 l 554 322 l 533 432 l 288 432 l 288 61 l 467 61 q 696 72 642 61 l 734 240 l 779 240 l 766 0 l 40 0 l 40 36 m 249 1193 l 431 1069 l 612 1193 l 650 1193 l 650 1171 l 503 985 l 359 985 l 211 1171 l 211 1193 l 249 1193 z "},"ě":{"ha":616,"x_min":54,"x_max":568,"o":"m 176 321 l 176 309 q 197 163 176 215 q 261 84 218 111 q 374 57 304 57 q 460 63 410 57 q 543 77 511 69 l 543 39 q 455 2 511 18 q 340 -14 399 -14 q 123 66 192 -14 q 54 323 54 146 q 124 572 54 490 q 323 654 194 654 q 568 376 568 654 l 568 321 l 176 321 m 323 600 q 215 543 253 600 q 178 375 178 486 l 450 375 q 419 548 450 496 q 323 600 388 600 m 143 966 l 325 842 l 507 966 l 545 966 l 545 944 l 397 759 l 253 759 l 105 944 l 105 966 l 143 966 z "},"Ĝ":{"ha":1003,"x_min":57,"x_max":960,"o":"m 871 47 q 707 4 792 22 q 525 -14 623 -14 q 180 106 304 -14 q 57 444 57 225 q 177 801 57 683 q 528 920 296 920 q 847 879 693 920 l 847 684 l 802 684 l 783 796 q 671 847 736 829 q 533 865 606 865 q 279 762 359 865 q 199 446 199 659 q 281 142 199 245 q 526 39 364 39 q 646 52 583 39 q 741 85 708 66 l 741 343 l 624 361 l 624 397 l 960 397 l 960 361 l 871 343 l 871 47 m 306 985 l 306 1008 l 454 1193 l 598 1193 l 745 1008 l 745 985 l 707 985 l 526 1109 l 344 985 l 306 985 z "},"ĝ":{"ha":694,"x_min":60,"x_max":668,"o":"m 590 436 q 524 270 590 326 q 335 214 458 214 q 232 224 279 214 l 189 135 q 216 113 191 123 q 277 103 240 103 l 465 103 q 618 58 568 103 q 668 -65 668 14 q 628 -189 668 -136 q 512 -271 589 -242 q 326 -300 435 -300 q 128 -260 196 -300 q 60 -146 60 -220 q 84 -75 60 -110 q 174 7 109 -40 q 109 51 135 20 q 82 118 82 82 l 189 239 q 82 436 82 289 q 148 597 82 541 q 340 654 214 654 q 405 649 366 654 q 465 637 444 644 l 615 713 l 639 684 l 545 586 q 590 436 590 535 m 562 -86 q 538 -26 562 -47 q 467 -4 515 -4 l 220 -4 q 173 -66 191 -28 q 155 -136 155 -104 q 197 -220 155 -195 q 326 -245 239 -245 q 501 -203 439 -245 q 562 -86 562 -161 m 336 265 q 441 308 410 265 q 472 436 472 350 q 440 565 472 526 q 338 603 408 603 q 233 564 267 603 q 200 436 200 526 q 233 306 200 347 q 336 265 265 265 m 127 759 l 127 781 l 275 966 l 420 966 l 567 781 l 567 759 l 529 759 l 347 883 l 165 759 l 127 759 z "},"Ğ":{"ha":1003,"x_min":57,"x_max":960,"o":"m 871 47 q 707 4 792 22 q 525 -14 623 -14 q 180 106 304 -14 q 57 444 57 225 q 177 801 57 683 q 528 920 296 920 q 847 879 693 920 l 847 684 l 802 684 l 783 796 q 671 847 736 829 q 533 865 606 865 q 279 762 359 865 q 199 446 199 659 q 281 142 199 245 q 526 39 364 39 q 646 52 583 39 q 741 85 708 66 l 741 343 l 624 361 l 624 397 l 960 397 l 960 361 l 871 343 l 871 47 m 522 985 q 380 1037 431 985 q 327 1175 329 1089 l 377 1175 q 426 1105 388 1130 q 522 1081 465 1081 q 616 1105 578 1081 q 666 1175 654 1130 l 716 1175 q 662 1036 713 1086 q 522 985 611 985 z "},"ğ":{"ha":694,"x_min":60,"x_max":668,"o":"m 590 436 q 524 270 590 326 q 335 214 458 214 q 232 224 279 214 l 189 135 q 216 113 191 123 q 277 103 240 103 l 465 103 q 618 58 568 103 q 668 -65 668 14 q 628 -189 668 -136 q 512 -271 589 -242 q 326 -300 435 -300 q 128 -260 196 -300 q 60 -146 60 -220 q 84 -75 60 -110 q 174 7 109 -40 q 109 51 135 20 q 82 118 82 82 l 189 239 q 82 436 82 289 q 148 597 82 541 q 340 654 214 654 q 405 649 366 654 q 465 637 444 644 l 615 713 l 639 684 l 545 586 q 590 436 590 535 m 562 -86 q 538 -26 562 -47 q 467 -4 515 -4 l 220 -4 q 173 -66 191 -28 q 155 -136 155 -104 q 197 -220 155 -195 q 326 -245 239 -245 q 501 -203 439 -245 q 562 -86 562 -161 m 336 265 q 441 308 410 265 q 472 436 472 350 q 440 565 472 526 q 338 603 408 603 q 233 564 267 603 q 200 436 200 526 q 233 306 200 347 q 336 265 265 265 m 328 759 q 186 811 237 759 q 134 949 136 863 l 184 949 q 233 879 195 903 q 328 854 271 854 q 423 879 385 854 q 473 949 461 903 l 523 949 q 469 809 519 860 q 328 759 418 759 z "},"Ġ":{"ha":1003,"x_min":57,"x_max":960,"o":"m 871 47 q 707 4 792 22 q 525 -14 623 -14 q 180 106 304 -14 q 57 444 57 225 q 177 801 57 683 q 528 920 296 920 q 847 879 693 920 l 847 684 l 802 684 l 783 796 q 671 847 736 829 q 533 865 606 865 q 279 762 359 865 q 199 446 199 659 q 281 142 199 245 q 526 39 364 39 q 646 52 583 39 q 741 85 708 66 l 741 343 l 624 361 l 624 397 l 960 397 l 960 361 l 871 343 l 871 47 m 600 1072 q 578 1021 600 1042 q 526 999 556 999 q 474 1021 496 999 q 452 1072 452 1042 q 474 1124 452 1103 q 526 1146 496 1146 q 578 1124 556 1146 q 600 1072 600 1103 z "},"ġ":{"ha":694,"x_min":60,"x_max":668,"o":"m 590 436 q 524 270 590 326 q 335 214 458 214 q 232 224 279 214 l 189 135 q 216 113 191 123 q 277 103 240 103 l 465 103 q 618 58 568 103 q 668 -65 668 14 q 628 -189 668 -136 q 512 -271 589 -242 q 326 -300 435 -300 q 128 -260 196 -300 q 60 -146 60 -220 q 84 -75 60 -110 q 174 7 109 -40 q 109 51 135 20 q 82 118 82 82 l 189 239 q 82 436 82 289 q 148 597 82 541 q 340 654 214 654 q 405 649 366 654 q 465 637 444 644 l 615 713 l 639 684 l 545 586 q 590 436 590 535 m 562 -86 q 538 -26 562 -47 q 467 -4 515 -4 l 220 -4 q 173 -66 191 -28 q 155 -136 155 -104 q 197 -220 155 -195 q 326 -245 239 -245 q 501 -203 439 -245 q 562 -86 562 -161 m 336 265 q 441 308 410 265 q 472 436 472 350 q 440 565 472 526 q 338 603 408 603 q 233 564 267 603 q 200 436 200 526 q 233 306 200 347 q 336 265 265 265 m 409 846 q 387 794 409 816 q 335 772 366 772 q 283 794 305 772 q 262 846 262 816 q 283 898 262 876 q 335 920 305 920 q 387 898 366 920 q 409 846 409 876 z "},"Ģ":{"ha":1003,"x_min":57,"x_max":960,"o":"m 871 47 q 707 4 792 22 q 525 -14 623 -14 q 180 106 304 -14 q 57 444 57 225 q 177 801 57 683 q 528 920 296 920 q 847 879 693 920 l 847 684 l 802 684 l 783 796 q 671 847 736 829 q 533 865 606 865 q 279 762 359 865 q 199 446 199 659 q 281 142 199 245 q 526 39 364 39 q 646 52 583 39 q 741 85 708 66 l 741 343 l 624 361 l 624 397 l 960 397 l 960 361 l 871 343 l 871 47 m 591 -138 q 557 -234 591 -198 q 439 -296 523 -271 l 439 -253 q 520 -193 520 -229 q 509 -170 520 -177 q 483 -155 497 -162 q 457 -137 469 -148 q 446 -102 446 -125 q 464 -62 446 -77 q 512 -47 483 -47 q 569 -73 547 -47 q 591 -138 591 -99 z "},"ģ":{"ha":694,"x_min":60,"x_max":668,"o":"m 590 436 q 524 270 590 326 q 335 214 458 214 q 232 224 279 214 l 189 135 q 216 113 191 123 q 277 103 240 103 l 465 103 q 618 58 568 103 q 668 -65 668 14 q 628 -189 668 -136 q 512 -271 589 -242 q 326 -300 435 -300 q 128 -260 196 -300 q 60 -146 60 -220 q 84 -75 60 -110 q 174 7 109 -40 q 109 51 135 20 q 82 118 82 82 l 189 239 q 82 436 82 289 q 148 597 82 541 q 340 654 214 654 q 405 649 366 654 q 465 637 444 644 l 615 713 l 639 684 l 545 586 q 590 436 590 535 m 562 -86 q 538 -26 562 -47 q 467 -4 515 -4 l 220 -4 q 173 -66 191 -28 q 155 -136 155 -104 q 197 -220 155 -195 q 326 -245 239 -245 q 501 -203 439 -245 q 562 -86 562 -161 m 336 265 q 441 308 410 265 q 472 436 472 350 q 440 565 472 526 q 338 603 408 603 q 233 564 267 603 q 200 436 200 526 q 233 306 200 347 q 336 265 265 265 m 262 851 q 296 947 262 911 q 414 1008 330 983 l 414 966 q 333 905 333 941 q 345 882 333 890 q 370 868 356 875 q 396 849 385 861 q 408 815 408 838 q 389 774 408 789 q 341 760 370 760 q 284 786 307 760 q 262 851 262 812 z "},"Ĥ":{"ha":1003,"x_min":40,"x_max":962,"o":"m 40 0 l 40 36 l 157 54 l 157 856 l 40 873 l 40 909 l 404 909 l 404 873 l 288 856 l 288 498 l 715 498 l 715 856 l 599 873 l 599 909 l 962 909 l 962 873 l 846 856 l 846 54 l 962 36 l 962 0 l 599 0 l 599 36 l 715 54 l 715 437 l 288 437 l 288 54 l 404 36 l 404 0 l 40 0 m 281 985 l 281 1008 l 429 1193 l 574 1193 l 721 1008 l 721 985 l 683 985 l 501 1109 l 319 985 l 281 985 z "},"ĥ":{"ha":694,"x_min":14,"x_max":676,"o":"m 221 688 q 216 586 221 617 q 327 634 265 614 q 432 654 389 654 q 557 606 515 654 q 599 467 599 558 l 599 47 l 676 31 l 676 0 l 401 0 l 401 31 l 486 47 l 486 458 q 374 575 486 575 q 221 555 310 575 l 221 47 l 307 31 l 307 0 l 28 0 l 28 31 l 109 47 l 109 917 l 14 933 l 14 964 l 221 964 l 221 688 m 125 1013 l 125 1035 l 273 1220 l 418 1220 l 565 1035 l 565 1013 l 527 1013 l 345 1137 l 163 1013 l 125 1013 z "},"Ħ":{"ha":1003,"x_min":40,"x_max":963,"o":"m 40 0 l 40 36 l 157 54 l 157 649 l 41 649 l 41 705 l 157 705 l 157 856 l 40 873 l 40 909 l 404 909 l 404 873 l 288 856 l 288 705 l 715 705 l 715 856 l 599 873 l 599 909 l 962 909 l 962 873 l 846 856 l 846 705 l 963 705 l 963 649 l 846 649 l 846 54 l 962 36 l 962 0 l 599 0 l 599 36 l 715 54 l 715 437 l 288 437 l 288 54 l 404 36 l 404 0 l 40 0 m 715 498 l 715 649 l 288 649 l 288 498 l 715 498 z "},"ħ":{"ha":694,"x_min":14,"x_max":676,"o":"m 221 811 l 408 811 l 408 754 l 221 754 l 221 688 q 216 586 221 617 q 327 634 265 614 q 432 654 389 654 q 557 606 515 654 q 599 467 599 558 l 599 47 l 676 31 l 676 0 l 401 0 l 401 31 l 486 47 l 486 458 q 374 575 486 575 q 221 555 310 575 l 221 47 l 307 31 l 307 0 l 28 0 l 28 31 l 109 47 l 109 754 l 16 754 l 16 811 l 109 811 l 109 917 l 14 933 l 14 964 l 221 964 l 221 811 z "},"Ĩ":{"ha":463,"x_min":12,"x_max":452,"o":"m 297 54 l 414 36 l 414 0 l 50 0 l 50 36 l 167 54 l 167 856 l 50 873 l 50 909 l 414 909 l 414 873 l 297 856 l 297 54 m 319 985 q 259 999 287 985 q 208 1032 232 1014 q 160 1064 183 1050 q 115 1079 138 1079 q 80 1071 94 1079 q 60 1047 67 1063 q 47 998 52 1032 l 12 998 q 144 1162 22 1162 q 204 1148 177 1162 q 257 1115 232 1133 q 304 1083 281 1097 q 349 1068 327 1068 q 394 1085 378 1068 q 416 1148 410 1102 l 452 1148 q 319 985 441 985 z "},"ĩ":{"ha":386,"x_min":-26,"x_max":414,"o":"m 250 47 l 359 31 l 359 0 l 29 0 l 29 31 l 138 47 l 138 590 l 47 607 l 47 637 l 250 637 l 250 47 m 281 758 q 221 773 249 758 q 170 805 194 787 q 122 838 145 823 q 77 852 100 852 q 42 844 56 852 q 22 821 29 836 q 9 772 14 806 l -26 772 q 106 936 -16 936 q 166 921 139 936 q 219 889 194 907 q 266 856 243 871 q 311 842 289 842 q 356 859 340 842 q 378 922 372 876 l 414 922 q 281 758 404 758 z "},"Ī":{"ha":463,"x_min":18,"x_max":444,"o":"m 297 54 l 414 36 l 414 0 l 50 0 l 50 36 l 167 54 l 167 856 l 50 873 l 50 909 l 414 909 l 414 873 l 297 856 l 297 54 m 18 1000 l 18 1074 l 444 1074 l 444 1000 l 18 1000 z "},"ī":{"ha":386,"x_min":-19,"x_max":407,"o":"m 250 47 l 359 31 l 359 0 l 29 0 l 29 31 l 138 47 l 138 590 l 47 607 l 47 637 l 250 637 l 250 47 m -19 774 l -19 848 l 407 848 l 407 774 l -19 774 z "},"Ĭ":{"ha":463,"x_min":37,"x_max":426,"o":"m 297 54 l 414 36 l 414 0 l 50 0 l 50 36 l 167 54 l 167 856 l 50 873 l 50 909 l 414 909 l 414 873 l 297 856 l 297 54 m 231 985 q 90 1037 140 985 q 37 1175 39 1089 l 87 1175 q 136 1105 98 1130 q 231 1081 174 1081 q 326 1105 288 1081 q 376 1175 364 1130 l 426 1175 q 372 1036 422 1086 q 231 985 321 985 z "},"ĭ":{"ha":386,"x_min":-1,"x_max":389,"o":"m 250 47 l 359 31 l 359 0 l 29 0 l 29 31 l 138 47 l 138 590 l 47 607 l 47 637 l 250 637 l 250 47 m 194 759 q 52 811 103 759 q -1 949 1 863 l 50 949 q 99 879 60 903 q 194 854 137 854 q 289 879 251 854 q 338 949 327 903 l 389 949 q 334 809 385 860 q 194 759 283 759 z "},"Į":{"ha":463,"x_min":50,"x_max":414,"o":"m 297 54 l 414 36 l 414 0 l 50 0 l 50 36 l 167 54 l 167 856 l 50 873 l 50 909 l 414 909 l 414 873 l 297 856 l 297 54 m 293 -273 q 177 -234 218 -273 q 136 -126 136 -195 q 152 -55 136 -90 q 197 11 168 -19 l 271 11 q 245 -47 256 -12 q 235 -110 235 -82 q 259 -187 235 -160 q 328 -214 283 -214 q 407 -199 369 -214 l 407 -242 q 293 -273 361 -273 z "},"į":{"ha":386,"x_min":29,"x_max":361,"o":"m 257 846 q 235 794 257 816 q 183 772 214 772 q 132 794 153 772 q 110 846 110 816 q 132 898 110 876 q 183 920 153 920 q 235 898 214 920 q 257 846 257 876 m 250 47 l 359 31 l 359 0 l 29 0 l 29 31 l 138 47 l 138 590 l 47 607 l 47 637 l 250 637 l 250 47 m 247 -273 q 131 -234 172 -273 q 90 -126 90 -195 q 106 -55 90 -90 q 151 11 122 -19 l 225 11 q 199 -47 210 -12 q 189 -110 189 -82 q 213 -187 189 -160 q 282 -214 237 -214 q 361 -199 323 -214 l 361 -242 q 247 -273 315 -273 z "},"İ":{"ha":463,"x_min":50,"x_max":414,"o":"m 297 54 l 414 36 l 414 0 l 50 0 l 50 36 l 167 54 l 167 856 l 50 873 l 50 909 l 414 909 l 414 873 l 297 856 l 297 54 m 306 1072 q 284 1021 306 1042 q 232 999 262 999 q 180 1021 202 999 q 159 1072 159 1042 q 180 1124 159 1103 q 232 1146 202 1146 q 284 1124 262 1146 q 306 1072 306 1103 z "},"ı":{"ha":386,"x_min":29,"x_max":359,"o":"m 250 47 l 359 31 l 359 0 l 29 0 l 29 31 l 138 47 l 138 590 l 47 607 l 47 637 l 250 637 l 250 47 z "},"Ĳ":{"ha":984,"x_min":50,"x_max":955,"o":"m 297 54 l 414 36 l 414 0 l 50 0 l 50 36 l 167 54 l 167 856 l 50 873 l 50 909 l 414 909 l 414 873 l 297 856 l 297 54 m 722 856 l 605 873 l 605 909 l 955 909 l 955 873 l 852 856 l 852 293 q 824 134 852 202 q 740 26 796 66 q 613 -14 683 -14 q 473 7 526 -14 l 473 172 l 517 172 l 538 78 q 574 54 551 62 q 627 45 598 45 q 722 174 722 45 l 722 856 z "},"ĳ":{"ha":767,"x_min":29,"x_max":648,"o":"m 257 846 q 235 794 257 816 q 183 772 214 772 q 132 794 153 772 q 110 846 110 816 q 132 898 110 876 q 183 920 153 920 q 235 898 214 920 q 257 846 257 876 m 250 47 l 359 31 l 359 0 l 29 0 l 29 31 l 138 47 l 138 590 l 47 607 l 47 637 l 250 637 l 250 47 m 648 846 q 626 794 648 816 q 574 772 604 772 q 522 794 544 772 q 500 846 500 816 q 522 898 500 876 q 574 920 544 920 q 626 898 604 920 q 648 846 648 876 m 641 -26 q 590 -227 641 -159 q 439 -296 538 -296 q 341 -283 397 -296 l 341 -149 l 373 -149 l 391 -222 q 448 -241 414 -241 q 508 -199 488 -241 q 528 -61 528 -156 l 528 590 l 433 607 l 433 637 l 641 637 l 641 -26 z "},"Ĵ":{"ha":541,"x_min":29,"x_max":562,"o":"m 278 856 l 161 873 l 161 909 l 511 909 l 511 873 l 408 856 l 408 293 q 380 134 408 202 q 296 26 353 66 q 170 -14 239 -14 q 29 7 83 -14 l 29 172 l 74 172 l 94 78 q 131 54 107 62 q 183 45 155 45 q 278 174 278 45 l 278 856 m 122 985 l 122 1008 l 270 1193 l 414 1193 l 562 1008 l 562 985 l 524 985 l 342 1109 l 160 985 l 122 985 z "},"ĵ":{"ha":386,"x_min":-40,"x_max":413,"o":"m 260 -26 q 209 -227 260 -159 q 58 -296 157 -296 q -40 -283 16 -296 l -40 -149 l -8 -149 l 10 -222 q 66 -241 33 -241 q 127 -199 106 -241 q 147 -61 147 -156 l 147 590 l 52 607 l 52 637 l 260 637 l 260 -26 m -26 759 l -26 781 l 121 966 l 266 966 l 413 781 l 413 759 l 375 759 l 193 883 l 12 759 l -26 759 z "},"Ķ":{"ha":1003,"x_min":40,"x_max":989,"o":"m 918 909 l 918 873 l 812 856 l 502 552 l 890 54 l 989 36 l 989 0 l 766 0 l 410 460 l 288 361 l 288 54 l 418 36 l 418 0 l 40 0 l 40 36 l 157 54 l 157 856 l 40 873 l 40 909 l 404 909 l 404 873 l 288 856 l 288 427 l 723 856 l 633 873 l 633 909 l 918 909 m 596 -138 q 562 -234 596 -198 q 444 -296 528 -271 l 444 -253 q 526 -193 526 -229 q 514 -170 526 -177 q 488 -155 503 -162 q 463 -137 474 -148 q 451 -102 451 -125 q 470 -62 451 -77 q 517 -47 488 -47 q 574 -73 552 -47 q 596 -138 596 -99 z "},"ķ":{"ha":694,"x_min":26,"x_max":694,"o":"m 233 307 l 494 589 l 428 607 l 428 637 l 653 637 l 653 607 l 574 591 l 392 406 l 625 46 l 694 31 l 694 0 l 433 0 l 433 31 l 492 47 l 317 322 l 233 231 l 233 47 l 301 31 l 301 0 l 40 0 l 40 31 l 121 47 l 121 917 l 26 933 l 26 964 l 233 964 l 233 307 m 424 -138 q 390 -234 424 -198 q 272 -296 356 -271 l 272 -253 q 353 -193 353 -229 q 342 -170 353 -177 q 316 -155 330 -162 q 290 -137 302 -148 q 279 -102 279 -125 q 297 -62 279 -77 q 345 -47 316 -47 q 402 -73 380 -47 q 424 -138 424 -99 z "},"ĸ":{"ha":694,"x_min":26,"x_max":694,"o":"m 233 307 l 494 589 l 428 607 l 428 637 l 653 637 l 653 607 l 574 591 l 392 406 l 625 46 l 694 31 l 694 0 l 433 0 l 433 31 l 492 47 l 317 322 l 233 231 l 233 47 l 301 31 l 301 0 l 40 0 l 40 31 l 121 47 l 121 591 l 26 607 l 26 637 l 233 637 l 233 307 z "},"Ĺ":{"ha":848,"x_min":40,"x_max":765,"o":"m 428 873 l 288 856 l 288 58 l 467 58 q 679 72 611 58 l 721 261 l 765 261 l 753 0 l 40 0 l 40 36 l 157 54 l 157 856 l 40 873 l 40 909 l 428 909 l 428 873 m 199 985 l 199 1008 l 332 1192 l 476 1192 l 476 1167 l 236 985 l 199 985 z "},"ĺ":{"ha":386,"x_min":28,"x_max":380,"o":"m 249 47 l 358 31 l 358 0 l 28 0 l 28 31 l 136 47 l 136 917 l 28 933 l 28 964 l 249 964 l 249 47 m 102 1013 l 102 1035 l 235 1219 l 380 1219 l 380 1194 l 140 1013 l 102 1013 z "},"Ļ":{"ha":848,"x_min":40,"x_max":765,"o":"m 428 873 l 288 856 l 288 58 l 467 58 q 679 72 611 58 l 721 261 l 765 261 l 753 0 l 40 0 l 40 36 l 157 54 l 157 856 l 40 873 l 40 909 l 428 909 l 428 873 m 498 -138 q 465 -234 498 -198 q 347 -296 431 -271 l 347 -253 q 428 -193 428 -229 q 416 -170 428 -177 q 391 -155 405 -162 q 365 -137 376 -148 q 353 -102 353 -125 q 372 -62 353 -77 q 420 -47 391 -47 q 476 -73 454 -47 q 498 -138 498 -99 z "},"ļ":{"ha":386,"x_min":28,"x_max":358,"o":"m 249 47 l 358 31 l 358 0 l 28 0 l 28 31 l 136 47 l 136 917 l 28 933 l 28 964 l 249 964 l 249 47 m 265 -138 q 231 -234 265 -198 q 113 -296 197 -271 l 113 -253 q 195 -193 195 -229 q 183 -170 195 -177 q 157 -155 172 -162 q 132 -137 143 -148 q 120 -102 120 -125 q 139 -62 120 -77 q 186 -47 157 -47 q 243 -73 221 -47 q 265 -138 265 -99 z "},"Ľ":{"ha":848,"x_min":40,"x_max":765,"o":"m 428 873 l 288 856 l 288 58 l 467 58 q 679 72 611 58 l 721 261 l 765 261 l 753 0 l 40 0 l 40 36 l 157 54 l 157 856 l 40 873 l 40 909 l 428 909 l 428 873 m 736 812 q 688 692 736 739 q 529 621 640 646 l 529 663 q 602 688 574 673 q 642 718 629 702 q 654 761 654 734 q 645 781 654 772 q 623 799 635 789 q 601 822 611 808 q 591 856 591 835 q 610 896 591 882 q 658 909 629 909 q 714 883 692 909 q 736 812 736 857 z "},"ľ":{"ha":564,"x_min":48,"x_max":540,"o":"m 269 47 l 378 31 l 378 0 l 48 0 l 48 31 l 157 47 l 157 917 l 48 933 l 48 964 l 269 964 l 269 47 m 540 867 q 491 747 540 793 q 332 675 443 701 l 332 718 q 405 743 378 728 q 445 773 432 757 q 458 816 458 789 q 448 836 458 827 q 426 854 438 844 q 405 877 414 863 q 395 911 395 890 q 413 950 395 937 q 461 964 432 964 q 517 938 495 964 q 540 867 540 911 z "},"Ŀ":{"ha":848,"x_min":40,"x_max":765,"o":"m 428 873 l 288 856 l 288 58 l 467 58 q 679 72 611 58 l 721 261 l 765 261 l 753 0 l 40 0 l 40 36 l 157 54 l 157 856 l 40 873 l 40 909 l 428 909 l 428 873 m 623 497 q 602 446 623 467 q 549 424 580 424 q 498 446 519 424 q 476 497 476 467 q 498 549 476 528 q 549 571 519 571 q 602 549 580 571 q 623 497 623 528 z "},"ŀ":{"ha":477,"x_min":28,"x_max":471,"o":"m 249 47 l 358 31 l 358 0 l 28 0 l 28 31 l 136 47 l 136 917 l 28 933 l 28 964 l 249 964 l 249 47 m 471 497 q 450 446 471 467 q 397 424 428 424 q 346 446 368 424 q 324 497 324 467 q 346 549 324 528 q 397 571 368 571 q 450 549 428 571 q 471 497 471 528 z "},"Ł":{"ha":848,"x_min":29,"x_max":765,"o":"m 29 351 l 157 425 l 157 856 l 40 873 l 40 909 l 428 909 l 428 873 l 288 856 l 288 500 l 496 621 l 496 557 l 288 436 l 288 58 l 467 58 q 679 72 611 58 l 721 261 l 765 261 l 753 0 l 40 0 l 40 36 l 157 54 l 157 361 l 29 286 l 29 351 z "},"ł":{"ha":386,"x_min":14,"x_max":379,"o":"m 14 351 l 136 421 l 136 917 l 28 933 l 28 964 l 249 964 l 249 486 l 379 562 l 379 498 l 249 422 l 249 47 l 358 31 l 358 0 l 28 0 l 28 31 l 136 47 l 136 357 l 14 286 l 14 351 z "},"Ń":{"ha":1003,"x_min":40,"x_max":971,"o":"m 783 856 l 661 873 l 661 909 l 971 909 l 971 873 l 854 856 l 854 0 l 789 0 l 228 818 l 228 54 l 350 36 l 350 0 l 40 0 l 40 36 l 157 54 l 157 856 l 40 873 l 40 909 l 315 909 l 783 236 l 783 856 m 447 985 l 447 1008 l 580 1192 l 724 1192 l 724 1167 l 484 985 l 447 985 z "},"ń":{"ha":694,"x_min":32,"x_max":673,"o":"m 220 586 q 331 635 272 616 q 429 654 390 654 q 554 606 512 654 q 596 467 596 558 l 596 47 l 673 31 l 673 0 l 399 0 l 399 31 l 484 47 l 484 454 q 456 543 484 511 q 371 575 429 575 q 221 555 310 575 l 221 47 l 307 31 l 307 0 l 32 0 l 32 31 l 109 47 l 109 590 l 32 607 l 32 637 l 214 637 l 220 586 m 280 759 l 280 781 l 413 966 l 557 966 l 557 941 l 317 759 l 280 759 z "},"Ņ":{"ha":1003,"x_min":40,"x_max":971,"o":"m 783 856 l 661 873 l 661 909 l 971 909 l 971 873 l 854 856 l 854 0 l 789 0 l 228 818 l 228 54 l 350 36 l 350 0 l 40 0 l 40 36 l 157 54 l 157 856 l 40 873 l 40 909 l 315 909 l 783 236 l 783 856 m 564 -138 q 530 -234 564 -198 q 412 -296 496 -271 l 412 -253 q 494 -193 494 -229 q 482 -170 494 -177 q 456 -155 471 -162 q 431 -137 442 -148 q 419 -102 419 -125 q 438 -62 419 -77 q 486 -47 456 -47 q 542 -73 520 -47 q 564 -138 564 -99 z "},"ņ":{"ha":694,"x_min":32,"x_max":673,"o":"m 220 586 q 331 635 272 616 q 429 654 390 654 q 554 606 512 654 q 596 467 596 558 l 596 47 l 673 31 l 673 0 l 399 0 l 399 31 l 484 47 l 484 454 q 456 543 484 511 q 371 575 429 575 q 221 555 310 575 l 221 47 l 307 31 l 307 0 l 32 0 l 32 31 l 109 47 l 109 590 l 32 607 l 32 637 l 214 637 l 220 586 m 416 -138 q 382 -234 416 -198 q 264 -296 349 -271 l 264 -253 q 346 -193 346 -229 q 334 -170 346 -177 q 309 -155 323 -162 q 283 -137 294 -148 q 271 -102 271 -125 q 290 -62 271 -77 q 338 -47 309 -47 q 394 -73 372 -47 q 416 -138 416 -99 z "},"Ň":{"ha":1003,"x_min":40,"x_max":971,"o":"m 783 856 l 661 873 l 661 909 l 971 909 l 971 873 l 854 856 l 854 0 l 789 0 l 228 818 l 228 54 l 350 36 l 350 0 l 40 0 l 40 36 l 157 54 l 157 856 l 40 873 l 40 909 l 315 909 l 783 236 l 783 856 m 319 1193 l 501 1069 l 683 1193 l 721 1193 l 721 1171 l 574 985 l 429 985 l 281 1171 l 281 1193 l 319 1193 z "},"ň":{"ha":694,"x_min":32,"x_max":673,"o":"m 220 586 q 331 635 272 616 q 429 654 390 654 q 554 606 512 654 q 596 467 596 558 l 596 47 l 673 31 l 673 0 l 399 0 l 399 31 l 484 47 l 484 454 q 456 543 484 511 q 371 575 429 575 q 221 555 310 575 l 221 47 l 307 31 l 307 0 l 32 0 l 32 31 l 109 47 l 109 590 l 32 607 l 32 637 l 214 637 l 220 586 m 167 966 l 349 842 l 530 966 l 568 966 l 568 944 l 421 759 l 277 759 l 129 944 l 129 966 l 167 966 z "},"ŉ":{"ha":839,"x_min":1,"x_max":815,"o":"m 361 586 q 473 635 414 616 q 571 654 532 654 q 696 606 654 654 q 738 467 738 558 l 738 47 l 815 31 l 815 0 l 541 0 l 541 31 l 625 47 l 625 454 q 598 543 625 511 q 513 575 570 575 q 363 555 452 575 l 363 47 l 449 31 l 449 0 l 174 0 l 174 31 l 250 47 l 250 590 l 174 607 l 174 637 l 355 637 l 361 586 m 208 854 q 154 698 208 761 q 1 607 100 635 l 1 659 q 121 773 121 697 q 111 798 121 787 q 75 821 100 808 q 29 888 29 845 q 52 944 29 925 q 111 964 75 964 q 180 934 153 964 q 208 854 208 905 z "},"Ŋ":{"ha":975,"x_min":40,"x_max":869,"o":"m 739 644 q 699 787 739 739 q 568 835 659 835 q 437 814 509 835 q 288 755 364 794 l 288 54 l 404 36 l 404 0 l 40 0 l 40 36 l 157 54 l 157 856 l 40 873 l 40 909 l 286 909 l 288 814 q 458 888 367 859 q 619 916 549 916 q 809 854 750 916 q 869 650 869 791 l 869 293 q 841 134 869 202 q 756 26 813 66 q 630 -14 700 -14 q 490 7 543 -14 l 490 172 l 534 172 l 555 78 q 591 54 568 62 q 644 45 615 45 q 739 174 739 45 l 739 644 z "},"ŋ":{"ha":687,"x_min":32,"x_max":565,"o":"m 565 -26 q 514 -227 565 -159 q 363 -296 463 -296 q 265 -283 321 -296 l 265 -149 l 297 -149 l 315 -222 q 372 -241 338 -241 q 432 -199 412 -241 q 452 -61 452 -156 l 452 454 q 354 575 452 575 q 221 555 300 575 l 221 47 l 307 31 l 307 0 l 32 0 l 32 31 l 109 47 l 109 590 l 32 607 l 32 637 l 214 637 l 220 586 q 319 634 264 614 q 413 654 374 654 q 526 607 488 654 q 565 467 565 559 l 565 -26 z "},"Ō":{"ha":1003,"x_min":57,"x_max":946,"o":"m 199 456 q 272 138 199 237 q 501 40 345 40 q 730 138 656 40 q 804 456 804 237 q 731 769 804 673 q 501 865 657 865 q 272 769 345 865 q 199 456 199 673 m 57 456 q 501 920 57 920 q 833 802 721 920 q 946 456 946 684 q 832 105 946 224 q 501 -14 718 -14 q 171 105 285 -14 q 57 456 57 223 m 288 1000 l 288 1074 l 714 1074 l 714 1000 l 288 1000 z "},"ō":{"ha":694,"x_min":53,"x_max":642,"o":"m 642 322 q 343 -14 642 -14 q 126 73 199 -14 q 53 322 53 159 q 126 569 53 484 q 349 654 199 654 q 568 571 494 654 q 642 322 642 487 m 519 322 q 477 534 519 469 q 343 600 434 600 q 215 537 254 600 q 175 322 175 474 q 215 104 175 168 q 343 40 256 40 q 476 106 433 40 q 519 322 519 173 m 134 774 l 134 848 l 560 848 l 560 774 l 134 774 z "},"Ŏ":{"ha":1003,"x_min":57,"x_max":946,"o":"m 199 456 q 272 138 199 237 q 501 40 345 40 q 730 138 656 40 q 804 456 804 237 q 731 769 804 673 q 501 865 657 865 q 272 769 345 865 q 199 456 199 673 m 57 456 q 501 920 57 920 q 833 802 721 920 q 946 456 946 684 q 832 105 946 224 q 501 -14 718 -14 q 171 105 285 -14 q 57 456 57 223 m 501 985 q 359 1037 410 985 q 307 1175 309 1089 l 357 1175 q 406 1105 368 1130 q 501 1081 444 1081 q 596 1105 558 1081 q 646 1175 634 1130 l 696 1175 q 642 1036 692 1086 q 501 985 591 985 z "},"ŏ":{"ha":694,"x_min":53,"x_max":642,"o":"m 642 322 q 343 -14 642 -14 q 126 73 199 -14 q 53 322 53 159 q 126 569 53 484 q 349 654 199 654 q 568 571 494 654 q 642 322 642 487 m 519 322 q 477 534 519 469 q 343 600 434 600 q 215 537 254 600 q 175 322 175 474 q 215 104 175 168 q 343 40 256 40 q 476 106 433 40 q 519 322 519 173 m 347 759 q 205 811 256 759 q 153 949 155 863 l 203 949 q 252 879 214 903 q 347 854 290 854 q 442 879 404 854 q 492 949 480 903 l 542 949 q 488 809 538 860 q 347 759 437 759 z "},"Ő":{"ha":1003,"x_min":57,"x_max":946,"o":"m 199 456 q 272 138 199 237 q 501 40 345 40 q 730 138 656 40 q 804 456 804 237 q 731 769 804 673 q 501 865 657 865 q 272 769 345 865 q 199 456 199 673 m 57 456 q 501 920 57 920 q 833 802 721 920 q 946 456 946 684 q 832 105 946 224 q 501 -14 718 -14 q 171 105 285 -14 q 57 456 57 223 m 315 985 l 315 1008 l 421 1192 l 551 1192 l 551 1167 l 353 985 l 315 985 m 553 985 l 553 1008 l 659 1192 l 789 1192 l 789 1167 l 591 985 l 553 985 z "},"ő":{"ha":694,"x_min":53,"x_max":642,"o":"m 642 322 q 343 -14 642 -14 q 126 73 199 -14 q 53 322 53 159 q 126 569 53 484 q 349 654 199 654 q 568 571 494 654 q 642 322 642 487 m 519 322 q 477 534 519 469 q 343 600 434 600 q 215 537 254 600 q 175 322 175 474 q 215 104 175 168 q 343 40 256 40 q 476 106 433 40 q 519 322 519 173 m 160 759 l 160 781 l 266 966 l 396 966 l 396 941 l 197 759 l 160 759 m 397 759 l 397 781 l 503 966 l 633 966 l 633 941 l 435 759 l 397 759 z "},"Œ":{"ha":1235,"x_min":57,"x_max":1165,"o":"m 689 0 l 501 -4 q 169 112 281 -4 q 57 456 57 227 q 167 800 57 686 q 501 914 277 914 l 686 909 l 1108 909 l 1108 692 l 1064 692 l 1042 839 q 822 848 966 848 l 729 848 l 729 493 l 920 493 l 940 602 l 983 602 l 983 322 l 940 322 l 920 432 l 729 432 l 729 61 l 852 61 q 1082 72 1027 61 l 1121 240 l 1165 240 l 1153 0 l 689 0 m 501 50 q 597 57 554 50 l 597 852 q 501 860 564 860 q 272 766 345 860 q 199 456 199 672 q 272 144 199 239 q 501 50 345 50 z "},"œ":{"ha":1003,"x_min":53,"x_max":954,"o":"m 586 321 l 586 309 q 632 115 586 173 q 771 57 678 57 q 853 63 806 57 q 929 77 900 69 l 929 39 q 843 2 897 17 q 736 -14 789 -14 q 522 75 588 -14 q 315 -14 455 -14 q 119 72 184 -14 q 53 322 53 158 q 119 569 53 484 q 321 654 185 654 q 524 562 456 654 q 721 654 588 654 q 954 376 954 654 l 954 321 l 586 321 m 315 600 q 208 537 241 600 q 175 322 175 473 q 208 105 175 170 q 315 40 241 40 q 428 108 392 40 q 464 322 464 176 l 464 340 q 425 541 460 481 q 315 600 389 600 m 721 600 q 622 543 656 600 q 587 375 587 486 l 836 375 q 808 547 836 494 q 721 600 780 600 z "},"Ŕ":{"ha":926,"x_min":40,"x_max":924,"o":"m 288 399 l 288 54 l 425 36 l 425 0 l 49 0 l 49 36 l 157 54 l 157 856 l 40 873 l 40 909 l 433 909 q 685 852 604 909 q 766 667 766 794 q 717 510 766 576 q 580 418 667 444 l 826 54 l 924 36 l 924 0 l 707 0 l 451 399 l 288 399 m 631 657 q 581 805 631 761 q 404 848 530 848 l 288 848 l 288 460 l 408 460 q 580 505 529 460 q 631 657 631 550 m 363 985 l 363 1008 l 496 1192 l 641 1192 l 641 1167 l 401 985 l 363 985 z "},"ŕ":{"ha":463,"x_min":28,"x_max":460,"o":"m 450 654 l 450 482 l 421 482 l 382 557 q 301 548 348 557 q 221 524 255 538 l 221 47 l 330 31 l 330 0 l 28 0 l 28 31 l 109 47 l 109 590 l 28 607 l 28 637 l 214 637 l 220 558 q 330 623 260 592 q 440 654 399 654 l 450 654 m 182 759 l 182 781 l 315 966 l 460 966 l 460 941 l 220 759 l 182 759 z "},"Ŗ":{"ha":926,"x_min":40,"x_max":924,"o":"m 288 399 l 288 54 l 425 36 l 425 0 l 49 0 l 49 36 l 157 54 l 157 856 l 40 873 l 40 909 l 433 909 q 685 852 604 909 q 766 667 766 794 q 717 510 766 576 q 580 418 667 444 l 826 54 l 924 36 l 924 0 l 707 0 l 451 399 l 288 399 m 631 657 q 581 805 631 761 q 404 848 530 848 l 288 848 l 288 460 l 408 460 q 580 505 529 460 q 631 657 631 550 m 559 -138 q 525 -234 559 -198 q 407 -296 491 -271 l 407 -253 q 488 -193 488 -229 q 477 -170 488 -177 q 451 -155 465 -162 q 425 -137 437 -148 q 414 -102 414 -125 q 432 -62 414 -77 q 480 -47 451 -47 q 537 -73 515 -47 q 559 -138 559 -99 z "},"ŗ":{"ha":463,"x_min":28,"x_max":450,"o":"m 450 654 l 450 482 l 421 482 l 382 557 q 301 548 348 557 q 221 524 255 538 l 221 47 l 330 31 l 330 0 l 28 0 l 28 31 l 109 47 l 109 590 l 28 607 l 28 637 l 214 637 l 220 558 q 330 623 260 592 q 440 654 399 654 l 450 654 m 238 -138 q 204 -234 238 -198 q 86 -296 170 -271 l 86 -253 q 168 -193 168 -229 q 156 -170 168 -177 q 130 -155 144 -162 q 104 -137 116 -148 q 93 -102 93 -125 q 112 -62 93 -77 q 159 -47 130 -47 q 216 -73 194 -47 q 238 -138 238 -99 z "},"Ř":{"ha":926,"x_min":40,"x_max":924,"o":"m 288 399 l 288 54 l 425 36 l 425 0 l 49 0 l 49 36 l 157 54 l 157 856 l 40 873 l 40 909 l 433 909 q 685 852 604 909 q 766 667 766 794 q 717 510 766 576 q 580 418 667 444 l 826 54 l 924 36 l 924 0 l 707 0 l 451 399 l 288 399 m 631 657 q 581 805 631 761 q 404 848 530 848 l 288 848 l 288 460 l 408 460 q 580 505 529 460 q 631 657 631 550 m 248 1193 l 429 1069 l 611 1193 l 649 1193 l 649 1171 l 502 985 l 357 985 l 210 1171 l 210 1193 l 248 1193 z "},"ř":{"ha":463,"x_min":12,"x_max":452,"o":"m 450 654 l 450 482 l 421 482 l 382 557 q 301 548 348 557 q 221 524 255 538 l 221 47 l 330 31 l 330 0 l 28 0 l 28 31 l 109 47 l 109 590 l 28 607 l 28 637 l 214 637 l 220 558 q 330 623 260 592 q 440 654 399 654 l 450 654 m 50 966 l 232 842 l 414 966 l 452 966 l 452 944 l 304 759 l 160 759 l 12 944 l 12 966 l 50 966 z "},"Ś":{"ha":772,"x_min":93,"x_max":686,"o":"m 94 245 l 138 245 l 162 122 q 249 66 187 90 q 370 41 310 41 q 518 90 465 41 q 571 224 571 138 q 550 304 571 273 q 496 358 530 336 q 420 396 463 380 q 332 427 377 411 q 244 461 287 442 q 168 509 201 480 q 114 582 134 538 q 93 688 93 625 q 174 858 93 796 q 400 920 256 920 q 639 890 510 920 l 639 701 l 595 701 l 571 812 q 400 863 502 863 q 258 826 309 863 q 207 724 207 789 q 228 650 207 680 q 282 601 248 621 q 358 565 315 580 q 447 534 401 550 q 535 498 492 518 q 611 447 578 478 q 666 372 645 416 q 686 262 686 328 q 606 59 686 131 q 373 -14 525 -14 q 226 -1 300 -14 q 94 35 152 12 l 94 245 m 330 985 l 330 1008 l 463 1192 l 607 1192 l 607 1167 l 367 985 l 330 985 z "},"ś":{"ha":541,"x_min":57,"x_max":490,"o":"m 490 179 q 430 35 490 84 q 253 -14 370 -14 q 148 -4 205 -14 q 58 18 91 6 l 58 175 l 89 175 l 122 86 q 254 40 173 40 q 386 153 386 40 q 282 271 386 235 l 222 290 q 122 336 153 313 q 74 392 91 359 q 57 473 57 426 q 114 606 57 557 q 269 654 172 654 q 444 633 339 654 l 444 494 l 412 494 l 384 568 q 271 600 348 600 q 187 573 216 600 q 158 500 158 546 q 184 435 158 461 q 263 391 210 408 q 393 341 363 357 q 445 303 424 326 q 478 251 467 280 q 490 179 490 222 m 204 759 l 204 781 l 337 966 l 481 966 l 481 941 l 241 759 l 204 759 z "},"Ŝ":{"ha":772,"x_min":93,"x_max":686,"o":"m 94 245 l 138 245 l 162 122 q 249 66 187 90 q 370 41 310 41 q 518 90 465 41 q 571 224 571 138 q 550 304 571 273 q 496 358 530 336 q 420 396 463 380 q 332 427 377 411 q 244 461 287 442 q 168 509 201 480 q 114 582 134 538 q 93 688 93 625 q 174 858 93 796 q 400 920 256 920 q 639 890 510 920 l 639 701 l 595 701 l 571 812 q 400 863 502 863 q 258 826 309 863 q 207 724 207 789 q 228 650 207 680 q 282 601 248 621 q 358 565 315 580 q 447 534 401 550 q 535 498 492 518 q 611 447 578 478 q 666 372 645 416 q 686 262 686 328 q 606 59 686 131 q 373 -14 525 -14 q 226 -1 300 -14 q 94 35 152 12 l 94 245 m 166 985 l 166 1008 l 314 1193 l 458 1193 l 606 1008 l 606 985 l 568 985 l 386 1109 l 204 985 l 166 985 z "},"ŝ":{"ha":541,"x_min":50,"x_max":490,"o":"m 490 179 q 430 35 490 84 q 253 -14 370 -14 q 148 -4 205 -14 q 58 18 91 6 l 58 175 l 89 175 l 122 86 q 254 40 173 40 q 386 153 386 40 q 282 271 386 235 l 222 290 q 122 336 153 313 q 74 392 91 359 q 57 473 57 426 q 114 606 57 557 q 269 654 172 654 q 444 633 339 654 l 444 494 l 412 494 l 384 568 q 271 600 348 600 q 187 573 216 600 q 158 500 158 546 q 184 435 158 461 q 263 391 210 408 q 393 341 363 357 q 445 303 424 326 q 478 251 467 280 q 490 179 490 222 m 50 759 l 50 781 l 198 966 l 342 966 l 490 781 l 490 759 l 452 759 l 270 883 l 88 759 l 50 759 z "},"Ş":{"ha":772,"x_min":93,"x_max":686,"o":"m 94 245 l 138 245 l 162 122 q 249 66 187 90 q 370 41 310 41 q 518 90 465 41 q 571 224 571 138 q 550 304 571 273 q 496 358 530 336 q 420 396 463 380 q 332 427 377 411 q 244 461 287 442 q 168 509 201 480 q 114 582 134 538 q 93 688 93 625 q 174 858 93 796 q 400 920 256 920 q 639 890 510 920 l 639 701 l 595 701 l 571 812 q 400 863 502 863 q 258 826 309 863 q 207 724 207 789 q 228 650 207 680 q 282 601 248 621 q 358 565 315 580 q 447 534 401 550 q 535 498 492 518 q 611 447 578 478 q 666 372 645 416 q 686 262 686 328 q 606 59 686 131 q 373 -14 525 -14 q 226 -1 300 -14 q 94 35 152 12 l 94 245 m 507 -159 q 460 -258 507 -221 q 340 -296 413 -296 q 246 -281 288 -296 l 246 -231 q 287 -238 261 -235 q 328 -241 313 -241 q 387 -221 368 -241 q 405 -171 405 -201 q 378 -117 405 -138 q 302 -92 351 -96 l 330 12 l 388 12 l 376 -43 q 472 -79 437 -50 q 507 -159 507 -109 z "},"ş":{"ha":541,"x_min":57,"x_max":490,"o":"m 490 179 q 430 35 490 84 q 253 -14 370 -14 q 148 -4 205 -14 q 58 18 91 6 l 58 175 l 89 175 l 122 86 q 254 40 173 40 q 386 153 386 40 q 282 271 386 235 l 222 290 q 122 336 153 313 q 74 392 91 359 q 57 473 57 426 q 114 606 57 557 q 269 654 172 654 q 444 633 339 654 l 444 494 l 412 494 l 384 568 q 271 600 348 600 q 187 573 216 600 q 158 500 158 546 q 184 435 158 461 q 263 391 210 408 q 393 341 363 357 q 445 303 424 326 q 478 251 467 280 q 490 179 490 222 m 378 -159 q 331 -258 378 -221 q 211 -296 284 -296 q 117 -281 159 -296 l 117 -231 q 158 -238 132 -235 q 199 -241 184 -241 q 258 -221 239 -241 q 276 -171 276 -201 q 249 -117 276 -138 q 173 -92 222 -96 l 201 12 l 259 12 l 247 -43 q 343 -79 309 -50 q 378 -159 378 -109 z "},"Š":{"ha":772,"x_min":93,"x_max":686,"o":"m 94 245 l 138 245 l 162 122 q 249 66 187 90 q 370 41 310 41 q 518 90 465 41 q 571 224 571 138 q 550 304 571 273 q 496 358 530 336 q 420 396 463 380 q 332 427 377 411 q 244 461 287 442 q 168 509 201 480 q 114 582 134 538 q 93 688 93 625 q 174 858 93 796 q 400 920 256 920 q 639 890 510 920 l 639 701 l 595 701 l 571 812 q 400 863 502 863 q 258 826 309 863 q 207 724 207 789 q 228 650 207 680 q 282 601 248 621 q 358 565 315 580 q 447 534 401 550 q 535 498 492 518 q 611 447 578 478 q 666 372 645 416 q 686 262 686 328 q 606 59 686 131 q 373 -14 525 -14 q 226 -1 300 -14 q 94 35 152 12 l 94 245 m 224 1193 l 406 1069 l 588 1193 l 626 1193 l 626 1171 l 479 985 l 334 985 l 186 1171 l 186 1193 l 224 1193 z "},"š":{"ha":541,"x_min":57,"x_max":502,"o":"m 490 179 q 430 35 490 84 q 253 -14 370 -14 q 148 -4 205 -14 q 58 18 91 6 l 58 175 l 89 175 l 122 86 q 254 40 173 40 q 386 153 386 40 q 282 271 386 235 l 222 290 q 122 336 153 313 q 74 392 91 359 q 57 473 57 426 q 114 606 57 557 q 269 654 172 654 q 444 633 339 654 l 444 494 l 412 494 l 384 568 q 271 600 348 600 q 187 573 216 600 q 158 500 158 546 q 184 435 158 461 q 263 391 210 408 q 393 341 363 357 q 445 303 424 326 q 478 251 467 280 q 490 179 490 222 m 100 966 l 282 842 l 464 966 l 502 966 l 502 944 l 355 759 l 210 759 l 62 944 l 62 966 l 100 966 z "},"Ţ":{"ha":848,"x_min":25,"x_max":825,"o":"m 214 0 l 214 36 l 358 54 l 358 851 l 323 851 q 89 838 152 851 l 71 696 l 25 696 l 25 909 l 825 909 l 825 696 l 779 696 l 761 838 q 672 846 741 842 q 522 850 604 850 l 489 850 l 489 54 l 633 36 l 633 0 l 214 0 m 540 -159 q 493 -258 540 -221 q 372 -296 446 -296 q 279 -281 321 -296 l 279 -231 q 319 -238 294 -235 q 360 -241 345 -241 q 419 -221 401 -241 q 437 -171 437 -201 q 410 -117 437 -138 q 334 -92 383 -96 l 362 12 l 420 12 l 408 -43 q 505 -79 470 -50 q 540 -159 540 -109 z "},"ţ":{"ha":386,"x_min":14,"x_max":378,"o":"m 227 -14 q 129 25 161 -14 q 97 134 97 64 l 97 581 l 14 581 l 14 611 l 98 637 l 167 782 l 210 782 l 210 637 l 355 637 l 355 581 l 210 581 l 210 146 q 230 79 210 102 q 282 57 250 57 q 378 68 321 57 l 378 24 q 309 -3 354 7 q 227 -14 264 -14 m 361 -159 q 314 -258 361 -221 q 193 -296 267 -296 q 100 -281 142 -296 l 100 -231 q 140 -238 115 -235 q 181 -241 166 -241 q 240 -221 222 -241 q 258 -171 258 -201 q 231 -117 258 -138 q 155 -92 204 -96 l 183 12 l 241 12 l 229 -43 q 326 -79 291 -50 q 361 -159 361 -109 z "},"Ť":{"ha":848,"x_min":25,"x_max":825,"o":"m 214 0 l 214 36 l 358 54 l 358 851 l 323 851 q 89 838 152 851 l 71 696 l 25 696 l 25 909 l 825 909 l 825 696 l 779 696 l 761 838 q 672 846 741 842 q 522 850 604 850 l 489 850 l 489 54 l 633 36 l 633 0 l 214 0 m 242 1193 l 424 1069 l 606 1193 l 644 1193 l 644 1171 l 496 985 l 352 985 l 204 1171 l 204 1193 l 242 1193 z "},"ť":{"ha":593,"x_min":14,"x_max":569,"o":"m 227 -14 q 129 25 161 -14 q 97 134 97 64 l 97 581 l 14 581 l 14 611 l 98 637 l 167 782 l 210 782 l 210 637 l 355 637 l 355 581 l 210 581 l 210 146 q 230 79 210 102 q 282 57 250 57 q 378 68 321 57 l 378 24 q 309 -3 354 7 q 227 -14 264 -14 m 569 884 q 520 764 569 810 q 361 692 472 718 l 361 735 q 434 760 407 745 q 474 790 461 774 q 487 833 487 806 q 477 853 487 844 q 455 871 467 861 q 434 893 444 880 q 424 928 424 907 q 443 967 424 954 q 490 981 461 981 q 547 955 524 981 q 569 884 569 928 z "},"Ŧ":{"ha":848,"x_min":25,"x_max":825,"o":"m 214 0 l 214 36 l 358 54 l 358 427 l 140 427 l 140 482 l 358 482 l 358 851 l 323 851 q 89 838 152 851 l 71 696 l 25 696 l 25 909 l 825 909 l 825 696 l 779 696 l 761 838 q 672 846 741 842 q 522 850 604 850 l 489 850 l 489 482 l 709 482 l 709 427 l 489 427 l 489 54 l 633 36 l 633 0 l 214 0 z "},"ŧ":{"ha":386,"x_min":14,"x_max":378,"o":"m 227 -14 q 129 25 161 -14 q 97 134 97 64 l 97 337 l 16 337 l 16 394 l 97 394 l 97 581 l 14 581 l 14 611 l 98 637 l 167 782 l 210 782 l 210 637 l 355 637 l 355 581 l 210 581 l 210 394 l 349 394 l 349 337 l 210 337 l 210 146 q 230 79 210 102 q 282 57 250 57 q 378 68 321 57 l 378 24 q 309 -3 354 7 q 227 -14 264 -14 z "},"Ũ":{"ha":1003,"x_min":29,"x_max":974,"o":"m 786 856 l 664 873 l 664 909 l 974 909 l 974 873 l 857 856 l 857 313 q 767 68 857 149 q 507 -14 677 -14 q 236 68 326 -14 q 146 300 146 150 l 146 856 l 29 873 l 29 909 l 393 909 l 393 873 l 276 856 l 276 310 q 517 62 276 62 q 716 124 647 62 q 786 307 786 186 l 786 856 m 614 985 q 554 999 581 985 q 502 1032 526 1014 q 455 1064 477 1050 q 410 1079 432 1079 q 375 1071 388 1079 q 354 1047 361 1063 q 342 998 347 1032 l 307 998 q 439 1162 317 1162 q 499 1148 471 1162 q 551 1115 526 1133 q 598 1083 576 1097 q 643 1068 621 1068 q 688 1085 672 1068 q 711 1148 705 1102 l 746 1148 q 614 985 736 985 z "},"ũ":{"ha":694,"x_min":18,"x_max":671,"o":"m 212 182 q 321 65 212 65 q 478 86 405 65 l 478 590 l 382 607 l 382 637 l 590 637 l 590 47 l 671 31 l 671 0 l 485 0 l 479 52 q 368 6 431 25 q 262 -14 305 -14 q 100 174 100 -14 l 100 590 l 18 607 l 18 637 l 212 637 l 212 182 m 435 758 q 375 773 402 758 q 323 805 347 787 q 276 838 298 823 q 231 852 253 852 q 196 844 209 852 q 175 821 182 836 q 163 772 168 806 l 127 772 q 260 936 138 936 q 320 921 292 936 q 372 889 347 907 q 419 856 397 871 q 464 842 442 842 q 509 859 493 842 q 532 922 526 876 l 567 922 q 435 758 557 758 z "},"Ū":{"ha":1003,"x_min":29,"x_max":974,"o":"m 786 856 l 664 873 l 664 909 l 974 909 l 974 873 l 857 856 l 857 313 q 767 68 857 149 q 507 -14 677 -14 q 236 68 326 -14 q 146 300 146 150 l 146 856 l 29 873 l 29 909 l 393 909 l 393 873 l 276 856 l 276 310 q 517 62 276 62 q 716 124 647 62 q 786 307 786 186 l 786 856 m 309 1000 l 309 1074 l 734 1074 l 734 1000 l 309 1000 z "},"ū":{"ha":694,"x_min":18,"x_max":671,"o":"m 212 182 q 321 65 212 65 q 478 86 405 65 l 478 590 l 382 607 l 382 637 l 590 637 l 590 47 l 671 31 l 671 0 l 485 0 l 479 52 q 368 6 431 25 q 262 -14 305 -14 q 100 174 100 -14 l 100 590 l 18 607 l 18 637 l 212 637 l 212 182 m 134 774 l 134 848 l 560 848 l 560 774 l 134 774 z "},"Ŭ":{"ha":1003,"x_min":29,"x_max":974,"o":"m 786 856 l 664 873 l 664 909 l 974 909 l 974 873 l 857 856 l 857 313 q 767 68 857 149 q 507 -14 677 -14 q 236 68 326 -14 q 146 300 146 150 l 146 856 l 29 873 l 29 909 l 393 909 l 393 873 l 276 856 l 276 310 q 517 62 276 62 q 716 124 647 62 q 786 307 786 186 l 786 856 m 530 985 q 389 1037 439 985 q 336 1175 338 1089 l 386 1175 q 435 1105 397 1130 q 530 1081 473 1081 q 625 1105 587 1081 q 675 1175 663 1130 l 725 1175 q 671 1036 722 1086 q 530 985 620 985 z "},"ŭ":{"ha":694,"x_min":18,"x_max":671,"o":"m 212 182 q 321 65 212 65 q 478 86 405 65 l 478 590 l 382 607 l 382 637 l 590 637 l 590 47 l 671 31 l 671 0 l 485 0 l 479 52 q 368 6 431 25 q 262 -14 305 -14 q 100 174 100 -14 l 100 590 l 18 607 l 18 637 l 212 637 l 212 182 m 347 759 q 205 811 256 759 q 153 949 155 863 l 203 949 q 252 879 214 903 q 347 854 290 854 q 442 879 404 854 q 492 949 480 903 l 542 949 q 488 809 538 860 q 347 759 437 759 z "},"Ů":{"ha":1003,"x_min":29,"x_max":974,"o":"m 786 856 l 664 873 l 664 909 l 974 909 l 974 873 l 857 856 l 857 313 q 767 68 857 149 q 507 -14 677 -14 q 236 68 326 -14 q 146 300 146 150 l 146 856 l 29 873 l 29 909 l 393 909 l 393 873 l 276 856 l 276 310 q 517 62 276 62 q 716 124 647 62 q 786 307 786 186 l 786 856 m 671 1095 q 630 997 671 1038 q 533 957 590 957 q 436 997 476 957 q 395 1095 395 1038 q 436 1192 395 1152 q 533 1232 476 1232 q 630 1192 590 1232 q 671 1095 671 1152 m 616 1095 q 592 1154 616 1129 q 533 1178 568 1178 q 474 1154 498 1178 q 450 1095 450 1129 q 475 1035 450 1059 q 533 1011 500 1011 q 591 1035 566 1011 q 616 1095 616 1059 z "},"ů":{"ha":694,"x_min":18,"x_max":671,"o":"m 212 182 q 321 65 212 65 q 478 86 405 65 l 478 590 l 382 607 l 382 637 l 590 637 l 590 47 l 671 31 l 671 0 l 485 0 l 479 52 q 368 6 431 25 q 262 -14 305 -14 q 100 174 100 -14 l 100 590 l 18 607 l 18 637 l 212 637 l 212 182 m 485 868 q 445 771 485 811 q 347 730 404 730 q 250 771 290 730 q 210 868 210 811 q 250 965 210 925 q 347 1006 290 1006 q 445 965 404 1006 q 485 868 485 925 m 431 868 q 406 927 431 903 q 347 951 382 951 q 288 927 313 951 q 264 868 264 903 q 289 809 264 833 q 347 785 314 785 q 405 808 380 785 q 431 868 431 832 z "},"Ű":{"ha":1003,"x_min":29,"x_max":974,"o":"m 786 856 l 664 873 l 664 909 l 974 909 l 974 873 l 857 856 l 857 313 q 767 68 857 149 q 507 -14 677 -14 q 236 68 326 -14 q 146 300 146 150 l 146 856 l 29 873 l 29 909 l 393 909 l 393 873 l 276 856 l 276 310 q 517 62 276 62 q 716 124 647 62 q 786 307 786 186 l 786 856 m 345 985 l 345 1008 l 450 1192 l 581 1192 l 581 1167 l 382 985 l 345 985 m 582 985 l 582 1008 l 688 1192 l 818 1192 l 818 1167 l 620 985 l 582 985 z "},"ű":{"ha":694,"x_min":18,"x_max":671,"o":"m 212 182 q 321 65 212 65 q 478 86 405 65 l 478 590 l 382 607 l 382 637 l 590 637 l 590 47 l 671 31 l 671 0 l 485 0 l 479 52 q 368 6 431 25 q 262 -14 305 -14 q 100 174 100 -14 l 100 590 l 18 607 l 18 637 l 212 637 l 212 182 m 154 759 l 154 781 l 260 966 l 390 966 l 390 941 l 191 759 l 154 759 m 391 759 l 391 781 l 497 966 l 627 966 l 627 941 l 429 759 l 391 759 z "},"Ų":{"ha":1003,"x_min":29,"x_max":974,"o":"m 786 856 l 664 873 l 664 909 l 974 909 l 974 873 l 857 856 l 857 313 q 767 68 857 149 q 507 -14 677 -14 q 236 68 326 -14 q 146 300 146 150 l 146 856 l 29 873 l 29 909 l 393 909 l 393 873 l 276 856 l 276 310 q 517 62 276 62 q 716 124 647 62 q 786 307 786 186 l 786 856 m 620 -277 q 504 -238 545 -277 q 463 -130 463 -199 q 479 -58 463 -94 q 524 7 495 -22 l 598 7 q 572 -50 583 -15 q 562 -113 562 -85 q 586 -190 562 -163 q 655 -217 610 -217 q 734 -202 696 -217 l 734 -245 q 620 -277 688 -277 z "},"ų":{"ha":694,"x_min":18,"x_max":695,"o":"m 212 182 q 321 65 212 65 q 478 86 405 65 l 478 590 l 382 607 l 382 637 l 590 637 l 590 47 l 671 31 l 671 0 l 485 0 l 479 52 q 368 6 431 25 q 262 -14 305 -14 q 100 174 100 -14 l 100 590 l 18 607 l 18 637 l 212 637 l 212 182 m 581 -273 q 465 -234 506 -273 q 425 -126 425 -195 q 440 -55 425 -90 q 486 11 456 -19 l 559 11 q 533 -47 544 -12 q 523 -110 523 -82 q 547 -187 523 -160 q 616 -214 571 -214 q 695 -199 657 -214 l 695 -242 q 581 -273 649 -273 z "},"Ŵ":{"ha":1311,"x_min":1,"x_max":1308,"o":"m 932 -21 l 896 -21 l 660 606 l 418 -21 l 382 -21 l 81 856 l 1 873 l 1 909 l 349 909 l 349 873 l 215 856 l 431 215 l 676 846 l 707 846 l 943 215 l 1149 856 l 1007 873 l 1007 909 l 1308 909 l 1308 873 l 1229 856 l 932 -21 m 460 985 l 460 1008 l 608 1193 l 752 1193 l 899 1008 l 899 985 l 861 985 l 680 1109 l 498 985 l 460 985 z "},"ŵ":{"ha":1003,"x_min":1,"x_max":997,"o":"m 713 -14 l 660 -14 l 503 407 l 347 -14 l 297 -14 l 77 590 l 1 607 l 1 637 l 304 637 l 304 607 l 199 589 l 350 158 l 504 574 l 561 574 l 714 155 l 859 590 l 754 607 l 754 637 l 997 637 l 997 607 l 926 593 l 713 -14 m 302 759 l 302 781 l 450 966 l 595 966 l 742 781 l 742 759 l 704 759 l 522 883 l 340 759 l 302 759 z "},"Ŷ":{"ha":1003,"x_min":16,"x_max":968,"o":"m 568 358 l 568 54 l 713 36 l 713 0 l 293 0 l 293 36 l 437 54 l 437 354 l 118 856 l 16 873 l 16 909 l 400 909 l 400 873 l 278 856 l 539 436 l 787 856 l 672 873 l 672 909 l 968 909 l 968 873 l 868 856 l 568 358 m 281 985 l 281 1008 l 429 1193 l 574 1193 l 721 1008 l 721 985 l 683 985 l 501 1109 l 319 985 l 281 985 z "},"ŷ":{"ha":694,"x_min":17,"x_max":689,"o":"m 135 -300 q 31 -288 82 -300 l 31 -150 l 62 -150 l 85 -215 q 143 -231 106 -231 q 208 -210 178 -231 q 263 -150 238 -190 q 325 -7 288 -110 l 82 590 l 17 607 l 17 637 l 313 637 l 313 607 l 212 589 l 385 143 l 551 590 l 452 607 l 452 637 l 689 637 l 689 607 l 623 593 l 374 -40 q 297 -201 330 -152 q 225 -275 264 -250 q 135 -300 186 -300 m 143 759 l 143 781 l 291 966 l 435 966 l 583 781 l 583 759 l 545 759 l 363 883 l 181 759 l 143 759 z "},"Ÿ":{"ha":1003,"x_min":16,"x_max":968,"o":"m 568 358 l 568 54 l 713 36 l 713 0 l 293 0 l 293 36 l 437 54 l 437 354 l 118 856 l 16 873 l 16 909 l 400 909 l 400 873 l 278 856 l 539 436 l 787 856 l 672 873 l 672 909 l 968 909 l 968 873 l 868 856 l 568 358 m 697 1057 q 678 1009 697 1029 q 631 989 659 989 q 583 1010 602 989 q 563 1057 563 1031 q 583 1105 563 1086 q 631 1125 602 1125 q 678 1105 659 1125 q 697 1057 697 1086 m 456 1057 q 437 1009 456 1029 q 389 989 418 989 q 341 1009 361 989 q 321 1057 321 1029 q 342 1105 321 1086 q 389 1125 363 1125 q 437 1105 418 1125 q 456 1057 456 1086 z "},"Ź":{"ha":848,"x_min":66,"x_max":772,"o":"m 66 64 l 576 851 l 407 851 q 176 838 239 851 l 155 694 l 109 694 l 109 909 l 728 909 l 728 851 l 214 57 l 411 57 q 571 64 490 57 q 685 79 652 72 l 725 253 l 772 253 l 754 0 l 66 0 l 66 64 m 349 985 l 349 1008 l 481 1192 l 626 1192 l 626 1167 l 386 985 l 349 985 z "},"ź":{"ha":616,"x_min":37,"x_max":578,"o":"m 37 0 l 37 31 l 387 583 l 237 583 q 164 577 199 583 q 115 559 129 570 l 94 468 l 62 468 l 62 637 l 533 637 l 533 604 l 183 54 l 370 54 q 451 63 408 54 q 511 86 494 73 l 546 220 l 578 220 l 561 0 l 37 0 m 228 759 l 228 781 l 361 966 l 505 966 l 505 941 l 265 759 l 228 759 z "},"Ż":{"ha":848,"x_min":66,"x_max":772,"o":"m 66 64 l 576 851 l 407 851 q 176 838 239 851 l 155 694 l 109 694 l 109 909 l 728 909 l 728 851 l 214 57 l 411 57 q 571 64 490 57 q 685 79 652 72 l 725 253 l 772 253 l 754 0 l 66 0 l 66 64 m 500 1072 q 478 1021 500 1042 q 426 999 456 999 q 374 1021 396 999 q 353 1072 353 1042 q 374 1124 353 1103 q 426 1146 396 1146 q 478 1124 456 1146 q 500 1072 500 1103 z "},"ż":{"ha":616,"x_min":37,"x_max":578,"o":"m 37 0 l 37 31 l 387 583 l 237 583 q 164 577 199 583 q 115 559 129 570 l 94 468 l 62 468 l 62 637 l 533 637 l 533 604 l 183 54 l 370 54 q 451 63 408 54 q 511 86 494 73 l 546 220 l 578 220 l 561 0 l 37 0 m 389 846 q 367 794 389 816 q 315 772 345 772 q 263 794 285 772 q 241 846 241 816 q 263 898 241 876 q 315 920 285 920 q 367 898 345 920 q 389 846 389 876 z "},"Ž":{"ha":848,"x_min":66,"x_max":772,"o":"m 66 64 l 576 851 l 407 851 q 176 838 239 851 l 155 694 l 109 694 l 109 909 l 728 909 l 728 851 l 214 57 l 411 57 q 571 64 490 57 q 685 79 652 72 l 725 253 l 772 253 l 754 0 l 66 0 l 66 64 m 246 1193 l 428 1069 l 610 1193 l 648 1193 l 648 1171 l 500 985 l 356 985 l 208 1171 l 208 1193 l 246 1193 z "},"ž":{"ha":616,"x_min":37,"x_max":578,"o":"m 37 0 l 37 31 l 387 583 l 237 583 q 164 577 199 583 q 115 559 129 570 l 94 468 l 62 468 l 62 637 l 533 637 l 533 604 l 183 54 l 370 54 q 451 63 408 54 q 511 86 494 73 l 546 220 l 578 220 l 561 0 l 37 0 m 128 966 l 310 842 l 492 966 l 530 966 l 530 944 l 382 759 l 238 759 l 90 944 l 90 966 l 128 966 z "},"ſ":{"ha":386,"x_min":33,"x_max":437,"o":"m 240 53 l 351 31 l 351 0 l 33 0 l 33 31 l 127 53 l 127 685 q 183 902 127 826 q 340 978 239 978 q 437 965 392 978 l 437 826 l 404 826 l 374 909 q 318 924 351 924 q 258 886 275 924 q 240 743 240 848 l 240 53 z "},"ƀ":{"ha":694,"x_min":-3,"x_max":646,"o":"m 98 917 l 5 933 l 5 964 l 210 964 l 210 811 l 413 811 l 413 754 l 210 754 l 210 736 q 206 602 210 699 q 377 654 274 654 q 577 575 507 654 q 646 336 646 496 q 570 76 646 165 q 349 -14 494 -14 q 221 -1 291 -14 q 98 33 151 12 l 98 754 l -3 754 l -3 811 l 98 811 l 98 917 m 524 336 q 481 522 524 461 q 347 583 437 583 q 267 576 307 583 q 210 561 228 569 l 210 56 q 347 45 267 45 q 482 118 440 45 q 524 336 524 191 z "},"Ɓ":{"ha":1055,"x_min":25,"x_max":979,"o":"m 770 689 q 718 810 770 772 q 549 848 666 848 l 408 848 l 408 505 l 557 505 q 719 548 667 505 q 770 689 770 591 m 839 259 q 775 399 839 355 q 571 444 711 444 l 408 444 l 408 61 q 608 57 502 57 q 781 106 724 57 q 839 259 839 155 m 979 262 q 889 63 979 131 q 625 -4 798 -4 l 334 0 l 161 0 l 161 36 l 277 54 l 277 848 l 241 848 q 154 833 187 848 q 104 778 121 818 l 71 696 l 25 696 l 30 876 q 224 909 94 909 l 576 909 q 829 858 749 909 q 909 696 909 807 q 860 559 909 616 q 722 484 811 503 q 912 413 845 471 q 979 262 979 354 z "},"Ƃ":{"ha":798,"x_min":40,"x_max":717,"o":"m 390 505 q 634 441 551 505 q 717 252 717 377 q 632 63 717 127 q 383 0 547 0 l 40 0 l 40 36 l 157 54 l 157 855 l 49 873 l 49 909 l 660 909 l 669 700 l 625 700 l 586 838 q 503 847 558 843 q 394 851 447 851 l 288 851 l 288 505 l 390 505 m 582 246 q 527 398 582 351 q 358 444 473 444 l 288 444 l 288 61 l 354 61 q 529 104 477 61 q 582 246 582 146 z "},"ƃ":{"ha":694,"x_min":93,"x_max":642,"o":"m 519 336 q 476 522 519 461 q 342 583 433 583 q 262 576 302 583 q 205 561 223 569 l 205 56 q 342 45 262 45 q 477 118 435 45 q 519 336 519 191 m 642 336 q 565 76 642 165 q 345 -14 489 -14 q 216 -1 286 -14 q 93 33 146 12 l 93 909 l 582 909 l 591 734 l 547 734 l 508 838 q 425 847 480 843 q 316 851 369 851 l 205 851 l 205 736 q 201 602 205 699 q 372 654 269 654 q 572 575 503 654 q 642 336 642 496 z "},"Ƅ":{"ha":798,"x_min":24,"x_max":751,"o":"m 751 249 q 666 63 751 125 q 417 0 581 0 l 40 0 l 40 36 l 157 54 l 157 631 l 24 744 l 24 787 l 245 909 l 288 909 l 288 505 l 425 505 q 667 440 583 505 q 751 249 751 375 m 616 246 q 561 398 616 351 q 392 444 507 444 l 288 444 l 288 61 l 388 61 q 563 104 511 61 q 616 246 616 146 z "},"ƅ":{"ha":694,"x_min":0,"x_max":642,"o":"m 519 336 q 476 522 519 461 q 342 583 433 583 q 262 576 302 583 q 205 561 223 569 l 205 56 q 342 45 262 45 q 477 118 435 45 q 519 336 519 191 m 93 680 l 0 798 l 0 831 l 172 964 l 205 964 l 205 736 q 201 602 205 699 q 372 654 269 654 q 572 575 503 654 q 642 336 642 496 q 565 76 642 165 q 345 -14 489 -14 q 216 -1 286 -14 q 93 33 146 12 l 93 680 z "},"Ɔ":{"ha":926,"x_min":77,"x_max":869,"o":"m 401 920 q 746 799 623 920 q 869 462 869 679 q 751 107 869 227 q 399 -14 632 -14 q 94 21 257 -14 l 90 220 l 135 220 l 155 102 q 266 57 203 73 q 393 41 328 41 q 648 143 568 41 q 728 460 728 245 q 644 763 728 659 q 400 867 560 867 q 254 849 323 867 q 146 799 186 830 l 121 663 l 77 663 l 81 877 q 401 920 231 920 z "},"Ƈ":{"ha":926,"x_min":57,"x_max":1082,"o":"m 833 848 l 836 686 l 791 686 l 771 804 q 661 849 724 833 q 533 865 598 865 q 279 763 359 865 q 199 446 199 661 q 282 143 199 248 q 526 39 366 39 q 672 57 604 39 q 781 107 741 76 l 806 243 l 850 243 l 846 29 q 525 -14 696 -14 q 180 107 304 -14 q 57 444 57 227 q 176 799 57 679 q 528 920 294 920 q 766 898 648 920 q 816 1057 769 1001 q 942 1114 863 1114 q 1082 1093 1029 1114 l 1082 928 l 1038 928 l 1017 1022 q 981 1046 1004 1038 q 928 1055 957 1055 q 833 926 833 1055 l 833 848 z "},"ƈ":{"ha":616,"x_min":53,"x_max":755,"o":"m 558 456 l 521 456 l 492 568 q 357 600 435 600 q 175 323 175 600 q 230 118 175 180 q 401 57 286 57 q 574 79 500 57 l 574 39 q 482 0 541 14 q 363 -14 424 -14 q 53 323 53 -14 q 132 569 53 483 q 358 654 211 654 q 494 644 425 654 q 545 781 506 737 q 659 825 584 825 q 755 812 710 825 l 755 673 l 722 673 l 692 757 q 636 771 669 771 q 576 733 593 771 q 558 591 558 695 l 558 456 z "},"Ɖ":{"ha":1003,"x_min":36,"x_max":947,"o":"m 428 909 q 816 794 685 909 q 947 460 947 680 q 836 112 947 226 q 497 -3 724 -3 l 157 0 l 40 0 l 40 36 l 157 54 l 157 427 l 36 427 l 36 482 l 157 482 l 157 856 l 40 873 l 40 909 l 428 909 m 543 482 l 543 427 l 288 427 l 288 64 q 481 58 369 58 q 727 154 648 58 q 806 454 806 249 q 705 749 806 650 q 397 848 604 848 l 288 848 l 288 482 l 543 482 z "},"Ɗ":{"ha":1132,"x_min":36,"x_max":1079,"o":"m 937 461 q 834 750 937 652 q 541 848 732 848 l 419 848 l 419 64 q 612 58 500 58 q 858 157 779 58 q 937 461 937 255 m 288 848 l 252 848 q 165 833 198 848 q 115 778 132 818 l 81 696 l 36 696 l 41 876 q 235 909 105 909 l 585 909 q 958 797 836 909 q 1079 460 1079 685 q 962 115 1079 232 q 612 -3 845 -3 l 288 0 l 172 0 l 172 36 l 288 54 l 288 848 z "},"Ƌ":{"ha":798,"x_min":45,"x_max":757,"o":"m 181 246 q 234 104 181 146 q 409 61 286 61 l 509 61 l 509 444 l 405 444 q 236 398 290 444 q 181 246 181 351 m 757 0 l 380 0 q 130 63 215 0 q 45 249 45 125 q 130 440 45 376 q 373 505 215 505 l 509 505 l 509 851 l 369 851 q 259 847 315 851 q 177 838 203 843 l 138 700 l 94 700 l 103 909 l 748 909 l 748 873 l 640 855 l 640 54 l 757 36 l 757 0 z "},"ƌ":{"ha":694,"x_min":46,"x_max":673,"o":"m 168 313 q 212 120 168 184 q 345 57 255 57 q 482 83 421 57 l 482 587 q 345 599 422 599 q 168 313 168 599 m 673 0 l 494 0 l 486 47 q 307 -14 410 -14 q 46 313 46 -14 q 120 567 46 480 q 338 654 194 654 q 486 639 411 654 q 482 751 482 661 l 482 851 l 400 851 q 165 838 228 851 l 147 734 l 102 734 l 102 909 l 595 909 l 595 47 l 673 31 l 673 0 z "},"ƍ":{"ha":654,"x_min":43,"x_max":592,"o":"m 500 -130 l 500 -138 q 437 -256 500 -213 q 266 -299 374 -299 q 130 -286 201 -299 l 122 -147 l 154 -147 l 186 -218 q 277 -245 219 -245 q 369 -220 338 -245 q 400 -151 400 -195 q 377 -85 400 -116 q 303 -19 353 -54 l 232 31 q 88 174 134 98 q 43 357 43 251 q 120 574 43 493 q 326 655 197 655 q 520 577 448 655 q 592 361 592 499 q 534 170 592 248 q 366 56 477 92 q 469 -41 439 1 q 500 -130 498 -83 m 313 601 q 198 546 237 601 q 160 389 160 490 q 192 224 160 288 q 296 108 223 160 l 323 89 q 438 181 401 119 q 475 349 475 243 q 433 536 475 471 q 313 601 391 601 z "},"Ǝ":{"ha":848,"x_min":69,"x_max":808,"o":"m 808 0 l 82 0 l 69 240 l 114 240 l 153 72 q 382 61 207 61 l 561 61 l 561 432 l 315 432 l 294 322 l 251 322 l 251 602 l 294 602 l 315 493 l 561 493 l 561 848 l 412 848 q 193 839 267 848 l 171 692 l 126 692 l 126 909 l 808 909 l 808 873 l 692 856 l 692 54 l 808 36 l 808 0 z "},"Ə":{"ha":1003,"x_min":57,"x_max":947,"o":"m 474 865 q 346 849 409 865 q 236 804 283 833 l 216 686 l 171 686 l 175 885 q 479 920 338 920 q 830 804 714 920 q 947 444 947 688 q 831 104 947 221 q 496 -14 715 -14 q 168 105 278 -14 q 57 455 57 224 l 59 505 l 803 505 q 717 782 793 698 q 474 865 642 865 m 496 39 q 729 138 653 39 q 805 444 805 238 l 199 444 q 272 139 199 240 q 496 39 345 39 z "},"Ɛ":{"ha":696,"x_min":63,"x_max":630,"o":"m 63 248 q 120 405 63 349 q 295 476 177 462 q 143 549 199 490 q 88 696 88 608 q 163 863 88 806 q 380 920 237 920 q 594 891 481 920 l 594 716 l 549 716 l 527 827 q 461 853 502 842 q 383 863 420 863 q 263 820 298 863 q 227 688 227 777 q 271 558 227 604 q 393 509 315 513 l 490 503 l 490 447 l 393 441 q 248 390 294 437 q 201 254 201 343 q 250 92 201 141 q 399 43 298 43 q 482 53 435 43 q 556 79 528 63 l 585 207 l 630 207 l 623 16 q 387 -14 509 -14 q 150 57 237 -14 q 63 248 63 127 z "},"Ƒ":{"ha":772,"x_min":-93,"x_max":722,"o":"m 722 692 l 677 692 l 656 839 q 436 848 580 848 l 288 848 l 288 469 l 555 469 l 576 578 l 618 578 l 618 298 l 576 298 l 555 408 l 288 408 l 288 6 q 260 -154 288 -85 q 175 -261 232 -222 q 47 -300 119 -300 q -93 -280 -39 -300 l -93 -115 l -48 -115 l -28 -209 q 9 -233 -15 -224 q 61 -242 33 -242 q 156 -113 156 -242 l 157 856 l 40 873 l 40 909 l 722 909 l 722 692 z "},"ƒ":{"ha":694,"x_min":132,"x_max":606,"o":"m 149 -193 l 241 476 l 132 476 l 138 510 l 250 533 l 272 690 q 348 862 287 800 q 501 924 409 924 q 606 911 563 924 l 606 787 l 574 787 l 551 852 q 493 868 530 868 q 442 850 462 868 q 409 799 422 833 q 385 679 397 764 l 364 533 l 533 533 l 524 476 l 355 476 l 258 -193 l 149 -193 z "},"Ɠ":{"ha":1003,"x_min":57,"x_max":1096,"o":"m 871 47 q 707 4 792 22 q 525 -14 623 -14 q 180 106 304 -14 q 57 444 57 225 q 177 801 57 683 q 528 920 296 920 q 779 895 651 920 q 828 1056 781 998 q 956 1114 876 1114 q 1096 1093 1042 1114 l 1096 928 l 1051 928 l 1031 1022 q 994 1046 1018 1038 q 942 1055 970 1055 q 847 926 847 1055 l 847 684 l 802 684 l 783 796 q 671 847 736 829 q 533 865 606 865 q 279 762 359 865 q 199 446 199 659 q 281 142 199 245 q 526 39 364 39 q 646 52 583 39 q 741 85 708 66 l 741 343 l 624 361 l 624 397 l 960 397 l 960 361 l 871 343 l 871 47 z "},"Ɣ":{"ha":1003,"x_min":16,"x_max":987,"o":"m 987 909 l 987 873 l 888 856 l 572 98 q 651 -125 627 -39 q 684 -293 675 -212 l 434 -300 l 389 -281 q 411 -151 394 -214 q 469 21 427 -87 l 118 856 l 16 873 l 16 909 l 383 909 l 383 873 l 261 856 l 536 186 l 811 856 l 692 873 l 692 909 l 987 909 m 552 -239 q 504 -65 543 -162 q 472 -159 487 -107 q 458 -239 458 -212 l 471 -244 l 552 -239 z "},"ƕ":{"ha":1069,"x_min":14,"x_max":977,"o":"m 732 -14 q 549 36 611 -14 q 486 174 486 85 l 486 458 q 374 575 486 575 q 221 555 310 575 l 221 47 l 307 31 l 307 0 l 28 0 l 28 31 l 109 47 l 109 917 l 14 933 l 14 964 l 221 964 l 221 688 q 216 586 221 617 q 327 634 265 614 q 432 654 389 654 q 557 606 515 654 q 599 467 599 558 l 599 182 q 636 79 599 119 q 732 40 673 40 q 828 79 791 40 q 865 182 865 119 l 865 590 l 768 607 l 768 637 l 977 637 l 977 174 q 914 35 977 83 q 732 -14 851 -14 z "},"Ɩ":{"ha":352,"x_min":-1,"x_max":352,"o":"m 233 -14 q 141 25 175 -14 q 107 134 107 64 l 107 917 l -1 933 l -1 964 l 220 964 l 220 145 q 236 81 220 104 q 285 57 253 57 q 352 68 309 57 l 352 24 q 300 -1 336 11 q 233 -14 264 -14 z "},"Ɨ":{"ha":463,"x_min":24,"x_max":439,"o":"m 439 458 l 297 458 l 297 54 l 414 36 l 414 0 l 50 0 l 50 36 l 167 54 l 167 458 l 24 458 l 24 513 l 167 513 l 167 856 l 50 873 l 50 909 l 414 909 l 414 873 l 297 856 l 297 513 l 439 513 l 439 458 z "},"Ƙ":{"ha":1003,"x_min":40,"x_max":998,"o":"m 288 54 l 418 36 l 418 0 l 40 0 l 40 36 l 157 54 l 157 616 q 184 775 157 707 q 267 883 212 844 q 389 923 323 923 q 523 903 462 923 l 523 737 l 478 737 l 458 831 q 425 856 446 846 q 379 865 403 865 q 312 832 337 865 q 288 736 288 800 l 288 418 l 732 856 l 642 873 l 642 909 l 927 909 l 927 873 l 822 856 l 511 552 l 900 54 l 998 36 l 998 0 l 776 0 l 420 460 l 288 353 l 288 54 z "},"ƙ":{"ha":694,"x_min":40,"x_max":694,"o":"m 433 0 l 433 31 l 492 47 l 317 322 l 233 231 l 233 47 l 301 31 l 301 0 l 40 0 l 40 31 l 121 47 l 121 685 q 177 902 121 826 q 334 978 233 978 q 431 965 385 978 l 431 826 l 397 826 l 367 909 q 311 924 344 924 q 251 886 269 924 q 233 743 233 848 l 233 307 l 494 589 l 428 607 l 428 637 l 653 637 l 653 607 l 574 591 l 392 406 l 625 46 l 694 31 l 694 0 l 433 0 z "},"ƚ":{"ha":386,"x_min":22,"x_max":363,"o":"m 249 456 l 249 47 l 358 31 l 358 0 l 28 0 l 28 31 l 136 47 l 136 456 l 22 456 l 22 513 l 136 513 l 136 917 l 28 933 l 28 964 l 249 964 l 249 513 l 363 513 l 363 456 l 249 456 z "},"ƛ":{"ha":673,"x_min":37,"x_max":666,"o":"m 533 0 l 372 518 q 155 0 349 454 l 37 0 l 37 22 l 328 669 l 311 722 l 81 500 l 81 577 l 292 781 q 180 914 244 914 q 141 906 161 914 l 114 850 l 81 850 l 81 965 q 181 978 127 978 q 277 943 240 978 q 343 831 314 909 l 470 954 l 470 876 l 363 773 l 587 100 q 621 52 598 67 q 666 31 643 37 l 666 0 l 533 0 z "},"Ɯ":{"ha":1134,"x_min":17,"x_max":1114,"o":"m 897 52 q 779 1 838 20 q 678 -17 720 -17 q 588 1 629 -17 q 525 57 546 18 q 394 5 467 26 q 275 -17 321 -17 q 105 171 105 -17 l 105 856 l 17 873 l 17 909 l 330 909 l 330 873 l 235 856 l 235 183 q 261 97 235 127 q 345 66 286 66 q 424 74 369 66 q 512 90 478 82 q 500 171 500 127 l 500 856 l 405 873 l 405 909 l 725 909 l 725 873 l 631 856 l 631 183 q 660 97 631 127 q 747 66 689 66 q 823 73 776 66 q 896 86 871 79 l 896 856 l 800 873 l 800 909 l 1114 909 l 1114 873 l 1026 856 l 1026 54 l 1114 36 l 1114 0 l 903 0 l 897 52 z "},"Ɲ":{"ha":1003,"x_min":-103,"x_max":971,"o":"m 783 856 l 661 873 l 661 909 l 971 909 l 971 873 l 854 856 l 854 0 l 789 0 l 228 818 l 228 -31 q 177 -232 228 -163 q 26 -300 125 -300 q -44 -296 -4 -300 q -103 -288 -84 -292 l -103 -130 l -56 -130 l -14 -232 q 52 -246 11 -246 q 130 -203 104 -246 q 157 -66 157 -161 l 157 856 l 40 873 l 40 909 l 315 909 l 783 236 l 783 856 z "},"ƞ":{"ha":694,"x_min":32,"x_max":673,"o":"m 220 586 q 331 635 272 616 q 429 654 390 654 q 554 606 512 654 q 596 467 596 558 l 596 -253 l 673 -270 l 673 -300 l 399 -300 l 399 -270 l 484 -253 l 484 454 q 456 543 484 511 q 371 575 429 575 q 221 555 310 575 l 221 47 l 307 31 l 307 0 l 32 0 l 32 31 l 109 47 l 109 590 l 32 607 l 32 637 l 214 637 l 220 586 z "},"Ɵ":{"ha":1003,"x_min":57,"x_max":946,"o":"m 57 456 q 501 920 57 920 q 833 802 721 920 q 946 456 946 684 q 832 105 946 224 q 501 -14 718 -14 q 171 105 285 -14 q 57 456 57 223 m 501 40 q 727 135 654 40 q 804 439 801 229 l 199 439 q 274 136 200 232 q 501 40 347 40 m 501 865 q 279 778 353 865 q 199 496 205 691 l 804 496 q 724 777 798 689 q 501 865 650 865 z "},"Ơ":{"ha":1003,"x_min":57,"x_max":1048,"o":"m 1048 882 q 911 675 1048 747 q 946 456 946 583 q 832 105 946 224 q 501 -14 718 -14 q 171 105 285 -14 q 57 456 57 223 q 501 920 57 920 q 891 720 789 920 q 960 802 960 758 q 950 826 960 815 q 915 850 940 837 q 869 917 869 873 q 892 973 869 954 q 951 992 915 992 q 1020 963 992 992 q 1048 882 1048 933 m 199 456 q 272 138 199 237 q 501 40 345 40 q 730 138 656 40 q 804 456 804 237 q 731 769 804 673 q 501 865 657 865 q 272 769 345 865 q 199 456 199 673 z "},"ơ":{"ha":734,"x_min":53,"x_max":749,"o":"m 749 680 q 619 476 749 548 q 642 322 642 411 q 343 -14 642 -14 q 126 73 199 -14 q 53 322 53 159 q 126 569 53 484 q 349 654 199 654 q 600 522 530 654 q 662 600 662 557 q 652 624 662 613 q 616 648 642 635 q 570 715 570 671 q 593 771 570 751 q 652 790 616 790 q 722 761 694 790 q 749 680 749 731 m 519 322 q 477 534 519 469 q 343 600 434 600 q 215 537 254 600 q 175 322 175 474 q 215 104 175 168 q 343 40 256 40 q 476 106 433 40 q 519 322 519 173 z "},"Ƣ":{"ha":1284,"x_min":50,"x_max":1256,"o":"m 1139 -246 l 1256 -264 l 1256 -300 l 892 -300 l 892 -264 l 1009 -246 l 1009 848 l 844 848 l 844 47 q 507 -14 662 -14 q 170 106 290 -14 q 50 444 50 227 q 170 801 50 683 q 521 920 290 920 l 798 909 l 1139 909 l 1139 -246 m 526 865 q 272 762 353 865 q 192 446 192 659 q 271 143 192 248 q 507 39 351 39 q 624 53 564 39 q 713 85 684 66 l 713 848 q 526 865 586 865 z "},"ƣ":{"ha":960,"x_min":53,"x_max":930,"o":"m 659 -296 l 659 -264 l 747 -248 l 747 580 l 642 580 l 642 322 q 343 -14 642 -14 q 126 73 199 -14 q 53 322 53 159 q 126 569 53 484 q 349 654 199 654 q 465 646 380 654 q 586 637 550 637 l 859 637 l 859 -248 l 930 -264 l 930 -296 l 659 -296 m 343 40 q 476 106 433 40 q 519 322 519 173 l 519 580 q 343 600 418 600 q 215 537 254 600 q 175 322 175 474 q 215 104 175 168 q 343 40 256 40 z "},"Ƥ":{"ha":903,"x_min":41,"x_max":854,"o":"m 719 640 q 667 800 719 752 q 491 848 614 848 l 425 848 l 425 418 l 495 418 q 664 470 610 418 q 719 640 719 522 m 520 909 q 854 642 854 909 q 769 429 854 502 q 527 357 685 357 l 425 357 l 425 54 l 569 36 l 569 0 l 186 0 l 186 36 l 294 54 l 294 848 l 257 848 q 170 833 203 848 q 121 778 137 818 l 87 696 l 41 696 l 46 876 q 241 909 111 909 l 520 909 z "},"ƥ":{"ha":694,"x_min":22,"x_max":640,"o":"m 518 326 q 476 520 518 456 q 347 583 433 583 q 215 561 268 583 l 215 52 q 347 40 275 40 q 518 326 518 40 m 413 826 l 380 826 l 349 909 q 294 924 326 924 q 233 886 251 924 q 216 743 216 848 q 211 600 216 657 q 287 640 239 625 q 385 654 335 654 q 573 570 507 654 q 640 326 640 485 q 567 75 640 164 q 357 -14 494 -14 q 211 1 280 -14 q 215 -75 215 -47 l 215 -248 l 326 -264 l 326 -296 l 22 -296 l 22 -264 l 103 -248 l 103 685 q 159 902 103 826 q 316 978 215 978 q 413 965 368 978 l 413 826 z "},"Ʀ":{"ha":772,"x_min":40,"x_max":939,"o":"m 631 526 q 581 673 631 629 q 404 717 530 717 l 288 717 l 288 328 l 408 328 q 580 373 529 328 q 631 526 631 418 m 433 778 q 685 720 604 778 q 766 535 766 663 q 717 378 766 444 q 580 286 667 312 l 840 -98 l 939 -117 l 939 -153 l 721 -153 l 451 267 l 288 267 l 288 54 l 425 36 l 425 0 l 49 0 l 49 36 l 157 54 l 157 856 l 40 873 l 40 909 l 425 909 l 425 873 l 288 855 l 288 778 l 433 778 z "},"Ƨ":{"ha":772,"x_min":84,"x_max":677,"o":"m 676 35 q 545 -1 619 12 q 397 -14 471 -14 q 164 59 245 -14 q 84 262 84 132 q 101 363 84 321 q 150 438 118 406 q 227 493 182 471 q 412 565 271 516 q 526 630 488 591 q 564 724 564 669 q 512 826 564 789 q 370 863 461 863 q 199 812 269 863 l 176 701 l 132 701 l 132 890 q 370 920 260 920 q 596 858 514 920 q 677 688 677 796 q 657 582 677 625 q 603 509 636 538 q 526 461 569 480 q 438 427 484 442 q 351 396 393 411 q 274 358 308 380 q 220 304 241 336 q 199 224 199 273 q 253 90 199 138 q 401 41 306 41 q 520 65 460 41 q 608 122 580 89 l 632 245 l 676 245 l 676 35 z "},"ƨ":{"ha":541,"x_min":44,"x_max":477,"o":"m 44 179 q 56 251 44 221 q 90 303 68 280 q 143 342 112 326 q 271 391 174 357 q 351 435 325 409 q 376 500 376 461 q 348 573 376 546 q 264 600 319 600 q 151 568 186 600 l 122 494 l 90 494 l 90 633 q 265 654 195 654 q 420 606 363 654 q 477 473 477 557 q 460 392 477 425 q 412 335 444 358 q 313 290 380 313 l 253 271 q 149 153 149 235 q 280 40 149 40 q 412 86 361 40 l 446 175 l 476 175 l 476 18 q 388 -4 445 6 q 281 -14 331 -14 q 44 179 44 -14 z "},"Ʃ":{"ha":808,"x_min":54,"x_max":739,"o":"m 460 507 l 460 473 l 186 115 l 363 115 q 533 118 434 115 q 655 126 633 121 l 694 254 l 739 254 l 726 0 l 54 0 l 54 50 l 351 438 l 60 856 l 60 909 l 684 909 l 684 692 l 640 692 l 611 839 q 404 848 535 848 l 223 848 l 460 507 z "},"ƪ":{"ha":477,"x_min":3,"x_max":524,"o":"m 524 -288 q 427 -300 479 -300 q 270 -224 326 -300 q 214 -7 214 -148 l 214 718 q 140 696 181 696 q 43 736 83 696 q 3 833 3 777 q 43 931 3 890 q 140 971 83 971 q 238 940 196 971 q 303 847 279 908 q 327 699 327 787 l 327 -66 q 344 -208 327 -169 q 405 -246 361 -246 q 460 -232 437 -246 l 491 -149 l 524 -149 l 524 -288 m 140 750 q 198 774 173 750 q 224 833 224 798 q 199 892 224 868 q 140 917 175 917 q 81 892 106 917 q 57 833 57 868 q 82 774 57 798 q 140 750 107 750 z "},"ƫ":{"ha":386,"x_min":14,"x_max":388,"o":"m 388 -26 q 337 -227 388 -159 q 186 -296 286 -296 q 88 -283 143 -296 l 88 -149 l 120 -149 l 138 -222 q 195 -241 161 -241 q 255 -199 235 -241 q 275 -61 275 -156 l 275 -7 q 227 -14 256 -14 q 129 25 161 -14 q 97 134 97 64 l 97 581 l 14 581 l 14 611 l 98 637 l 167 782 l 210 782 l 210 637 l 355 637 l 355 581 l 210 581 l 210 146 q 230 79 210 102 q 282 57 250 57 q 388 70 321 57 l 388 -26 z "},"Ƭ":{"ha":848,"x_min":5,"x_max":825,"o":"m 825 696 l 779 696 l 761 838 q 672 846 741 842 q 522 850 604 850 l 489 850 l 489 54 l 633 36 l 633 0 l 214 0 l 214 36 l 358 54 l 358 850 l 221 850 q 134 834 168 850 q 85 778 101 818 l 51 696 l 5 696 l 10 876 q 205 909 75 909 l 825 909 l 825 696 z "},"ƭ":{"ha":386,"x_min":14,"x_max":477,"o":"m 417 795 l 355 909 q 299 924 332 924 q 229 885 249 924 q 210 743 210 847 l 210 637 l 355 637 l 355 581 l 210 581 l 210 146 q 230 79 210 102 q 282 57 250 57 q 378 68 321 57 l 378 24 q 309 -3 354 7 q 227 -14 264 -14 q 129 25 161 -14 q 97 134 97 64 l 97 581 l 14 581 l 14 611 l 97 637 l 97 685 q 155 904 97 829 q 321 978 213 978 q 396 970 352 978 q 477 949 440 962 l 477 795 l 417 795 z "},"Ʈ":{"ha":848,"x_min":25,"x_max":825,"o":"m 489 -113 q 585 -242 489 -242 q 637 -233 613 -242 q 673 -209 661 -224 l 694 -115 l 739 -115 l 739 -280 q 598 -300 685 -300 q 471 -261 528 -300 q 386 -154 414 -222 q 358 6 358 -85 l 358 851 l 323 851 q 89 838 152 851 l 71 696 l 25 696 l 25 909 l 825 909 l 825 696 l 779 696 l 761 838 q 672 846 741 842 q 522 850 604 850 l 489 850 l 489 -113 z "},"Ư":{"ha":1078,"x_min":29,"x_max":1075,"o":"m 1075 882 q 1021 739 1075 802 q 857 643 968 676 l 857 313 q 767 68 857 149 q 507 -14 677 -14 q 236 68 326 -14 q 146 300 146 150 l 146 856 l 29 873 l 29 909 l 393 909 l 393 873 l 276 856 l 276 310 q 517 62 276 62 q 716 124 647 62 q 786 307 786 186 l 786 856 l 664 873 l 664 909 l 857 909 l 857 695 q 957 746 926 718 q 987 802 987 774 q 977 826 987 815 q 942 850 967 837 q 896 917 896 873 q 919 973 896 954 q 978 992 942 992 q 1047 963 1019 992 q 1075 882 1075 933 z "},"ư":{"ha":753,"x_min":18,"x_max":789,"o":"m 789 680 q 741 542 789 604 q 590 446 692 481 l 590 47 l 671 31 l 671 0 l 485 0 l 479 52 q 368 6 431 25 q 262 -14 305 -14 q 100 174 100 -14 l 100 590 l 18 607 l 18 637 l 212 637 l 212 182 q 321 65 212 65 q 478 86 405 65 l 478 590 l 382 607 l 382 637 l 590 637 l 590 499 q 675 548 649 521 q 702 600 702 574 q 692 624 702 613 q 656 648 682 635 q 610 715 610 671 q 633 771 610 751 q 692 790 656 790 q 762 761 734 790 q 789 680 789 731 z "},"Ʊ":{"ha":1032,"x_min":72,"x_max":960,"o":"m 516 44 q 744 121 669 44 q 819 366 819 198 q 756 582 819 501 q 579 677 694 663 l 561 909 l 947 909 l 960 686 l 915 686 l 876 783 q 684 794 822 794 l 635 794 l 642 726 q 874 606 787 703 q 960 366 960 509 q 848 86 960 182 q 516 -10 736 -10 q 184 86 297 -10 q 72 366 72 182 q 159 606 72 509 q 391 726 245 703 l 397 794 l 349 794 q 156 783 210 794 l 117 686 l 73 686 l 85 909 l 471 909 l 453 677 q 276 582 338 663 q 214 366 214 501 q 288 121 214 197 q 516 44 363 44 z "},"Ʋ":{"ha":1003,"x_min":29,"x_max":857,"o":"m 507 -14 q 236 68 326 -14 q 146 300 146 150 l 146 856 l 29 873 l 29 909 l 393 909 l 393 873 l 276 856 l 276 310 q 517 62 276 62 q 716 124 647 62 q 786 307 786 186 l 786 736 q 763 832 786 800 q 698 865 740 865 q 657 854 677 865 q 626 831 637 844 l 602 737 l 551 737 l 551 903 q 684 923 612 923 q 784 901 749 923 q 838 834 819 880 q 857 711 857 789 l 857 313 q 767 68 857 149 q 507 -14 677 -14 z "},"Ƴ":{"ha":1084,"x_min":16,"x_max":1059,"o":"m 1014 734 l 991 837 q 935 850 971 850 q 865 826 895 850 q 806 752 834 801 l 568 358 l 568 54 l 713 36 l 713 0 l 293 0 l 293 36 l 437 54 l 437 354 l 118 856 l 16 873 l 16 909 l 400 909 l 400 873 l 278 856 l 539 436 l 744 781 q 837 887 788 855 q 946 920 885 920 q 1059 901 1004 920 l 1059 734 l 1014 734 z "},"ƴ":{"ha":694,"x_min":17,"x_max":937,"o":"m 937 811 l 905 811 l 879 886 q 827 900 857 900 q 749 872 779 900 q 696 787 720 845 l 374 -40 q 297 -201 330 -152 q 225 -275 264 -250 q 135 -300 186 -300 q 31 -288 82 -300 l 31 -150 l 62 -150 l 85 -215 q 143 -231 106 -231 q 234 -188 194 -231 q 307 -55 274 -146 l 325 -7 l 82 590 l 17 607 l 17 637 l 313 637 l 313 607 l 212 589 l 385 143 l 631 796 q 712 922 662 880 q 835 964 762 964 q 937 951 894 964 l 937 811 z "},"Ƶ":{"ha":848,"x_min":66,"x_max":772,"o":"m 66 64 l 317 451 l 119 451 l 119 508 l 354 508 l 576 851 l 407 851 q 176 838 239 851 l 155 694 l 109 694 l 109 909 l 728 909 l 728 851 l 506 508 l 704 508 l 704 451 l 469 451 l 214 57 l 411 57 q 571 64 490 57 q 685 79 652 72 l 725 253 l 772 253 l 754 0 l 66 0 l 66 64 z "},"ƶ":{"ha":616,"x_min":37,"x_max":578,"o":"m 339 300 l 183 54 l 370 54 q 451 63 408 54 q 511 86 494 73 l 546 220 l 578 220 l 561 0 l 37 0 l 37 31 l 208 300 l 66 300 l 66 357 l 243 357 l 387 583 l 237 583 q 164 577 199 583 q 115 559 129 570 l 94 468 l 62 468 l 62 637 l 533 637 l 533 604 l 376 357 l 517 357 l 517 300 l 339 300 z "},"Ʒ":{"ha":749,"x_min":29,"x_max":706,"o":"m 307 -300 q 32 -257 165 -300 l 29 -43 l 75 -43 l 92 -180 q 179 -229 123 -210 q 298 -248 235 -248 q 496 -165 428 -248 q 564 77 564 -82 q 489 326 564 243 q 267 408 413 408 l 191 408 l 191 461 l 480 851 l 364 851 q 153 837 210 851 l 133 694 l 86 694 l 86 909 l 640 909 l 640 854 l 347 460 q 612 348 519 448 q 706 75 706 248 q 601 -201 706 -101 q 307 -300 496 -300 z "},"Ƹ":{"ha":749,"x_min":43,"x_max":720,"o":"m 442 -300 q 148 -201 252 -300 q 43 75 43 -101 q 136 348 43 248 q 401 460 230 448 l 109 854 l 109 909 l 663 909 l 663 694 l 616 694 l 595 837 q 385 851 535 851 l 269 851 l 557 461 l 557 408 l 482 408 q 260 325 336 408 q 184 77 184 242 q 253 -165 184 -82 q 450 -248 321 -248 q 570 -229 514 -248 q 657 -180 625 -210 l 674 -43 l 720 -43 l 717 -257 q 442 -300 583 -300 z "},"ƹ":{"ha":616,"x_min":47,"x_max":594,"o":"m 383 -300 q 73 -2 73 -300 q 126 185 73 113 q 279 281 179 258 l 47 604 l 47 637 l 567 637 l 567 468 l 535 468 l 514 559 q 467 576 501 570 q 392 583 433 583 l 199 583 l 425 268 l 425 237 l 377 237 q 195 -1 195 237 q 251 -177 195 -124 q 422 -230 306 -230 q 594 -208 521 -230 l 594 -248 q 503 -287 561 -273 q 383 -300 444 -300 z "},"ƺ":{"ha":616,"x_min":54,"x_max":594,"o":"m 357 -300 q 54 -74 54 -300 q 119 76 54 19 q 304 146 184 134 q 415 174 384 154 q 446 233 446 193 q 399 304 446 283 q 264 326 353 326 l 217 326 l 217 356 l 442 583 l 250 583 q 176 577 212 583 q 127 559 141 570 l 106 468 l 75 468 l 75 637 l 594 637 l 594 604 l 362 369 q 568 231 568 345 q 547 161 568 188 q 483 118 526 134 q 349 96 440 103 q 219 49 261 88 q 176 -70 176 9 q 230 -192 176 -155 q 396 -230 283 -230 q 568 -208 495 -230 l 568 -248 q 477 -287 535 -273 q 357 -300 418 -300 z "},"ƻ":{"ha":694,"x_min":61,"x_max":618,"o":"m 521 454 q 436 360 488 410 q 267 208 384 309 l 150 104 l 618 104 l 618 0 l 61 0 l 61 100 l 180 208 q 336 354 285 300 q 415 454 388 408 l 112 454 l 112 510 l 442 510 q 472 682 472 583 q 432 817 472 770 q 301 863 392 863 q 227 853 265 863 q 160 827 189 843 l 136 715 l 92 715 l 92 890 q 301 920 215 920 q 525 858 450 920 q 600 682 600 795 q 557 510 600 590 l 618 510 l 618 454 l 521 454 z "},"Ƽ":{"ha":694,"x_min":28,"x_max":627,"o":"m 304 -14 q 75 16 176 -14 l 67 207 l 112 207 l 142 79 q 214 53 172 63 q 294 43 256 43 q 451 94 401 43 q 502 264 502 145 q 459 426 502 378 q 323 475 416 475 q 210 458 261 475 l 145 458 l 145 856 l 28 873 l 28 909 l 602 909 l 602 649 l 557 649 l 535 796 q 315 806 459 806 l 206 806 l 206 515 q 347 532 275 532 q 555 469 484 532 q 627 271 627 407 q 543 60 627 134 q 304 -14 460 -14 z "},"ƽ":{"ha":616,"x_min":35,"x_max":568,"o":"m 289 -14 q 79 7 172 -14 l 73 155 l 117 155 l 138 66 q 195 49 156 57 q 271 41 235 41 q 410 75 366 41 q 454 190 454 109 q 415 299 454 267 q 287 331 376 331 q 184 320 234 331 l 137 320 l 137 571 l 35 594 l 35 637 l 554 637 l 554 413 l 509 413 l 488 531 q 268 541 412 541 l 198 541 l 198 376 q 315 387 256 387 q 501 337 434 387 q 568 199 568 288 q 496 41 568 95 q 289 -14 425 -14 z "},"ƾ":{"ha":586,"x_min":31,"x_max":535,"o":"m 227 513 q 241 461 227 481 q 277 427 254 441 q 381 384 300 413 q 502 307 469 352 q 535 195 535 262 q 475 51 535 100 q 298 2 415 2 q 193 12 250 2 q 103 34 136 22 l 103 191 l 134 191 l 167 102 q 299 56 218 56 q 431 168 431 56 q 417 224 431 202 q 380 262 403 247 q 273 306 357 277 q 148 380 180 337 q 115 489 115 423 l 115 581 l 31 581 l 31 611 l 116 637 l 184 782 l 227 782 l 227 637 l 373 637 l 373 581 l 227 581 l 227 513 z "},"ƿ":{"ha":694,"x_min":-5,"x_max":647,"o":"m 215 -300 l -5 -300 l -5 -270 l 102 -253 l 102 590 l -1 607 l -1 637 l 215 637 l 215 501 q 448 654 307 654 q 594 588 541 654 q 647 406 647 522 q 215 -50 647 94 l 215 -300 m 215 -2 q 453 162 372 59 q 534 404 534 266 q 498 532 534 485 q 404 580 463 580 q 348 568 375 580 q 294 534 321 556 q 215 453 268 513 l 215 -2 z "},"ǀ":{"ha":278,"x_min":106,"x_max":172,"o":"m 172 0 l 106 0 l 106 964 l 172 964 l 172 0 z "},"ǁ":{"ha":390,"x_min":92,"x_max":298,"o":"m 298 0 l 231 0 l 231 964 l 298 964 l 298 0 m 159 0 l 92 0 l 92 964 l 159 964 l 159 0 z "},"ǂ":{"ha":346,"x_min":9,"x_max":337,"o":"m 337 341 l 206 341 l 206 0 l 140 0 l 140 341 l 9 341 l 9 398 l 140 398 l 140 522 l 9 522 l 9 578 l 140 578 l 140 964 l 206 964 l 206 578 l 337 578 l 337 522 l 206 522 l 206 398 l 337 398 l 337 341 z "},"ǃ":{"ha":463,"x_min":149,"x_max":313,"o":"m 313 62 q 289 5 313 29 q 231 -20 266 -20 q 172 5 195 -20 q 149 62 149 29 q 172 121 149 97 q 231 144 196 144 q 289 121 265 144 q 313 62 313 97 m 157 909 l 304 909 l 262 264 l 199 264 l 157 909 z "},"Ǆ":{"ha":1851,"x_min":40,"x_max":1775,"o":"m 806 461 q 703 750 806 652 q 410 848 600 848 l 288 848 l 288 64 q 481 58 369 58 q 727 157 648 58 q 806 461 806 255 m 453 909 q 826 797 705 909 q 947 460 947 685 q 830 115 947 232 q 481 -3 713 -3 l 157 0 l 40 0 l 40 36 l 157 54 l 157 856 l 40 873 l 40 909 l 453 909 m 1069 64 l 1579 851 l 1410 851 q 1179 838 1242 851 l 1158 694 l 1112 694 l 1112 909 l 1731 909 l 1731 851 l 1217 57 l 1414 57 q 1574 64 1493 57 q 1688 79 1655 72 l 1728 253 l 1775 253 l 1757 0 l 1069 0 l 1069 64 m 1249 1193 l 1431 1069 l 1613 1193 l 1651 1193 l 1651 1171 l 1503 985 l 1359 985 l 1211 1171 l 1211 1193 l 1249 1193 z "},"ǅ":{"ha":1619,"x_min":40,"x_max":1581,"o":"m 806 461 q 703 750 806 652 q 410 848 600 848 l 288 848 l 288 64 q 481 58 369 58 q 727 157 648 58 q 806 461 806 255 m 453 909 q 826 797 705 909 q 947 460 947 685 q 830 115 947 232 q 481 -3 713 -3 l 157 0 l 40 0 l 40 36 l 157 54 l 157 856 l 40 873 l 40 909 l 453 909 m 1040 0 l 1040 31 l 1390 583 l 1240 583 q 1167 577 1202 583 q 1118 559 1132 570 l 1097 468 l 1065 468 l 1065 637 l 1536 637 l 1536 604 l 1186 54 l 1373 54 q 1454 63 1411 54 q 1514 86 1497 73 l 1549 220 l 1581 220 l 1564 0 l 1040 0 m 1141 966 l 1322 842 l 1504 966 l 1542 966 l 1542 944 l 1395 759 l 1251 759 l 1103 944 l 1103 966 l 1141 966 z "},"ǆ":{"ha":1311,"x_min":50,"x_max":1272,"o":"m 490 47 q 311 -14 414 -14 q 50 313 50 -14 q 124 567 50 480 q 342 654 198 654 q 490 639 415 654 q 486 751 486 661 l 486 917 l 379 933 l 379 964 l 599 964 l 599 47 l 677 31 l 677 0 l 498 0 l 490 47 m 172 313 q 216 120 172 184 q 349 57 259 57 q 486 83 425 57 l 486 587 q 349 599 426 599 q 172 313 172 599 m 732 0 l 732 31 l 1082 583 l 932 583 q 859 577 894 583 q 810 559 823 570 l 789 468 l 757 468 l 757 637 l 1227 637 l 1227 604 l 878 54 l 1064 54 q 1145 63 1103 54 q 1206 86 1188 73 l 1240 220 l 1272 220 l 1255 0 l 732 0 m 832 966 l 1014 842 l 1196 966 l 1234 966 l 1234 944 l 1086 759 l 942 759 l 794 944 l 794 966 l 832 966 z "},"Ǉ":{"ha":1389,"x_min":40,"x_max":1360,"o":"m 428 873 l 288 856 l 288 58 l 467 58 q 679 72 611 58 l 721 261 l 765 261 l 753 0 l 40 0 l 40 36 l 157 54 l 157 856 l 40 873 l 40 909 l 428 909 l 428 873 m 1126 856 l 1010 873 l 1010 909 l 1360 909 l 1360 873 l 1257 856 l 1257 293 q 1229 134 1257 202 q 1144 26 1201 66 q 1018 -14 1088 -14 q 878 7 931 -14 l 878 172 l 922 172 l 943 78 q 979 54 956 62 q 1031 45 1003 45 q 1126 174 1126 45 l 1126 856 z "},"ǈ":{"ha":1234,"x_min":40,"x_max":1115,"o":"m 428 873 l 288 856 l 288 58 l 467 58 q 679 72 611 58 l 721 261 l 765 261 l 753 0 l 40 0 l 40 36 l 157 54 l 157 856 l 40 873 l 40 909 l 428 909 l 428 873 m 1115 846 q 1093 794 1115 816 q 1042 772 1072 772 q 989 794 1011 772 q 968 846 968 816 q 989 898 968 876 q 1042 920 1011 920 q 1093 898 1072 920 q 1115 846 1115 876 m 1108 -26 q 1057 -227 1108 -159 q 907 -296 1006 -296 q 808 -283 865 -296 l 808 -149 l 840 -149 l 859 -222 q 915 -241 881 -241 q 975 -199 955 -241 q 996 -61 996 -156 l 996 590 l 900 607 l 900 637 l 1108 637 l 1108 -26 z "},"ǉ":{"ha":772,"x_min":28,"x_max":652,"o":"m 249 47 l 358 31 l 358 0 l 28 0 l 28 31 l 136 47 l 136 917 l 28 933 l 28 964 l 249 964 l 249 47 m 652 846 q 631 794 652 816 q 579 772 609 772 q 527 794 549 772 q 505 846 505 816 q 527 898 505 876 q 579 920 549 920 q 631 898 609 920 q 652 846 652 876 m 646 -26 q 594 -227 646 -159 q 444 -296 543 -296 q 346 -283 402 -296 l 346 -149 l 378 -149 l 396 -222 q 452 -241 418 -241 q 513 -199 492 -241 q 533 -61 533 -156 l 533 590 l 437 607 l 437 637 l 646 637 l 646 -26 z "},"Ǌ":{"ha":1544,"x_min":40,"x_max":1514,"o":"m 783 856 l 661 873 l 661 909 l 971 909 l 971 873 l 854 856 l 854 0 l 789 0 l 228 818 l 228 54 l 350 36 l 350 0 l 40 0 l 40 36 l 157 54 l 157 856 l 40 873 l 40 909 l 315 909 l 783 236 l 783 856 m 1281 856 l 1164 873 l 1164 909 l 1514 909 l 1514 873 l 1411 856 l 1411 293 q 1383 134 1411 202 q 1299 26 1356 66 q 1173 -14 1242 -14 q 1032 7 1086 -14 l 1032 172 l 1077 172 l 1097 78 q 1134 54 1110 62 q 1186 45 1158 45 q 1281 174 1281 45 l 1281 856 z "},"ǋ":{"ha":1389,"x_min":40,"x_max":1270,"o":"m 783 856 l 661 873 l 661 909 l 971 909 l 971 873 l 854 856 l 854 0 l 789 0 l 228 818 l 228 54 l 350 36 l 350 0 l 40 0 l 40 36 l 157 54 l 157 856 l 40 873 l 40 909 l 315 909 l 783 236 l 783 856 m 1270 846 q 1248 794 1270 816 q 1196 772 1226 772 q 1144 794 1166 772 q 1122 846 1122 816 q 1144 898 1122 876 q 1196 920 1166 920 q 1248 898 1226 920 q 1270 846 1270 876 m 1263 -26 q 1212 -227 1263 -159 q 1061 -296 1160 -296 q 963 -283 1019 -296 l 963 -149 l 995 -149 l 1013 -222 q 1069 -241 1036 -241 q 1130 -199 1109 -241 q 1150 -61 1150 -156 l 1150 590 l 1055 607 l 1055 637 l 1263 637 l 1263 -26 z "},"ǌ":{"ha":1080,"x_min":32,"x_max":961,"o":"m 220 586 q 331 635 272 616 q 429 654 390 654 q 554 606 512 654 q 596 467 596 558 l 596 47 l 673 31 l 673 0 l 399 0 l 399 31 l 484 47 l 484 454 q 456 543 484 511 q 371 575 429 575 q 221 555 310 575 l 221 47 l 307 31 l 307 0 l 32 0 l 32 31 l 109 47 l 109 590 l 32 607 l 32 637 l 214 637 l 220 586 m 961 846 q 939 794 961 816 q 888 772 918 772 q 836 794 857 772 q 814 846 814 816 q 836 898 814 876 q 888 920 857 920 q 939 898 918 920 q 961 846 961 876 m 954 -26 q 903 -227 954 -159 q 753 -296 852 -296 q 654 -283 711 -296 l 654 -149 l 686 -149 l 705 -222 q 761 -241 727 -241 q 821 -199 801 -241 q 842 -61 842 -156 l 842 590 l 746 607 l 746 637 l 954 637 l 954 -26 z "},"Ǎ":{"ha":1003,"x_min":14,"x_max":993,"o":"m 313 36 l 313 0 l 14 0 l 14 36 l 117 54 l 427 917 l 555 917 l 878 54 l 993 36 l 993 0 l 608 0 l 608 36 l 730 54 l 640 317 l 282 317 l 191 54 l 313 36 m 458 819 l 302 378 l 619 378 l 458 819 m 309 1193 l 491 1069 l 673 1193 l 711 1193 l 711 1171 l 564 985 l 419 985 l 271 1171 l 271 1193 l 309 1193 z "},"ǎ":{"ha":616,"x_min":49,"x_max":597,"o":"m 315 652 q 469 609 420 652 q 518 478 518 566 l 518 47 l 597 31 l 597 0 l 422 0 l 410 64 q 212 -14 332 -14 q 49 176 49 -14 q 74 282 49 240 q 153 346 98 323 q 310 370 207 368 l 406 372 l 406 472 q 381 569 406 538 q 307 600 357 600 q 183 568 239 600 l 160 489 l 122 489 l 122 628 q 315 652 232 652 m 406 325 l 317 322 q 194 287 226 319 q 161 180 161 255 q 258 61 161 61 q 338 72 304 61 q 406 98 372 82 l 406 325 m 126 966 l 308 842 l 490 966 l 528 966 l 528 944 l 380 759 l 236 759 l 88 944 l 88 966 l 126 966 z "},"Ǐ":{"ha":463,"x_min":12,"x_max":452,"o":"m 297 54 l 414 36 l 414 0 l 50 0 l 50 36 l 167 54 l 167 856 l 50 873 l 50 909 l 414 909 l 414 873 l 297 856 l 297 54 m 50 1193 l 232 1069 l 414 1193 l 452 1193 l 452 1171 l 304 985 l 160 985 l 12 1171 l 12 1193 l 50 1193 z "},"ǐ":{"ha":386,"x_min":-24,"x_max":416,"o":"m 250 47 l 359 31 l 359 0 l 29 0 l 29 31 l 138 47 l 138 590 l 47 607 l 47 637 l 250 637 l 250 47 m 14 966 l 196 842 l 378 966 l 416 966 l 416 944 l 269 759 l 124 759 l -24 944 l -24 966 l 14 966 z "},"Ǒ":{"ha":1003,"x_min":57,"x_max":946,"o":"m 199 456 q 272 138 199 237 q 501 40 345 40 q 730 138 656 40 q 804 456 804 237 q 731 769 804 673 q 501 865 657 865 q 272 769 345 865 q 199 456 199 673 m 57 456 q 501 920 57 920 q 833 802 721 920 q 946 456 946 684 q 832 105 946 224 q 501 -14 718 -14 q 171 105 285 -14 q 57 456 57 223 m 326 1193 l 508 1069 l 690 1193 l 728 1193 l 728 1171 l 581 985 l 436 985 l 288 1171 l 288 1193 l 326 1193 z "},"ǒ":{"ha":694,"x_min":53,"x_max":642,"o":"m 642 322 q 343 -14 642 -14 q 126 73 199 -14 q 53 322 53 159 q 126 569 53 484 q 349 654 199 654 q 568 571 494 654 q 642 322 642 487 m 519 322 q 477 534 519 469 q 343 600 434 600 q 215 537 254 600 q 175 322 175 474 q 215 104 175 168 q 343 40 256 40 q 476 106 433 40 q 519 322 519 173 m 165 966 l 347 842 l 529 966 l 567 966 l 567 944 l 420 759 l 275 759 l 127 944 l 127 966 l 165 966 z "},"Ǔ":{"ha":1003,"x_min":29,"x_max":974,"o":"m 786 856 l 664 873 l 664 909 l 974 909 l 974 873 l 857 856 l 857 313 q 767 68 857 149 q 507 -14 677 -14 q 236 68 326 -14 q 146 300 146 150 l 146 856 l 29 873 l 29 909 l 393 909 l 393 873 l 276 856 l 276 310 q 517 62 276 62 q 716 124 647 62 q 786 307 786 186 l 786 856 m 317 1193 l 498 1069 l 680 1193 l 718 1193 l 718 1171 l 571 985 l 427 985 l 279 1171 l 279 1193 l 317 1193 z "},"ǔ":{"ha":694,"x_min":18,"x_max":671,"o":"m 212 182 q 321 65 212 65 q 478 86 405 65 l 478 590 l 382 607 l 382 637 l 590 637 l 590 47 l 671 31 l 671 0 l 485 0 l 479 52 q 368 6 431 25 q 262 -14 305 -14 q 100 174 100 -14 l 100 590 l 18 607 l 18 637 l 212 637 l 212 182 m 166 966 l 348 842 l 530 966 l 568 966 l 568 944 l 420 759 l 276 759 l 128 944 l 128 966 l 166 966 z "},"Ǖ":{"ha":1003,"x_min":29,"x_max":974,"o":"m 786 856 l 664 873 l 664 909 l 974 909 l 974 873 l 857 856 l 857 313 q 767 68 857 149 q 507 -14 677 -14 q 236 68 326 -14 q 146 300 146 150 l 146 856 l 29 873 l 29 909 l 393 909 l 393 873 l 276 856 l 276 310 q 517 62 276 62 q 716 124 647 62 q 786 307 786 186 l 786 856 m 305 1164 l 305 1238 l 731 1238 l 731 1164 l 305 1164 m 686 1035 q 669 992 686 1010 q 627 974 652 974 q 584 992 602 974 q 566 1035 566 1010 q 584 1078 566 1060 q 627 1095 602 1095 q 669 1078 652 1095 q 686 1035 686 1060 m 471 1035 q 454 992 471 1010 q 412 974 437 974 q 369 992 387 974 q 351 1035 351 1010 q 369 1078 351 1060 q 412 1095 387 1095 q 454 1078 437 1095 q 471 1035 471 1060 z "},"ǖ":{"ha":694,"x_min":18,"x_max":671,"o":"m 212 182 q 321 65 212 65 q 478 86 405 65 l 478 590 l 382 607 l 382 637 l 590 637 l 590 47 l 671 31 l 671 0 l 485 0 l 479 52 q 368 6 431 25 q 262 -14 305 -14 q 100 174 100 -14 l 100 590 l 18 607 l 18 637 l 212 637 l 212 182 m 534 789 q 515 741 534 761 q 468 721 496 721 q 420 742 439 721 q 400 789 400 763 q 420 838 400 818 q 468 857 439 857 q 515 838 496 857 q 534 789 534 818 m 293 789 q 274 741 293 761 q 227 721 255 721 q 178 741 199 721 q 158 789 158 762 q 179 838 158 818 q 227 857 200 857 q 274 838 255 857 q 293 789 293 818 m 134 922 l 134 996 l 559 996 l 559 922 l 134 922 z "},"Ǘ":{"ha":1003,"x_min":29,"x_max":974,"o":"m 786 856 l 664 873 l 664 909 l 974 909 l 974 873 l 857 856 l 857 313 q 767 68 857 149 q 507 -14 677 -14 q 236 68 326 -14 q 146 300 146 150 l 146 856 l 29 873 l 29 909 l 393 909 l 393 873 l 276 856 l 276 310 q 517 62 276 62 q 716 124 647 62 q 786 307 786 186 l 786 856 m 489 1077 l 489 1093 l 557 1230 l 673 1230 l 673 1213 l 511 1077 l 489 1077 m 351 999 q 368 1042 351 1024 q 410 1059 385 1059 q 452 1042 435 1059 q 470 999 470 1024 q 452 956 470 974 q 410 938 435 938 q 368 956 385 938 q 351 999 351 974 m 566 999 q 583 1042 566 1024 q 625 1059 600 1059 q 668 1042 650 1059 q 686 999 686 1024 q 668 956 686 974 q 625 938 650 938 q 583 956 600 938 q 566 999 566 974 z "},"ǘ":{"ha":694,"x_min":18,"x_max":671,"o":"m 212 182 q 321 65 212 65 q 478 86 405 65 l 478 590 l 382 607 l 382 637 l 590 637 l 590 47 l 671 31 l 671 0 l 485 0 l 479 52 q 368 6 431 25 q 262 -14 305 -14 q 100 174 100 -14 l 100 590 l 18 607 l 18 637 l 212 637 l 212 182 m 534 789 q 515 741 534 761 q 468 721 496 721 q 420 742 439 721 q 400 789 400 763 q 420 838 400 818 q 468 857 439 857 q 515 838 496 857 q 534 789 534 818 m 293 789 q 274 741 293 761 q 227 721 255 721 q 178 741 199 721 q 158 789 158 762 q 179 838 158 818 q 227 857 200 857 q 274 838 255 857 q 293 789 293 818 m 256 912 l 256 935 l 389 1119 l 533 1119 l 533 1094 l 293 912 l 256 912 z "},"Ǚ":{"ha":1003,"x_min":29,"x_max":974,"o":"m 786 856 l 664 873 l 664 909 l 974 909 l 974 873 l 857 856 l 857 313 q 767 68 857 149 q 507 -14 677 -14 q 236 68 326 -14 q 146 300 146 150 l 146 856 l 29 873 l 29 909 l 393 909 l 393 873 l 276 856 l 276 310 q 517 62 276 62 q 716 124 647 62 q 786 307 786 186 l 786 856 m 686 1000 q 669 957 686 975 q 627 939 652 939 q 584 957 602 939 q 566 1000 566 975 q 584 1042 566 1025 q 627 1060 602 1060 q 669 1042 652 1060 q 686 1000 686 1025 m 471 1000 q 454 957 471 975 q 412 939 437 939 q 369 957 387 939 q 351 1000 351 975 q 369 1042 351 1025 q 412 1060 387 1060 q 454 1042 437 1060 q 471 1000 471 1025 m 363 1231 l 518 1147 l 673 1231 l 711 1231 l 711 1208 l 584 1078 l 453 1078 l 326 1208 l 326 1231 l 363 1231 z "},"ǚ":{"ha":694,"x_min":18,"x_max":671,"o":"m 212 182 q 321 65 212 65 q 478 86 405 65 l 478 590 l 382 607 l 382 637 l 590 637 l 590 47 l 671 31 l 671 0 l 485 0 l 479 52 q 368 6 431 25 q 262 -14 305 -14 q 100 174 100 -14 l 100 590 l 18 607 l 18 637 l 212 637 l 212 182 m 534 789 q 515 741 534 761 q 467 721 496 721 q 419 742 439 721 q 399 789 399 763 q 419 838 399 818 q 467 857 439 857 q 515 838 496 857 q 534 789 534 818 m 292 789 q 273 741 292 761 q 226 721 254 721 q 178 741 198 721 q 157 789 157 762 q 178 838 157 818 q 226 857 199 857 q 273 838 254 857 q 292 789 292 818 m 165 1120 l 347 996 l 528 1120 l 566 1120 l 566 1097 l 419 912 l 275 912 l 127 1097 l 127 1120 l 165 1120 z "},"Ǜ":{"ha":1003,"x_min":29,"x_max":974,"o":"m 786 856 l 664 873 l 664 909 l 974 909 l 974 873 l 857 856 l 857 313 q 767 68 857 149 q 507 -14 677 -14 q 236 68 326 -14 q 146 300 146 150 l 146 856 l 29 873 l 29 909 l 393 909 l 393 873 l 276 856 l 276 310 q 517 62 276 62 q 716 124 647 62 q 786 307 786 186 l 786 856 m 526 1078 l 363 1213 l 363 1231 l 479 1231 l 547 1093 l 547 1078 l 526 1078 m 686 1000 q 669 957 686 975 q 627 939 652 939 q 584 957 602 939 q 566 1000 566 975 q 584 1042 566 1025 q 627 1060 602 1060 q 669 1042 652 1060 q 686 1000 686 1025 m 471 1000 q 454 957 471 975 q 412 939 437 939 q 369 957 387 939 q 351 1000 351 975 q 369 1042 351 1025 q 412 1060 387 1060 q 454 1042 437 1060 q 471 1000 471 1025 z "},"ǜ":{"ha":694,"x_min":18,"x_max":671,"o":"m 212 182 q 321 65 212 65 q 478 86 405 65 l 478 590 l 382 607 l 382 637 l 590 637 l 590 47 l 671 31 l 671 0 l 485 0 l 479 52 q 368 6 431 25 q 262 -14 305 -14 q 100 174 100 -14 l 100 590 l 18 607 l 18 637 l 212 637 l 212 182 m 534 789 q 515 741 534 761 q 467 721 496 721 q 419 742 439 721 q 399 789 399 763 q 419 838 399 818 q 467 857 439 857 q 515 838 496 857 q 534 789 534 818 m 292 789 q 273 741 292 761 q 226 721 254 721 q 178 741 198 721 q 157 789 157 762 q 178 838 157 818 q 226 857 199 857 q 273 838 254 857 q 292 789 292 818 m 398 912 l 158 1094 l 158 1119 l 302 1119 l 435 935 l 435 912 l 398 912 z "},"ǝ":{"ha":616,"x_min":48,"x_max":562,"o":"m 440 320 l 440 332 q 419 478 440 426 q 356 557 399 530 q 243 584 313 584 q 156 578 206 584 q 73 564 106 572 l 73 602 q 162 639 106 623 q 276 654 218 654 q 493 574 425 654 q 562 317 562 494 q 492 68 562 151 q 293 -14 422 -14 q 48 264 48 -14 l 48 320 l 440 320 m 293 41 q 401 98 363 41 q 439 266 439 155 l 166 266 q 197 93 166 144 q 293 41 229 41 z "},"Ǟ":{"ha":1003,"x_min":14,"x_max":993,"o":"m 313 36 l 313 0 l 14 0 l 14 36 l 117 54 l 427 917 l 555 917 l 878 54 l 993 36 l 993 0 l 608 0 l 608 36 l 730 54 l 640 317 l 282 317 l 191 54 l 313 36 m 458 819 l 302 378 l 619 378 l 458 819 m 277 1164 l 277 1238 l 703 1238 l 703 1164 l 277 1164 m 657 1035 q 640 992 657 1010 q 598 974 623 974 q 555 992 573 974 q 538 1035 538 1010 q 555 1078 538 1060 q 598 1095 573 1095 q 640 1078 623 1095 q 657 1035 657 1060 m 442 1035 q 425 992 442 1010 q 383 974 408 974 q 340 992 358 974 q 322 1035 322 1010 q 340 1078 322 1060 q 383 1095 358 1095 q 425 1078 408 1095 q 442 1035 442 1060 z "},"ǟ":{"ha":616,"x_min":49,"x_max":597,"o":"m 315 652 q 469 609 420 652 q 518 478 518 566 l 518 47 l 597 31 l 597 0 l 422 0 l 410 64 q 212 -14 332 -14 q 49 176 49 -14 q 74 282 49 240 q 153 346 98 323 q 310 370 207 368 l 406 372 l 406 472 q 381 569 406 538 q 307 600 357 600 q 183 568 239 600 l 160 489 l 122 489 l 122 628 q 315 652 232 652 m 406 325 l 317 322 q 194 287 226 319 q 161 180 161 255 q 258 61 161 61 q 338 72 304 61 q 406 98 372 82 l 406 325 m 497 789 q 478 741 497 761 q 431 721 459 721 q 382 742 402 721 q 363 789 363 763 q 382 838 363 818 q 431 857 402 857 q 478 838 459 857 q 497 789 497 818 m 256 789 q 237 741 256 761 q 189 721 218 721 q 141 741 161 721 q 121 789 121 762 q 142 838 121 818 q 189 857 163 857 q 237 838 218 857 q 256 789 256 818 m 96 922 l 96 996 l 522 996 l 522 922 l 96 922 z "},"Ǡ":{"ha":1003,"x_min":14,"x_max":993,"o":"m 313 36 l 313 0 l 14 0 l 14 36 l 117 54 l 427 917 l 555 917 l 878 54 l 993 36 l 993 0 l 608 0 l 608 36 l 730 54 l 640 317 l 282 317 l 191 54 l 313 36 m 458 819 l 302 378 l 619 378 l 458 819 m 277 1164 l 277 1238 l 703 1238 l 703 1164 l 277 1164 m 564 1043 q 542 991 564 1013 q 490 970 520 970 q 438 991 460 970 q 416 1043 416 1013 q 438 1095 416 1074 q 490 1117 460 1117 q 542 1095 520 1117 q 564 1043 564 1074 z "},"ǡ":{"ha":616,"x_min":49,"x_max":597,"o":"m 315 652 q 469 609 420 652 q 518 478 518 566 l 518 47 l 597 31 l 597 0 l 422 0 l 410 64 q 212 -14 332 -14 q 49 176 49 -14 q 74 282 49 240 q 153 346 98 323 q 310 370 207 368 l 406 372 l 406 472 q 381 569 406 538 q 307 600 357 600 q 183 568 239 600 l 160 489 l 122 489 l 122 628 q 315 652 232 652 m 406 325 l 317 322 q 194 287 226 319 q 161 180 161 255 q 258 61 161 61 q 338 72 304 61 q 406 98 372 82 l 406 325 m 382 794 q 361 743 382 764 q 309 721 339 721 q 257 743 279 721 q 235 794 235 764 q 257 846 235 825 q 309 868 279 868 q 361 846 339 868 q 382 794 382 825 m 96 941 l 96 1015 l 522 1015 l 522 941 l 96 941 z "},"Ǣ":{"ha":1235,"x_min":14,"x_max":1165,"o":"m 496 36 l 599 54 l 599 317 l 319 317 l 179 54 l 286 36 l 286 0 l 14 0 l 14 36 l 106 54 l 545 861 l 433 873 l 433 909 l 1108 909 l 1108 692 l 1064 692 l 1042 839 q 822 848 966 848 l 729 848 l 729 493 l 920 493 l 940 602 l 983 602 l 983 322 l 940 322 l 920 432 l 729 432 l 729 61 l 852 61 q 1082 72 1027 61 l 1121 240 l 1165 240 l 1153 0 l 496 0 l 496 36 m 599 378 l 599 835 l 353 378 l 599 378 m 526 1000 l 526 1074 l 951 1074 l 951 1000 l 526 1000 z "},"ǣ":{"ha":926,"x_min":49,"x_max":880,"o":"m 518 321 l 518 260 q 537 136 519 176 q 590 77 554 97 q 686 57 627 57 q 773 63 723 57 q 856 77 823 69 l 856 39 q 769 2 822 17 q 660 -14 716 -14 q 441 74 504 -14 q 212 -14 343 -14 q 49 176 49 -14 q 74 282 49 240 q 153 346 98 323 q 310 370 207 368 l 406 372 l 406 472 q 381 569 406 538 q 307 600 357 600 q 183 568 239 600 l 160 489 l 122 489 l 122 628 q 315 652 232 652 q 476 602 429 652 q 642 654 536 654 q 820 584 760 654 q 880 376 880 513 l 880 321 l 518 321 m 258 61 q 424 107 336 61 q 412 151 418 119 q 406 216 406 184 l 406 325 l 317 322 q 194 287 226 319 q 161 180 161 255 q 258 61 161 61 m 642 600 q 548 550 577 600 q 518 375 518 500 l 762 375 q 733 546 762 491 q 642 600 703 600 m 256 774 l 256 848 l 682 848 l 682 774 l 256 774 z "},"Ǥ":{"ha":1003,"x_min":57,"x_max":960,"o":"m 960 189 l 871 189 l 871 47 q 707 4 792 22 q 525 -14 623 -14 q 180 106 304 -14 q 57 444 57 225 q 177 801 57 683 q 528 920 296 920 q 847 879 693 920 l 847 684 l 802 684 l 783 796 q 671 847 736 829 q 533 865 606 865 q 279 762 359 865 q 199 446 199 659 q 281 142 199 245 q 526 39 364 39 q 646 52 583 39 q 741 85 708 66 l 741 189 l 558 189 l 558 245 l 741 245 l 741 343 l 624 361 l 624 397 l 960 397 l 960 361 l 871 343 l 871 245 l 960 245 l 960 189 z "},"ǥ":{"ha":694,"x_min":0,"x_max":694,"o":"m 650 -152 q 535 -262 618 -224 q 326 -300 452 -300 q 131 -261 200 -300 q 60 -152 62 -223 l 0 -152 l 0 -95 l 72 -95 q 174 7 95 -49 q 109 51 135 20 q 82 118 82 82 l 189 239 q 82 436 82 289 q 148 597 82 541 q 340 654 214 654 q 405 649 366 654 q 465 637 444 644 l 615 713 l 639 684 l 545 586 q 590 436 590 535 q 524 270 590 326 q 335 214 458 214 q 232 224 279 214 l 189 135 q 216 113 191 123 q 277 103 240 103 l 465 103 q 618 58 568 103 q 668 -65 668 14 l 666 -95 l 694 -95 l 694 -152 l 650 -152 m 336 265 q 441 308 410 265 q 472 436 472 350 q 440 565 472 526 q 338 603 408 603 q 233 564 267 603 q 200 436 200 526 q 233 306 200 347 q 336 265 265 265 m 562 -86 q 538 -26 562 -47 q 467 -4 515 -4 l 220 -4 q 161 -95 177 -41 l 562 -95 l 562 -86 m 326 -245 q 471 -220 416 -245 q 547 -152 525 -194 l 156 -152 q 203 -223 161 -201 q 326 -245 245 -245 z "},"Ǧ":{"ha":1003,"x_min":57,"x_max":960,"o":"m 871 47 q 707 4 792 22 q 525 -14 623 -14 q 180 106 304 -14 q 57 444 57 225 q 177 801 57 683 q 528 920 296 920 q 847 879 693 920 l 847 684 l 802 684 l 783 796 q 671 847 736 829 q 533 865 606 865 q 279 762 359 865 q 199 446 199 659 q 281 142 199 245 q 526 39 364 39 q 646 52 583 39 q 741 85 708 66 l 741 343 l 624 361 l 624 397 l 960 397 l 960 361 l 871 343 l 871 47 m 348 1193 l 530 1069 l 711 1193 l 749 1193 l 749 1171 l 602 985 l 458 985 l 310 1171 l 310 1193 l 348 1193 z "},"ǧ":{"ha":694,"x_min":60,"x_max":668,"o":"m 590 436 q 524 270 590 326 q 335 214 458 214 q 232 224 279 214 l 189 135 q 216 113 191 123 q 277 103 240 103 l 465 103 q 618 58 568 103 q 668 -65 668 14 q 628 -189 668 -136 q 512 -271 589 -242 q 326 -300 435 -300 q 128 -260 196 -300 q 60 -146 60 -220 q 84 -75 60 -110 q 174 7 109 -40 q 109 51 135 20 q 82 118 82 82 l 189 239 q 82 436 82 289 q 148 597 82 541 q 340 654 214 654 q 405 649 366 654 q 465 637 444 644 l 615 713 l 639 684 l 545 586 q 590 436 590 535 m 562 -86 q 538 -26 562 -47 q 467 -4 515 -4 l 220 -4 q 173 -66 191 -28 q 155 -136 155 -104 q 197 -220 155 -195 q 326 -245 239 -245 q 501 -203 439 -245 q 562 -86 562 -161 m 336 265 q 441 308 410 265 q 472 436 472 350 q 440 565 472 526 q 338 603 408 603 q 233 564 267 603 q 200 436 200 526 q 233 306 200 347 q 336 265 265 265 m 152 966 l 334 842 l 515 966 l 553 966 l 553 944 l 406 759 l 262 759 l 114 944 l 114 966 l 152 966 z "},"Ǩ":{"ha":1003,"x_min":40,"x_max":989,"o":"m 918 909 l 918 873 l 812 856 l 502 552 l 890 54 l 989 36 l 989 0 l 766 0 l 410 460 l 288 361 l 288 54 l 418 36 l 418 0 l 40 0 l 40 36 l 157 54 l 157 856 l 40 873 l 40 909 l 404 909 l 404 873 l 288 856 l 288 427 l 723 856 l 633 873 l 633 909 l 918 909 m 267 1193 l 449 1069 l 631 1193 l 669 1193 l 669 1171 l 522 985 l 377 985 l 229 1171 l 229 1193 l 267 1193 z "},"ǩ":{"ha":694,"x_min":26,"x_max":694,"o":"m 233 307 l 494 589 l 428 607 l 428 637 l 653 637 l 653 607 l 574 591 l 392 406 l 625 46 l 694 31 l 694 0 l 433 0 l 433 31 l 492 47 l 317 322 l 233 231 l 233 47 l 301 31 l 301 0 l 40 0 l 40 31 l 121 47 l 121 917 l 26 933 l 26 964 l 233 964 l 233 307 m 152 1220 l 334 1096 l 515 1220 l 553 1220 l 553 1198 l 406 1013 l 262 1013 l 114 1198 l 114 1220 l 152 1220 z "},"Ǫ":{"ha":1003,"x_min":57,"x_max":946,"o":"m 601 -273 q 485 -234 526 -273 q 444 -126 444 -195 q 484 -13 444 -66 q 165 112 273 -9 q 57 456 57 232 q 501 920 57 920 q 833 802 721 920 q 946 456 946 684 q 850 125 946 243 q 567 -10 754 7 q 543 -110 543 -59 q 567 -187 543 -160 q 636 -214 591 -214 q 715 -199 677 -214 l 715 -242 q 601 -273 669 -273 m 199 456 q 272 138 199 237 q 501 40 345 40 q 730 138 656 40 q 804 456 804 237 q 731 769 804 673 q 501 865 657 865 q 272 769 345 865 q 199 456 199 673 z "},"ǫ":{"ha":694,"x_min":53,"x_max":642,"o":"m 642 322 q 403 -9 642 22 q 378 -110 378 -62 q 402 -187 378 -160 q 472 -214 427 -214 q 551 -199 513 -214 l 551 -242 q 437 -273 505 -273 q 321 -234 361 -273 q 280 -126 280 -195 q 320 -13 280 -67 q 120 80 186 -5 q 53 322 53 165 q 126 569 53 484 q 349 654 199 654 q 568 571 494 654 q 642 322 642 487 m 519 322 q 477 534 519 469 q 343 600 434 600 q 215 537 254 600 q 175 322 175 474 q 215 104 175 168 q 343 40 256 40 q 476 106 433 40 q 519 322 519 173 z "},"Ǭ":{"ha":1003,"x_min":57,"x_max":946,"o":"m 601 -273 q 485 -234 526 -273 q 444 -126 444 -195 q 484 -13 444 -66 q 165 112 273 -9 q 57 456 57 232 q 501 920 57 920 q 833 802 721 920 q 946 456 946 684 q 850 125 946 243 q 567 -10 754 7 q 543 -110 543 -59 q 567 -187 543 -160 q 636 -214 591 -214 q 715 -199 677 -214 l 715 -242 q 601 -273 669 -273 m 199 456 q 272 138 199 237 q 501 40 345 40 q 730 138 656 40 q 804 456 804 237 q 731 769 804 673 q 501 865 657 865 q 272 769 345 865 q 199 456 199 673 m 288 1000 l 288 1074 l 714 1074 l 714 1000 l 288 1000 z "},"ǭ":{"ha":694,"x_min":53,"x_max":642,"o":"m 642 322 q 403 -9 642 22 q 378 -110 378 -62 q 402 -187 378 -160 q 472 -214 427 -214 q 551 -199 513 -214 l 551 -242 q 437 -273 505 -273 q 321 -234 361 -273 q 280 -126 280 -195 q 320 -13 280 -67 q 120 80 186 -5 q 53 322 53 165 q 126 569 53 484 q 349 654 199 654 q 568 571 494 654 q 642 322 642 487 m 519 322 q 477 534 519 469 q 343 600 434 600 q 215 537 254 600 q 175 322 175 474 q 215 104 175 168 q 343 40 256 40 q 476 106 433 40 q 519 322 519 173 m 134 774 l 134 848 l 560 848 l 560 774 l 134 774 z "},"Ǯ":{"ha":749,"x_min":29,"x_max":706,"o":"m 307 -300 q 32 -257 165 -300 l 29 -43 l 75 -43 l 92 -180 q 179 -229 123 -210 q 298 -248 235 -248 q 496 -165 428 -248 q 564 77 564 -82 q 489 326 564 243 q 267 408 413 408 l 191 408 l 191 461 l 480 851 l 364 851 q 153 837 210 851 l 133 694 l 86 694 l 86 909 l 640 909 l 640 854 l 347 460 q 612 348 519 448 q 706 75 706 248 q 601 -201 706 -101 q 307 -300 496 -300 m 193 1193 l 374 1069 l 556 1193 l 594 1193 l 594 1171 l 447 985 l 302 985 l 155 1171 l 155 1193 l 193 1193 z "},"ǯ":{"ha":616,"x_min":22,"x_max":577,"o":"m 247 -300 q 118 -286 181 -300 q 22 -248 56 -272 l 22 -208 q 108 -223 55 -217 q 210 -230 161 -230 q 396 -177 336 -230 q 455 -1 455 -123 q 400 174 455 111 q 246 237 345 237 l 195 237 l 195 271 l 397 583 l 224 583 q 151 577 186 583 q 102 559 116 570 l 81 468 l 50 468 l 50 637 l 552 637 l 552 602 l 334 281 q 517 197 458 263 q 577 12 577 130 q 490 -217 577 -134 q 247 -300 402 -300 m 118 966 l 300 842 l 481 966 l 519 966 l 519 944 l 372 759 l 228 759 l 80 944 l 80 966 l 118 966 z "},"ǰ":{"ha":386,"x_min":-40,"x_max":405,"o":"m 260 -26 q 209 -227 260 -159 q 58 -296 157 -296 q -40 -283 16 -296 l -40 -149 l -8 -149 l 10 -222 q 66 -241 33 -241 q 127 -199 106 -241 q 147 -61 147 -156 l 147 590 l 52 607 l 52 637 l 260 637 l 260 -26 m 3 966 l 185 842 l 367 966 l 405 966 l 405 944 l 258 759 l 113 759 l -35 944 l -35 966 l 3 966 z "},"Ǳ":{"ha":1851,"x_min":40,"x_max":1775,"o":"m 806 461 q 703 750 806 652 q 410 848 600 848 l 288 848 l 288 64 q 481 58 369 58 q 727 157 648 58 q 806 461 806 255 m 453 909 q 826 797 705 909 q 947 460 947 685 q 830 115 947 232 q 481 -3 713 -3 l 157 0 l 40 0 l 40 36 l 157 54 l 157 856 l 40 873 l 40 909 l 453 909 m 1069 64 l 1579 851 l 1410 851 q 1179 838 1242 851 l 1158 694 l 1112 694 l 1112 909 l 1731 909 l 1731 851 l 1217 57 l 1414 57 q 1574 64 1493 57 q 1688 79 1655 72 l 1728 253 l 1775 253 l 1757 0 l 1069 0 l 1069 64 z "},"ǲ":{"ha":1619,"x_min":40,"x_max":1581,"o":"m 806 461 q 703 750 806 652 q 410 848 600 848 l 288 848 l 288 64 q 481 58 369 58 q 727 157 648 58 q 806 461 806 255 m 453 909 q 826 797 705 909 q 947 460 947 685 q 830 115 947 232 q 481 -3 713 -3 l 157 0 l 40 0 l 40 36 l 157 54 l 157 856 l 40 873 l 40 909 l 453 909 m 1040 0 l 1040 31 l 1390 583 l 1240 583 q 1167 577 1202 583 q 1118 559 1132 570 l 1097 468 l 1065 468 l 1065 637 l 1536 637 l 1536 604 l 1186 54 l 1373 54 q 1454 63 1411 54 q 1514 86 1497 73 l 1549 220 l 1581 220 l 1564 0 l 1040 0 z "},"ǳ":{"ha":1311,"x_min":50,"x_max":1272,"o":"m 490 47 q 311 -14 414 -14 q 50 313 50 -14 q 124 567 50 480 q 342 654 198 654 q 490 639 415 654 q 486 751 486 661 l 486 917 l 379 933 l 379 964 l 599 964 l 599 47 l 677 31 l 677 0 l 498 0 l 490 47 m 172 313 q 216 120 172 184 q 349 57 259 57 q 486 83 425 57 l 486 587 q 349 599 426 599 q 172 313 172 599 m 732 0 l 732 31 l 1082 583 l 932 583 q 859 577 894 583 q 810 559 823 570 l 789 468 l 757 468 l 757 637 l 1227 637 l 1227 604 l 878 54 l 1064 54 q 1145 63 1103 54 q 1206 86 1188 73 l 1240 220 l 1272 220 l 1255 0 l 732 0 z "},"Ǵ":{"ha":1003,"x_min":57,"x_max":960,"o":"m 871 47 q 707 4 792 22 q 525 -14 623 -14 q 180 106 304 -14 q 57 444 57 225 q 177 801 57 683 q 528 920 296 920 q 847 879 693 920 l 847 684 l 802 684 l 783 796 q 671 847 736 829 q 533 865 606 865 q 279 762 359 865 q 199 446 199 659 q 281 142 199 245 q 526 39 364 39 q 646 52 583 39 q 741 85 708 66 l 741 343 l 624 361 l 624 397 l 960 397 l 960 361 l 871 343 l 871 47 m 418 985 l 418 1008 l 551 1192 l 695 1192 l 695 1167 l 455 985 l 418 985 z "},"ǵ":{"ha":694,"x_min":60,"x_max":668,"o":"m 590 436 q 524 270 590 326 q 335 214 458 214 q 232 224 279 214 l 189 135 q 216 113 191 123 q 277 103 240 103 l 465 103 q 618 58 568 103 q 668 -65 668 14 q 628 -189 668 -136 q 512 -271 589 -242 q 326 -300 435 -300 q 128 -260 196 -300 q 60 -146 60 -220 q 84 -75 60 -110 q 174 7 109 -40 q 109 51 135 20 q 82 118 82 82 l 189 239 q 82 436 82 289 q 148 597 82 541 q 340 654 214 654 q 405 649 366 654 q 465 637 444 644 l 615 713 l 639 684 l 545 586 q 590 436 590 535 m 562 -86 q 538 -26 562 -47 q 467 -4 515 -4 l 220 -4 q 173 -66 191 -28 q 155 -136 155 -104 q 197 -220 155 -195 q 326 -245 239 -245 q 501 -203 439 -245 q 562 -86 562 -161 m 336 265 q 441 308 410 265 q 472 436 472 350 q 440 565 472 526 q 338 603 408 603 q 233 564 267 603 q 200 436 200 526 q 233 306 200 347 q 336 265 265 265 m 285 759 l 285 781 l 418 966 l 562 966 l 562 941 l 322 759 l 285 759 z "},"Ƕ":{"ha":1319,"x_min":40,"x_max":1223,"o":"m 715 437 l 288 437 l 288 54 l 404 36 l 404 0 l 40 0 l 40 36 l 157 54 l 157 856 l 40 873 l 40 909 l 404 909 l 404 873 l 288 856 l 288 498 l 715 498 l 715 856 l 599 873 l 599 909 l 962 909 l 962 873 l 846 856 l 846 182 q 878 73 846 106 q 979 40 911 40 q 1075 80 1038 40 q 1111 182 1111 119 l 1111 590 l 1029 607 l 1029 637 l 1223 637 l 1223 174 q 1161 35 1223 83 q 979 -14 1098 -14 q 715 174 715 -14 l 715 437 z "},"Ƿ":{"ha":778,"x_min":23,"x_max":729,"o":"m 269 -300 l 23 -300 l 23 -264 l 138 -246 l 138 856 l 23 873 l 23 909 l 269 909 l 269 774 q 492 920 357 920 q 668 833 607 920 q 729 590 729 747 q 613 233 729 385 q 269 -9 496 80 l 269 -300 m 269 56 q 512 265 429 130 q 594 583 594 400 q 555 745 594 685 q 446 804 517 804 q 269 705 355 804 l 269 56 z "},"Ǹ":{"ha":1003,"x_min":40,"x_max":971,"o":"m 783 856 l 661 873 l 661 909 l 971 909 l 971 873 l 854 856 l 854 0 l 789 0 l 228 818 l 228 54 l 350 36 l 350 0 l 40 0 l 40 36 l 157 54 l 157 856 l 40 873 l 40 909 l 315 909 l 783 236 l 783 856 m 569 1035 l 329 1217 l 329 1242 l 473 1242 l 606 1057 l 606 1035 l 569 1035 z "},"ǹ":{"ha":694,"x_min":32,"x_max":673,"o":"m 220 586 q 331 635 272 616 q 429 654 390 654 q 554 606 512 654 q 596 467 596 558 l 596 47 l 673 31 l 673 0 l 399 0 l 399 31 l 484 47 l 484 454 q 456 543 484 511 q 371 575 429 575 q 221 555 310 575 l 221 47 l 307 31 l 307 0 l 32 0 l 32 31 l 109 47 l 109 590 l 32 607 l 32 637 l 214 637 l 220 586 m 393 759 l 153 941 l 153 966 l 297 966 l 430 781 l 430 759 l 393 759 z "},"Ǻ":{"ha":1003,"x_min":14,"x_max":993,"o":"m 313 36 l 313 0 l 14 0 l 14 36 l 117 54 l 427 917 l 555 917 l 878 54 l 993 36 l 993 0 l 608 0 l 608 36 l 730 54 l 640 317 l 282 317 l 191 54 l 313 36 m 458 819 l 302 378 l 619 378 l 458 819 m 627 1001 q 587 904 627 944 q 490 863 547 863 q 392 904 433 863 q 352 1001 352 944 q 392 1098 352 1058 q 490 1139 433 1139 q 587 1098 547 1139 q 627 1001 627 1058 m 573 1001 q 549 1060 573 1036 q 490 1084 524 1084 q 431 1060 455 1084 q 406 1001 406 1036 q 431 942 406 966 q 490 918 456 918 q 548 941 522 918 q 573 1001 573 965 m 425 1156 l 425 1179 l 557 1363 l 702 1363 l 702 1338 l 462 1156 l 425 1156 z "},"ǻ":{"ha":616,"x_min":49,"x_max":597,"o":"m 315 652 q 469 609 420 652 q 518 478 518 566 l 518 47 l 597 31 l 597 0 l 422 0 l 410 64 q 212 -14 332 -14 q 49 176 49 -14 q 74 282 49 240 q 153 346 98 323 q 310 370 207 368 l 406 372 l 406 472 q 381 569 406 538 q 307 600 357 600 q 183 568 239 600 l 160 489 l 122 489 l 122 628 q 315 652 232 652 m 406 325 l 317 322 q 194 287 226 319 q 161 180 161 255 q 258 61 161 61 q 338 72 304 61 q 406 98 372 82 l 406 325 m 457 868 q 417 771 457 811 q 319 730 376 730 q 222 771 262 730 q 182 868 182 811 q 222 965 182 925 q 319 1006 262 1006 q 417 965 376 1006 q 457 868 457 925 m 403 868 q 378 927 403 903 q 319 951 354 951 q 260 927 285 951 q 236 868 236 903 q 261 809 236 833 q 319 785 286 785 q 377 808 352 785 q 403 868 403 832 m 239 1038 l 239 1060 l 372 1244 l 516 1244 l 516 1219 l 276 1038 l 239 1038 z "},"Ǽ":{"ha":1235,"x_min":14,"x_max":1165,"o":"m 496 36 l 599 54 l 599 317 l 319 317 l 179 54 l 286 36 l 286 0 l 14 0 l 14 36 l 106 54 l 545 861 l 433 873 l 433 909 l 1108 909 l 1108 692 l 1064 692 l 1042 839 q 822 848 966 848 l 729 848 l 729 493 l 920 493 l 940 602 l 983 602 l 983 322 l 940 322 l 920 432 l 729 432 l 729 61 l 852 61 q 1082 72 1027 61 l 1121 240 l 1165 240 l 1153 0 l 496 0 l 496 36 m 599 378 l 599 835 l 353 378 l 599 378 m 670 985 l 670 1008 l 803 1192 l 947 1192 l 947 1167 l 707 985 l 670 985 z "},"ǽ":{"ha":926,"x_min":49,"x_max":880,"o":"m 518 321 l 518 260 q 537 136 519 176 q 590 77 554 97 q 686 57 627 57 q 773 63 723 57 q 856 77 823 69 l 856 39 q 769 2 822 17 q 660 -14 716 -14 q 441 74 504 -14 q 212 -14 343 -14 q 49 176 49 -14 q 74 282 49 240 q 153 346 98 323 q 310 370 207 368 l 406 372 l 406 472 q 381 569 406 538 q 307 600 357 600 q 183 568 239 600 l 160 489 l 122 489 l 122 628 q 315 652 232 652 q 476 602 429 652 q 642 654 536 654 q 820 584 760 654 q 880 376 880 513 l 880 321 l 518 321 m 258 61 q 424 107 336 61 q 412 151 418 119 q 406 216 406 184 l 406 325 l 317 322 q 194 287 226 319 q 161 180 161 255 q 258 61 161 61 m 642 600 q 548 550 577 600 q 518 375 518 500 l 762 375 q 733 546 762 491 q 642 600 703 600 m 387 759 l 387 781 l 520 966 l 665 966 l 665 941 l 425 759 l 387 759 z "},"Ǿ":{"ha":1003,"x_min":57,"x_max":946,"o":"m 57 456 q 501 920 57 920 q 785 843 677 920 l 868 943 l 946 943 l 831 804 q 946 456 946 684 q 832 105 946 224 q 501 -14 718 -14 q 221 61 326 -14 l 139 -37 l 58 -37 l 174 102 q 57 456 57 221 m 199 456 q 243 186 199 284 l 728 772 q 501 865 654 865 q 272 769 345 865 q 199 456 199 673 m 804 456 q 761 718 804 621 l 278 131 q 501 40 350 40 q 730 138 656 40 q 804 456 804 237 m 425 985 l 425 1008 l 558 1192 l 703 1192 l 703 1167 l 463 985 l 425 985 z "},"ǿ":{"ha":694,"x_min":47,"x_max":646,"o":"m 646 693 l 562 575 q 642 322 642 489 q 343 -14 642 -14 q 179 26 245 -14 l 121 -57 l 47 -57 l 134 64 q 53 322 53 149 q 126 569 53 484 q 349 654 199 654 q 518 611 450 654 l 575 693 l 646 693 m 175 322 q 195 151 175 213 l 469 543 q 343 600 427 600 q 215 537 254 600 q 175 322 175 474 m 519 322 q 498 485 519 422 l 224 92 q 343 40 264 40 q 476 106 433 40 q 519 322 519 173 m 274 759 l 274 781 l 407 966 l 551 966 l 551 941 l 311 759 l 274 759 z "},"Ȁ":{"ha":1003,"x_min":14,"x_max":993,"o":"m 313 36 l 313 0 l 14 0 l 14 36 l 117 54 l 427 917 l 555 917 l 878 54 l 993 36 l 993 0 l 608 0 l 608 36 l 730 54 l 640 317 l 282 317 l 191 54 l 313 36 m 458 819 l 302 378 l 619 378 l 458 819 m 646 985 l 448 1167 l 448 1192 l 578 1192 l 684 1008 l 684 985 l 646 985 m 408 985 l 210 1167 l 210 1192 l 340 1192 l 446 1008 l 446 985 l 408 985 z "},"ȁ":{"ha":616,"x_min":26,"x_max":597,"o":"m 315 652 q 469 609 420 652 q 518 478 518 566 l 518 47 l 597 31 l 597 0 l 422 0 l 410 64 q 212 -14 332 -14 q 49 176 49 -14 q 74 282 49 240 q 153 346 98 323 q 310 370 207 368 l 406 372 l 406 472 q 381 569 406 538 q 307 600 357 600 q 183 568 239 600 l 160 489 l 122 489 l 122 628 q 315 652 232 652 m 406 325 l 317 322 q 194 287 226 319 q 161 180 161 255 q 258 61 161 61 q 338 72 304 61 q 406 98 372 82 l 406 325 m 463 759 l 264 941 l 264 966 l 394 966 l 500 781 l 500 759 l 463 759 m 224 759 l 26 941 l 26 966 l 157 966 l 262 781 l 262 759 l 224 759 z "},"Ȃ":{"ha":1003,"x_min":14,"x_max":993,"o":"m 313 36 l 313 0 l 14 0 l 14 36 l 117 54 l 427 917 l 555 917 l 878 54 l 993 36 l 993 0 l 608 0 l 608 36 l 730 54 l 640 317 l 282 317 l 191 54 l 313 36 m 458 819 l 302 378 l 619 378 l 458 819 m 492 1175 q 632 1125 581 1175 q 686 985 683 1075 l 636 985 q 587 1055 625 1031 q 492 1080 549 1080 q 397 1055 435 1080 q 347 985 359 1031 l 297 985 q 349 1123 298 1071 q 492 1175 400 1175 z "},"ȃ":{"ha":616,"x_min":49,"x_max":597,"o":"m 315 652 q 469 609 420 652 q 518 478 518 566 l 518 47 l 597 31 l 597 0 l 422 0 l 410 64 q 212 -14 332 -14 q 49 176 49 -14 q 74 282 49 240 q 153 346 98 323 q 310 370 207 368 l 406 372 l 406 472 q 381 569 406 538 q 307 600 357 600 q 183 568 239 600 l 160 489 l 122 489 l 122 628 q 315 652 232 652 m 406 325 l 317 322 q 194 287 226 319 q 161 180 161 255 q 258 61 161 61 q 338 72 304 61 q 406 98 372 82 l 406 325 m 323 949 q 463 899 412 949 q 517 759 514 848 l 467 759 q 418 829 456 804 q 323 853 380 853 q 228 829 266 853 q 178 759 190 804 l 128 759 q 180 897 130 844 q 323 949 231 949 z "},"Ȅ":{"ha":848,"x_min":40,"x_max":779,"o":"m 40 36 l 157 54 l 157 856 l 40 873 l 40 909 l 722 909 l 722 692 l 677 692 l 656 839 q 436 848 580 848 l 288 848 l 288 493 l 533 493 l 554 602 l 597 602 l 597 322 l 554 322 l 533 432 l 288 432 l 288 61 l 467 61 q 696 72 642 61 l 734 240 l 779 240 l 766 0 l 40 0 l 40 36 m 575 985 l 376 1167 l 376 1192 l 507 1192 l 612 1008 l 612 985 l 575 985 m 337 985 l 139 1167 l 139 1192 l 269 1192 l 375 1008 l 375 985 l 337 985 z "},"ȅ":{"ha":616,"x_min":54,"x_max":568,"o":"m 176 321 l 176 309 q 197 163 176 215 q 261 84 218 111 q 374 57 304 57 q 460 63 410 57 q 543 77 511 69 l 543 39 q 455 2 511 18 q 340 -14 399 -14 q 123 66 192 -14 q 54 323 54 146 q 124 572 54 490 q 323 654 194 654 q 568 376 568 654 l 568 321 l 176 321 m 323 600 q 215 543 253 600 q 178 375 178 486 l 450 375 q 419 548 450 496 q 323 600 388 600 m 498 759 l 300 941 l 300 966 l 430 966 l 536 781 l 536 759 l 498 759 m 260 759 l 62 941 l 62 966 l 193 966 l 298 781 l 298 759 l 260 759 z "},"Ȇ":{"ha":848,"x_min":40,"x_max":779,"o":"m 40 36 l 157 54 l 157 856 l 40 873 l 40 909 l 722 909 l 722 692 l 677 692 l 656 839 q 436 848 580 848 l 288 848 l 288 493 l 533 493 l 554 602 l 597 602 l 597 322 l 554 322 l 533 432 l 288 432 l 288 61 l 467 61 q 696 72 642 61 l 734 240 l 779 240 l 766 0 l 40 0 l 40 36 m 410 1175 q 551 1125 500 1175 q 605 985 602 1075 l 555 985 q 506 1055 544 1031 q 410 1080 467 1080 q 315 1055 353 1080 q 266 985 277 1031 l 216 985 q 268 1123 217 1071 q 410 1175 319 1175 z "},"ȇ":{"ha":616,"x_min":54,"x_max":568,"o":"m 176 321 l 176 309 q 197 163 176 215 q 261 84 218 111 q 374 57 304 57 q 460 63 410 57 q 543 77 511 69 l 543 39 q 455 2 511 18 q 340 -14 399 -14 q 123 66 192 -14 q 54 323 54 146 q 124 572 54 490 q 323 654 194 654 q 568 376 568 654 l 568 321 l 176 321 m 323 600 q 215 543 253 600 q 178 375 178 486 l 450 375 q 419 548 450 496 q 323 600 388 600 m 325 949 q 465 899 414 949 q 519 759 516 848 l 469 759 q 420 829 458 804 q 325 853 382 853 q 230 829 268 853 q 180 759 192 804 l 130 759 q 182 897 132 844 q 325 949 233 949 z "},"Ȉ":{"ha":463,"x_min":-35,"x_max":439,"o":"m 297 54 l 414 36 l 414 0 l 50 0 l 50 36 l 167 54 l 167 856 l 50 873 l 50 909 l 414 909 l 414 873 l 297 856 l 297 54 m 401 985 l 203 1167 l 203 1192 l 333 1192 l 439 1008 l 439 985 l 401 985 m 163 985 l -35 1167 l -35 1192 l 96 1192 l 201 1008 l 201 985 l 163 985 z "},"ȉ":{"ha":386,"x_min":-87,"x_max":387,"o":"m 250 47 l 359 31 l 359 0 l 29 0 l 29 31 l 138 47 l 138 590 l 47 607 l 47 637 l 250 637 l 250 47 m 349 759 l 151 941 l 151 966 l 281 966 l 387 781 l 387 759 l 349 759 m 111 759 l -87 941 l -87 966 l 43 966 l 149 781 l 149 759 l 111 759 z "},"Ȋ":{"ha":463,"x_min":37,"x_max":426,"o":"m 297 54 l 414 36 l 414 0 l 50 0 l 50 36 l 167 54 l 167 856 l 50 873 l 50 909 l 414 909 l 414 873 l 297 856 l 297 54 m 231 1175 q 372 1125 321 1175 q 426 985 422 1075 l 376 985 q 327 1055 365 1031 q 231 1080 288 1080 q 136 1055 174 1080 q 87 985 98 1031 l 37 985 q 89 1123 38 1071 q 231 1175 140 1175 z "},"ȋ":{"ha":386,"x_min":-11,"x_max":378,"o":"m 250 47 l 359 31 l 359 0 l 29 0 l 29 31 l 138 47 l 138 590 l 47 607 l 47 637 l 250 637 l 250 47 m 184 949 q 324 899 273 949 q 378 759 375 848 l 328 759 q 279 829 317 804 q 184 853 241 853 q 89 829 127 853 q 39 759 51 804 l -11 759 q 41 897 -9 844 q 184 949 92 949 z "}}}
